<svg width="42" height="42" viewBox="0 0 42 42" fill="none" xmlns="http://www.w3.org/2000/svg">
<path d="M21 14.8837C17.6138 14.8837 14.8837 17.64 14.8837 21C14.8837 24.36 17.64 27.1162 21 27.1162C24.36 27.1162 27.1162 24.36 27.1162 21C27.1162 17.64 24.36 14.8837 21 14.8837ZM39.375 21C39.375 18.4537 39.375 15.96 39.2437 13.4138C39.1125 10.4738 38.43 7.84875 36.2775 5.7225C34.125 3.57 31.5263 2.8875 28.5863 2.75625C26.04 2.625 23.5462 2.625 21 2.625C18.4537 2.625 15.96 2.625 13.4138 2.75625C10.4738 2.8875 7.84875 3.57 5.7225 5.7225C3.57 7.875 2.8875 10.4738 2.75625 13.4138C2.625 15.96 2.625 18.4537 2.625 21C2.625 23.5462 2.625 26.04 2.75625 28.5863C2.8875 31.5263 3.57 34.1512 5.7225 36.2775C7.875 38.43 10.4738 39.1125 13.4138 39.2437C15.96 39.375 18.4537 39.375 21 39.375C23.5462 39.375 26.04 39.375 28.5863 39.2437C31.5263 39.1125 34.1512 38.43 36.2775 36.2775C38.43 34.125 39.1125 31.5263 39.2437 28.5863C39.4012 26.0663 39.375 23.5462 39.375 21ZM21 30.4237C15.7762 30.4237 11.5763 26.2237 11.5763 21C11.5763 15.7762 15.7762 11.5763 21 11.5763C26.2237 11.5763 30.4237 15.7762 30.4237 21C30.4237 26.2237 26.2237 30.4237 21 30.4237ZM30.8175 13.3875C29.61 13.3875 28.6125 12.4163 28.6125 11.1825C28.6125 9.94875 29.5837 8.9775 30.8175 8.9775C32.0512 8.9775 33.0225 9.94875 33.0225 11.1825C33.0291 11.47 32.9767 11.7559 32.8683 12.0223C32.7599 12.2887 32.598 12.53 32.3925 12.7312C32.1912 12.9367 31.9499 13.0987 31.6835 13.207C31.4171 13.3154 31.1313 13.3679 30.8438 13.3612L30.8175 13.3875Z" fill="#5E5E5E"/>
</svg>
