<svg width="24" height="24" viewBox="0 0 24 24" fill="none" xmlns="http://www.w3.org/2000/svg">
<g clip-path="url(#clip0_9_226)">
<path d="M11.9996 1.33337C9.92304 1.33511 7.93156 2.1585 6.46011 3.6237C4.98866 5.08891 4.15681 7.07687 4.14624 9.15337C4.14624 12.2667 5.89291 14.8734 7.17291 16.7734L7.40624 17.12C8.67976 18.9658 10.046 20.7458 11.4996 22.4534L12.0062 23.0467L12.5129 22.4534C13.9663 20.7457 15.3325 18.9657 16.6062 17.12L16.8396 16.7667C18.1129 14.8667 19.8596 12.2667 19.8596 9.15337C19.849 7.07571 19.0162 5.08675 17.5433 3.62135C16.0704 2.15596 14.0773 1.33335 11.9996 1.33337ZM11.9996 12.6667C11.1346 12.6667 10.2891 12.4102 9.56988 11.9297C8.85069 11.4491 8.29015 10.7661 7.95914 9.96698C7.62813 9.16785 7.54153 8.28852 7.71027 7.44018C7.87902 6.59184 8.29554 5.81258 8.90716 5.20096C9.51878 4.58934 10.298 4.17282 11.1464 4.00407C11.9947 3.83533 12.8741 3.92193 13.6732 4.25294C14.4723 4.58395 15.1553 5.14449 15.6359 5.86368C16.1164 6.58287 16.3729 7.42841 16.3729 8.29337C16.3729 9.45325 15.9121 10.5656 15.092 11.3858C14.2718 12.2059 13.1595 12.6667 11.9996 12.6667Z" fill="#7E1C0F"/>
<path d="M11.9996 10.78C13.373 10.78 14.4863 9.66666 14.4863 8.29331C14.4863 6.91996 13.373 5.80664 11.9996 5.80664C10.6263 5.80664 9.51294 6.91996 9.51294 8.29331C9.51294 9.66666 10.6263 10.78 11.9996 10.78Z" fill="#7E1C0F"/>
</g>
<defs>
<clipPath id="clip0_9_226">
<rect width="24" height="24" fill="white" transform="translate(-0.000488281)"/>
</clipPath>
</defs>
</svg>
