<svg width="28" height="28" viewBox="0 0 28 28" fill="none" xmlns="http://www.w3.org/2000/svg">
<path d="M15.3686 0.666687C16.8686 0.670687 17.6299 0.678687 18.2873 0.697354L18.5459 0.706687C18.8446 0.717354 19.1393 0.730687 19.4953 0.746687C20.9139 0.813354 21.8819 1.03735 22.7313 1.36669C23.6113 1.70535 24.3526 2.16402 25.0939 2.90402C25.7719 3.57055 26.2965 4.37681 26.6313 5.26669C26.9606 6.11602 27.1846 7.08402 27.2513 8.50402C27.2673 8.85869 27.2806 9.15335 27.2913 9.45335L27.2993 9.71202C27.3193 10.368 27.3273 11.1294 27.3299 12.6294L27.3313 13.624V15.3707C27.3345 16.3432 27.3243 17.3158 27.3006 18.288L27.2926 18.5467C27.2819 18.8467 27.2686 19.1414 27.2526 19.496C27.1859 20.916 26.9593 21.8827 26.6313 22.7334C26.2975 23.6237 25.7727 24.4302 25.0939 25.096C24.4272 25.7738 23.621 26.2984 22.7313 26.6334C21.8819 26.9627 20.9139 27.1867 19.4953 27.2534C19.1789 27.2683 18.8624 27.2816 18.5459 27.2934L18.2873 27.3014C17.6299 27.32 16.8686 27.3294 15.3686 27.332L14.3739 27.3334H12.6286C11.6556 27.3367 10.6826 27.3265 9.70992 27.3027L9.45125 27.2947C9.13473 27.2827 8.81828 27.2689 8.50192 27.2534C7.08325 27.1867 6.11525 26.9627 5.26459 26.6334C4.37481 26.2992 3.56888 25.7745 2.90325 25.096C2.22465 24.4297 1.69955 23.6234 1.36459 22.7334C1.03525 21.884 0.811254 20.916 0.744588 19.496C0.729733 19.1796 0.716399 18.8632 0.704588 18.5467L0.697921 18.288C0.673351 17.3158 0.662238 16.3432 0.664588 15.3707V12.6294C0.660866 11.6568 0.670645 10.6843 0.693921 9.71202L0.703254 9.45335C0.713921 9.15335 0.727254 8.85869 0.743254 8.50402C0.809921 7.08402 1.03392 6.11735 1.36325 5.26669C1.69807 4.37589 2.22421 3.56939 2.90459 2.90402C3.57004 2.22599 4.37545 1.70134 5.26459 1.36669C6.11525 1.03735 7.08192 0.813354 8.50192 0.746687C8.85659 0.730687 9.15259 0.717354 9.45125 0.706687L9.70992 0.698687C10.6822 0.674997 11.6547 0.664774 12.6273 0.66802L15.3686 0.666687ZM13.9979 7.33335C12.2298 7.33335 10.5341 8.03573 9.28388 9.28598C8.03363 10.5362 7.33125 12.2319 7.33125 14C7.33125 15.7681 8.03363 17.4638 9.28388 18.7141C10.5341 19.9643 12.2298 20.6667 13.9979 20.6667C15.766 20.6667 17.4617 19.9643 18.712 18.7141C19.9622 17.4638 20.6646 15.7681 20.6646 14C20.6646 12.2319 19.9622 10.5362 18.712 9.28598C17.4617 8.03573 15.766 7.33335 13.9979 7.33335ZM13.9979 10C14.5232 9.99993 15.0434 10.1033 15.5287 10.3042C16.014 10.5052 16.455 10.7998 16.8265 11.1711C17.198 11.5425 17.4928 11.9834 17.6938 12.4687C17.8949 12.9539 17.9985 13.4741 17.9986 13.9994C17.9987 14.5246 17.8953 15.0448 17.6944 15.5301C17.4934 16.0155 17.1989 16.4565 16.8275 16.828C16.4561 17.1995 16.0152 17.4942 15.5299 17.6953C15.0447 17.8964 14.5245 17.9999 13.9993 18C12.9384 18 11.921 17.5786 11.1708 16.8284C10.4207 16.0783 9.99925 15.0609 9.99925 14C9.99925 12.9392 10.4207 11.9217 11.1708 11.1716C11.921 10.4214 12.9384 10 13.9993 10M20.9993 5.33335C20.5572 5.33335 20.1333 5.50895 19.8207 5.82151C19.5082 6.13407 19.3326 6.55799 19.3326 7.00002C19.3326 7.44205 19.5082 7.86597 19.8207 8.17853C20.1333 8.49109 20.5572 8.66669 20.9993 8.66669C21.4413 8.66669 21.8652 8.49109 22.1778 8.17853C22.4903 7.86597 22.6659 7.44205 22.6659 7.00002C22.6659 6.55799 22.4903 6.13407 22.1778 5.82151C21.8652 5.50895 21.4413 5.33335 20.9993 5.33335Z" fill="#7E1C0F"/>
</svg>
