<svg width="25" height="24" viewBox="0 0 25 24" fill="none" xmlns="http://www.w3.org/2000/svg">
<path d="M22.1702 8.84765V17.4C22.1702 18.1957 21.8541 18.9588 21.2915 19.5214C20.7289 20.084 19.9659 20.4 19.1702 20.4H5.97021C5.17457 20.4 4.4115 20.084 3.84889 19.5214C3.28629 18.9588 2.97021 18.1957 2.97021 17.4V8.84765L12.2654 14.3172C12.3578 14.3717 12.463 14.4004 12.5702 14.4004C12.6774 14.4004 12.7827 14.3717 12.875 14.3172L22.1702 8.84765ZM19.1702 4.80005C19.9084 4.79993 20.6207 5.07198 21.1709 5.56414C21.721 6.0563 22.0704 6.73402 22.1522 7.46765L12.5702 13.104L2.98821 7.46765C3.07 6.73402 3.4194 6.0563 3.96957 5.56414C4.51973 5.07198 5.23204 4.79993 5.97021 4.80005H19.1702Z" fill="#7E1C0F"/>
</svg>
