<svg width="24" height="24" viewBox="0 0 24 24" fill="none" xmlns="http://www.w3.org/2000/svg">
<path d="M15.247 16.11L16.927 14.43C17.1533 14.2066 17.4396 14.0536 17.7511 13.9897C18.0626 13.9258 18.386 13.9537 18.682 14.07L20.7295 14.8875C21.0286 15.0089 21.2851 15.2162 21.4666 15.4831C21.6481 15.75 21.7465 16.0647 21.7495 16.3875V20.1375C21.7478 20.3571 21.7016 20.5741 21.6138 20.7754C21.526 20.9766 21.3984 21.1581 21.2386 21.3087C21.0788 21.4594 20.8902 21.5761 20.6842 21.652C20.4781 21.7278 20.2588 21.7612 20.0395 21.75C5.69199 20.8575 2.79699 8.70753 2.24949 4.05753C2.22407 3.82918 2.2473 3.59804 2.31763 3.37931C2.38796 3.16058 2.5038 2.95923 2.65754 2.78848C2.81128 2.61774 2.99943 2.48148 3.20961 2.38868C3.41979 2.29587 3.64724 2.24862 3.87699 2.25003H7.49949C7.82275 2.25099 8.13833 2.34863 8.40564 2.5304C8.67295 2.71217 8.87977 2.96976 8.99949 3.27003L9.81699 5.31753C9.93718 5.61233 9.96784 5.93601 9.90515 6.24814C9.84246 6.56027 9.68919 6.847 9.46449 7.07253L7.78449 8.75253C7.78449 8.75253 8.75199 15.3 15.247 16.11Z" fill="#7E1C0F"/>
</svg>
