<svg width="30" height="30" viewBox="0 0 30 30" fill="none" xmlns="http://www.w3.org/2000/svg">
<path d="M19.9029 21.9366L22.3639 10.415C22.4643 9.92735 22.4057 9.57822 22.1881 9.36762C21.9705 9.15703 21.6831 9.11824 21.3259 9.25124L6.86164 14.7876C6.53798 14.9095 6.31756 15.048 6.20037 15.2032C6.08318 15.3584 6.06923 15.5052 6.15852 15.6438C6.2478 15.7823 6.42637 15.8904 6.69423 15.968L10.394 17.1152L18.9822 11.7451C19.2166 11.5899 19.3951 11.5567 19.5179 11.6453C19.596 11.7008 19.5737 11.7839 19.4509 11.8947L12.5034 18.1293L12.2355 21.92C12.4922 21.92 12.7433 21.798 12.9889 21.5542L14.7969 19.8251L18.5469 22.5684C19.2612 22.9674 19.7132 22.7568 19.9029 21.9366ZM29.9978 15.1035C29.9978 17.1207 29.6016 19.0493 28.8092 20.8892C28.0168 22.7291 26.9509 24.3141 25.6116 25.6441C24.2724 26.9742 22.6764 28.0326 20.8237 28.8196C18.971 29.6065 17.0291 30 14.9978 30C12.9666 30 11.0246 29.6065 9.17191 28.8196C7.31923 28.0326 5.72325 26.9742 4.38396 25.6441C3.04468 24.3141 1.97883 22.7291 1.18642 20.8892C0.394008 19.0493 -0.00219727 17.1207 -0.00219727 15.1035C-0.00219727 13.0862 0.394008 11.1576 1.18642 9.31775C1.97883 7.47785 3.04468 5.89287 4.38396 4.56282C5.72325 3.23277 7.31923 2.17427 9.17191 1.38733C11.0246 0.600382 12.9666 0.206909 14.9978 0.206909C17.0291 0.206909 18.971 0.600382 20.8237 1.38733C22.6764 2.17427 24.2724 3.23277 25.6116 4.56282C26.9509 5.89287 28.0168 7.47785 28.8092 9.31775C29.6016 11.1576 29.9978 13.0862 29.9978 15.1035Z" fill="#7E1C0F"/>
</svg>
