<svg width="28" height="28" fill="none" xmlns="http://www.w3.org/2000/svg"><path d="M15.37.667c1.5.004 2.262.012 2.92.03l.258.01c.299.01.593.024.95.04 1.418.066 2.386.29 3.235.62a6.5 6.5 0 0 1 2.363 1.537 6.545 6.545 0 0 1 1.538 2.363c.329.849.553 1.817.62 3.237.015.355.029.65.04.95l.008.258c.02.656.027 1.417.03 2.917l.002.995v1.747c.003.972-.008 1.945-.031 2.917l-.008.259c-.01.3-.024.594-.04.949-.067 1.42-.293 2.387-.621 3.237a6.512 6.512 0 0 1-1.538 2.363 6.553 6.553 0 0 1-2.363 1.537c-.849.33-1.817.554-3.236.62-.316.015-.632.029-.949.04l-.259.008c-.657.019-1.418.028-2.918.031l-.995.001h-1.745a104.79 104.79 0 0 1-2.919-.03l-.259-.008a85.905 85.905 0 0 1-.949-.042c-1.419-.066-2.387-.29-3.237-.62a6.519 6.519 0 0 1-2.362-1.537 6.54 6.54 0 0 1-1.538-2.363c-.33-.849-.554-1.817-.62-3.237a98.842 98.842 0 0 1-.04-.95L.7 18.289c-.024-.972-.036-1.945-.033-2.917v-2.742c-.004-.972.006-1.945.03-2.917l.008-.259c.011-.3.024-.594.04-.949.067-1.42.291-2.387.62-3.237a6.507 6.507 0 0 1 1.542-2.363 6.53 6.53 0 0 1 2.36-1.537c.85-.33 1.817-.554 3.237-.62.355-.016.65-.03.95-.04l.258-.008c.972-.024 1.945-.034 2.918-.031l2.74-.001ZM14 7.333a6.667 6.667 0 1 0 0 13.334 6.667 6.667 0 0 0 0-13.334ZM14 10a4 4 0 1 1-.002 8.002A4 4 0 0 1 14.002 10m7-4.667a1.667 1.667 0 1 0 0 3.334 1.667 1.667 0 0 0 0-3.334Z" fill="#994A08"/></svg>