<svg width="30" height="32" fill="none" xmlns="http://www.w3.org/2000/svg"><g clip-path="url(#a)"><path d="m19.905 23.937 2.461-11.522c.1-.488.042-.837-.176-1.047-.217-.211-.505-.25-.862-.117L6.864 16.788c-.324.122-.544.26-.661.415-.118.155-.132.302-.042.44.089.14.268.247.535.325l3.7 1.147 8.588-5.37c.235-.155.413-.188.536-.1.078.056.056.139-.067.25l-6.947 6.234-.268 3.791c.256 0 .508-.122.753-.366l1.808-1.729 3.75 2.743c.714.4 1.166.189 1.356-.631ZM30 17.103c0 2.018-.396 3.946-1.189 5.786-.792 1.84-1.858 3.425-3.197 4.755-1.34 1.33-2.935 2.389-4.788 3.176A14.752 14.752 0 0 1 15 32c-2.031 0-3.973-.393-5.826-1.18-1.853-.787-3.449-1.846-4.788-3.176-1.34-1.33-2.405-2.915-3.197-4.755A14.476 14.476 0 0 1 0 17.104c0-2.018.396-3.946 1.189-5.786.792-1.84 1.858-3.425 3.197-4.755 1.34-1.33 2.935-2.389 4.788-3.176A14.751 14.751 0 0 1 15 2.207c2.031 0 3.973.393 5.826 1.18 1.853.787 3.449 1.846 4.788 3.176 1.34 1.33 2.405 2.915 3.197 4.755A14.476 14.476 0 0 1 30 17.104Z" fill="#994A08"/></g><defs><clipPath id="a"><path fill="#fff" d="M0 0h30v32H0z"/></clipPath></defs></svg>