<svg width="72" height="72" fill="none" xmlns="http://www.w3.org/2000/svg"><path d="M51 54a3 3 0 0 0 3-3V21a3 3 0 1 0-6 0v30a3 3 0 0 0 3 3Zm3-39h3v3a3 3 0 1 0 6 0v-3h3a3 3 0 1 0 0-6h-3V6a3 3 0 1 0-6 0v3h-3a3 3 0 0 0 0 6Zm10.8 12a3.002 3.002 0 0 0-2.34 3.54 27 27 0 1 1-21-21 3.06 3.06 0 0 0 1.2-6A32.4 32.4 0 0 0 36 3a33 33 0 1 0 33 33 32.399 32.399 0 0 0-.66-6.6A3 3 0 0 0 64.8 27ZM30 39h3a9 9 0 0 0 9-9v-3a9 9 0 0 0-9-9h-3a9 9 0 0 0-9 9 3 3 0 1 0 6 0 3 3 0 0 1 3-3h3a3 3 0 0 1 3 3v3a3 3 0 0 1-3 3h-3a9 9 0 0 0-9 9v9a3 3 0 0 0 3 3h15a3 3 0 1 0 0-6H27v-6a3 3 0 0 1 3-3Z" fill="#fff"/></svg>