<svg width="48" height="48" fill="none" xmlns="http://www.w3.org/2000/svg"><g clip-path="url(#a)" stroke="#022741" stroke-width="1.5" stroke-linecap="round" stroke-linejoin="round"><path d="M13 23.234h22.5M34 23.234H14.5a9.742 9.742 0 0 0 5.266 8.654.752.752 0 0 1 .284 1.065c-.243.393-.46.801-.648 1.223a.75.75 0 0 0 .689 1.058h8.318a.75.75 0 0 0 .684-1.058c-.188-.422-.405-.83-.648-1.223a.753.753 0 0 1 .29-1.066A9.74 9.74 0 0 0 34 23.234ZM26.5 20.234l3.957-6.595a1.317 1.317 0 0 1 2.377 1.095L31 20.234"/></g><defs><clipPath id="a"><path fill="#fff" d="M0 0h48v48H0z"/></clipPath></defs></svg>