<svg width="56" height="56" fill="none" xmlns="http://www.w3.org/2000/svg"><g clip-path="url(#a)" stroke="#022741" stroke-width="1.5" stroke-linecap="round" stroke-linejoin="round"><path d="M31.384 31.483a9.38 9.38 0 0 1-3.74 11.226 10.314 10.314 0 0 1-12.256-.742 9.32 9.32 0 0 1-2.24-11.59 10.132 10.132 0 0 1 11.162-4.914"/><path d="M25.846 38.67a9.375 9.375 0 0 1 3.34-11.68 10.324 10.324 0 0 1 12.592.754 9.325 9.325 0 0 1 1.8 11.988 10.2 10.2 0 0 1-11.858 4.14"/><path d="m32.995 25.392-2.918-2.456a.935.935 0 0 1 0-1.446l2.16-1.812a1.02 1.02 0 0 1 .658-.238h4.2c.24 0 .474.083.658.238l2.16 1.812a.935.935 0 0 1 0 1.446l-2.918 2.456"/><path d="M7 50.16V20.554a1.73 1.73 0 0 1 .784-1.438l19.174-12.8a1.9 1.9 0 0 1 2.084 0l19.174 12.8A1.73 1.73 0 0 1 49 20.554V50.16M5 50.163h46"/></g><defs><clipPath id="a"><path fill="#fff" d="M0 0h56v56H0z"/></clipPath></defs></svg>