<svg width="56" height="56" fill="none" xmlns="http://www.w3.org/2000/svg"><g clip-path="url(#a)"><mask id="b" style="mask-type:luminance" maskUnits="userSpaceOnUse" x="4" y="4" width="48" height="48"><path d="M52 4H4v48h48V4Z" fill="#fff"/></mask><g mask="url(#b)" fill="#022741"><path d="M16.248 5.878h-1.383v10.37h1.383V5.878ZM19.038 5.878h-1.383v10.37h1.383V5.878Z"/><path d="M20.395 19.705a3.457 3.457 0 1 1-6.913 0V5.878h-1.383v13.827a4.846 4.846 0 0 0 4.15 4.79v25.628h1.383V24.494a4.846 4.846 0 0 0 4.148-4.789V5.878h-1.385v13.827ZM30.073 5.878a4.845 4.845 0 0 0-4.839 4.84v8.986a4.846 4.846 0 0 0 4.171 4.792v25.627h1.383V24.491a4.847 4.847 0 0 0 4.125-4.786v-8.988a4.845 4.845 0 0 0-4.84-4.839Zm3.461 13.827a3.457 3.457 0 1 1-6.913 0v-8.988a3.457 3.457 0 0 1 6.913 0v8.988Z"/><path d="M31.457 19.705a1.384 1.384 0 0 1-1.383 1.383v1.383a2.768 2.768 0 0 0 2.765-2.765v-2.075h-1.382v2.074ZM39.061 5.878h-.691v44.245h1.383V7.33a3.463 3.463 0 0 1 2.767 3.387v17.975h-2.076v1.386h3.457v-19.36a4.845 4.845 0 0 0-4.84-4.84Z"/></g></g><defs><clipPath id="a"><path fill="#fff" d="M0 0h56v56H0z"/></clipPath></defs></svg>