<svg width="56" height="56" fill="none" xmlns="http://www.w3.org/2000/svg"><g clip-path="url(#a)" stroke="#022741" stroke-width="1.5" stroke-linecap="round" stroke-linejoin="round"><path d="M34.135 51.235a2.01 2.01 0 0 0 1.986-2.342 14.273 14.273 0 0 0-28.093 0 2.01 2.01 0 0 0 1.984 2.342h24.123ZM24.593 5a2.747 2.747 0 0 0 .452 1.859l5.192 7.884-7.438 9.5a3.027 3.027 0 0 0 .529 4.242 3 3 0 0 0 4.2-.5l13.647-17.441c-.651 7.355.519 9.321 2.1 10.56 1.581 1.239 3.216-.84 3.353-2.5l1.021-13.6M22.071 37.163v-4.02M27.097 33.143H17.046"/></g><defs><clipPath id="a"><path fill="#fff" d="M0 0h56v56H0z"/></clipPath></defs></svg>