<svg width="56" height="56" fill="none" xmlns="http://www.w3.org/2000/svg"><g clip-path="url(#a)" stroke="#000"><path d="M7.5 46.641v-4.598h.157v4.598H7.5ZM49.118 46.641v-4.598h.157v4.598h-.157ZM7.657 37.253v.5h41.461v-4.12a2.114 2.114 0 0 0-2.111-2.112H9.768a2.113 2.113 0 0 0-2.111 2.112v3.62Zm41.539.656H7.579a.08.08 0 0 1-.079-.079v-4.199a2.272 2.272 0 0 1 2.268-2.27h37.238a2.273 2.273 0 0 1 2.269 2.27v4.2a.079.079 0 0 1-.079.078Z"/><path d="M11.308 30.864v.5h34.159v-9.6a2.114 2.114 0 0 0-2.111-2.112H13.419a2.112 2.112 0 0 0-2.112 2.112l.001 9.1Zm34.236.657H11.23a.078.078 0 0 1-.078-.078v-9.674a2.27 2.27 0 0 1 2.268-2.268h29.935a2.272 2.272 0 0 1 2.269 2.269v9.673a.079.079 0 0 1-.079.078Z"/><path d="M14.516 31.521h11.436a.079.079 0 0 0 .079-.079v-5.12a1.24 1.24 0 0 0-1.238-1.237l-10.277 6.436Zm0 0a.078.078 0 0 1-.078-.078v-5.12m.078 5.198-.078-5.199m0 0a1.239 1.239 0 0 1 1.238-1.237l-1.238 1.237Zm.156 4.542v.5H25.87v-5.042a1.082 1.082 0 0 0-1.08-1.081h-9.118a1.082 1.082 0 0 0-1.081 1.08v.001l.003 4.542Zm1.082-5.779h9.117-9.117ZM30.823 31.521h11.435a.079.079 0 0 0 .079-.079v-5.12a1.24 1.24 0 0 0-1.238-1.237l-10.276 6.436Zm0 0a.079.079 0 0 1-.079-.079v-5.12a1.24 1.24 0 0 1 1.238-1.237l-1.16 6.436Zm.077-.657v.5h11.279v-5.042a1.082 1.082 0 0 0-1.08-1.081H31.98a1.082 1.082 0 0 0-1.081 1.08v4.543Zm1.082-5.779H41.1h-9.117ZM7.657 40.965v.5h41.461V37.91H7.657v3.055Zm41.539.656H7.578a.078.078 0 0 1-.078-.078v-3.711a.079.079 0 0 1 .079-.08h41.616a.079.079 0 0 1 .079.08v3.71a.078.078 0 0 1-.078.079Z"/></g><defs><clipPath id="a"><path fill="#fff" d="M0 0h56v56H0z"/></clipPath></defs></svg>