<svg width="56" height="56" fill="none" xmlns="http://www.w3.org/2000/svg"><g clip-path="url(#a)"><mask id="b" style="mask-type:luminance" maskUnits="userSpaceOnUse" x="4" y="4" width="48" height="48"><path d="M52 4H4v48h48V4Z" fill="#fff"/></mask><g mask="url(#b)" fill="#022741"><path d="M49.051 33.933H6.949v1.293h42.102v-1.293ZM49.051 24.064H37.21v1.293h11.841v-1.293ZM24.053 24.064H6.949v1.293h17.104v-1.293ZM18.791 37.879H12.87v1.293h5.921v-1.293ZM32.605 40.511H19.448v1.293h13.157v-1.293ZM19.449 43.142h-3.29v1.293h3.29v-1.293ZM47.077 40.511H43.13v1.293h3.947v-1.293ZM44.447 37.221h-9.868v1.293h9.868v-1.293ZM8.923 41.17H6.949v1.292h1.974V41.17ZM40.499 43.142h-1.974v1.293h1.974v-1.293ZM33.909 20.764h-1.293v2.631h1.293v-2.631Z"/><path d="M26.015 30.621h9.232v2.642h1.293V16.16a3.3 3.3 0 0 1 6.6 0v7.236h1.293V16.16a4.594 4.594 0 0 0-9.188 0v2.644h-9.23V16.16a3.3 3.3 0 1 1 6.6 0v1.974h1.294V16.16a4.594 4.594 0 0 0-9.188 0v17.1h1.293l.001-2.638Zm0-10.525h9.232v3.97h-9.232v-3.97Zm0 5.263h9.232v3.97h-9.232v-3.97Z"/></g></g><defs><clipPath id="a"><path fill="#fff" d="M0 0h56v56H0z"/></clipPath></defs></svg>