<svg width="45" height="45" fill="none" xmlns="http://www.w3.org/2000/svg"><path d="M24.428 3.752c1.368-.005 2.736.008 4.104.041l.364.013c.42.015.834.034 1.335.056 1.995.094 3.356.41 4.55.872a9.123 9.123 0 0 1 3.323 2.164 9.202 9.202 0 0 1 2.162 3.32c.463 1.195.778 2.558.872 4.553.022.499.04.915.056 1.335l.011.364c.033 1.367.048 2.735.043 4.102l.002 1.4v2.455c.005 1.369-.01 2.737-.043 4.105l-.011.364c-.015.42-.034.834-.056 1.335-.094 1.995-.413 3.356-.874 4.55a9.158 9.158 0 0 1-2.162 3.323 9.216 9.216 0 0 1-3.323 2.162c-1.194.463-2.555.778-4.55.871-.5.023-.915.042-1.335.057l-.364.01c-1.368.034-2.736.049-4.104.044l-1.4.002h-2.453a147.4 147.4 0 0 1-4.105-.043l-.364-.011c-.445-.017-.89-.035-1.335-.057-1.995-.093-3.356-.412-4.552-.873a9.17 9.17 0 0 1-3.32-2.162 9.195 9.195 0 0 1-2.165-3.323c-.463-1.194-.778-2.555-.871-4.55-.021-.445-.04-.89-.057-1.335l-.009-.364c-.035-1.368-.05-2.736-.047-4.105v-3.855c-.005-1.367.009-2.735.041-4.102l.013-.364c.015-.42.034-.836.057-1.335.093-1.997.408-3.356.872-4.552A9.15 9.15 0 0 1 6.9 6.899a9.182 9.182 0 0 1 3.319-2.165c1.196-.463 2.556-.778 4.552-.872l1.335-.056.364-.01a148.24 148.24 0 0 1 4.103-.046l3.855.002ZM22.5 13.127a9.376 9.376 0 0 0-6.715 16.05 9.376 9.376 0 0 0 6.715 2.698 9.375 9.375 0 1 0 0-18.748Zm0 3.75a5.626 5.626 0 1 1 .002 11.248 5.625 5.625 0 1 1 0-11.25l-.002.002Zm9.844-6.563a2.344 2.344 0 0 0 0 4.684 2.344 2.344 0 0 0 0-4.687v.003Z" fill="#fff"/></svg>