<svg width="25" height="17" fill="none" xmlns="http://www.w3.org/2000/svg"><path d="M.663 12.93H0v3.211h.663V12.93ZM24.534 12.93h-.663v3.211h.663V12.93ZM24.206 11.133H.332A.332.332 0 0 1 0 10.801V8.393a1.59 1.59 0 0 1 1.588-1.588h21.358a1.59 1.59 0 0 1 1.588 1.588v2.408a.332.332 0 0 1-.328.332ZM.667 10.47h23.207V8.394a.926.926 0 0 0-.925-.924H1.588a.925.925 0 0 0-.924.924l.003 2.076Z" fill="#000"/><path d="M22.108 7.468H2.425a.332.332 0 0 1-.331-.332V1.587A1.59 1.59 0 0 1 3.682-.001h17.174a1.59 1.59 0 0 1 1.588 1.588v5.549a.333.333 0 0 1-.336.332ZM2.756 6.805h19.02V1.588a.925.925 0 0 0-.924-.924H3.682a.925.925 0 0 0-.924.924l-.002 5.217Z" fill="#000"/><path d="M10.87 7.468H4.311a.332.332 0 0 1-.331-.332V4.199a1 1 0 0 1 1-1h5.229a1 1 0 0 1 1 1v2.937a.333.333 0 0 1-.339.332Zm-6.228-.664h5.9V4.199a.334.334 0 0 0-.333-.333H4.98a.334.334 0 0 0-.333.333l-.005 2.605ZM20.226 7.468h-6.559a.332.332 0 0 1-.332-.332V4.199a1 1 0 0 1 1-1h5.229a1 1 0 0 1 1 1v2.937a.331.331 0 0 1-.338.332Zm-6.228-.664h5.9V4.199a.334.334 0 0 0-.333-.333h-5.239a.334.334 0 0 0-.333.333l.005 2.605ZM24.206 13.261H.332A.332.332 0 0 1 0 12.93v-2.129a.332.332 0 0 1 .332-.332h23.874a.332.332 0 0 1 .332.332v2.129a.332.332 0 0 1-.332.331ZM.667 12.598h23.207v-1.466H.664l.003 1.466Z" fill="#000"/></svg>