<svg width="59" height="59" fill="none" xmlns="http://www.w3.org/2000/svg"><path d="M41.792 44.25a2.459 2.459 0 0 0 2.458-2.458V17.208a2.458 2.458 0 1 0-4.917 0v24.584a2.458 2.458 0 0 0 2.459 2.458Zm2.458-31.958h2.458v2.458a2.458 2.458 0 1 0 4.917 0v-2.458h2.458a2.458 2.458 0 1 0 0-4.917h-2.458V4.917a2.458 2.458 0 0 0-4.917 0v2.458H44.25a2.458 2.458 0 1 0 0 4.917Zm8.85 9.833a2.458 2.458 0 0 0-1.918 2.9A22.126 22.126 0 1 1 33.974 7.818a2.507 2.507 0 0 0 .984-4.916 26.55 26.55 0 0 0-5.458-.443A27.042 27.042 0 1 0 56.542 29.5 26.552 26.552 0 0 0 56 24.092a2.458 2.458 0 0 0-2.901-1.967Zm-28.517 9.833h2.459a7.375 7.375 0 0 0 7.375-7.375v-2.458a7.375 7.375 0 0 0-7.375-7.375h-2.459a7.375 7.375 0 0 0-7.375 7.375 2.458 2.458 0 1 0 4.917 0 2.458 2.458 0 0 1 2.458-2.458h2.459a2.459 2.459 0 0 1 2.458 2.458v2.458a2.458 2.458 0 0 1-2.458 2.459h-2.459a7.375 7.375 0 0 0-7.375 7.375v7.375a2.458 2.458 0 0 0 2.459 2.458h12.291a2.458 2.458 0 1 0 0-4.917h-9.833v-4.916a2.459 2.459 0 0 1 2.458-2.459Z" fill="#23327B"/></svg>