<svg width="24" height="24" fill="none" xmlns="http://www.w3.org/2000/svg"><g clip-path="url(#a)"><path d="M12 .375C5.578.375.375 5.579.375 12c0 6.422 5.204 11.625 11.625 11.625 6.422 0 11.625-5.203 11.625-11.625C23.625 5.579 18.422.375 12 .375Zm5.71 7.964-1.908 8.991c-.141.638-.52.792-1.05.492l-2.907-2.142-1.401 1.35c-.155.155-.286.286-.586.286l.206-2.958 5.386-4.866c.235-.206-.052-.323-.361-.117l-6.657 4.19-2.869-.895c-.623-.197-.637-.623.132-.924l11.208-4.322c.52-.187.975.127.806.914v.001Z" fill="#FFAE12"/></g><defs><clipPath id="a"><path fill="#fff" d="M0 0h24v24H0z"/></clipPath></defs></svg>