<svg width="54" height="54" viewBox="0 0 54 54" fill="none" xmlns="http://www.w3.org/2000/svg">
<path d="M6.75 27C6.75 29.6593 7.27378 32.2925 8.29144 34.7493C9.3091 37.2062 10.8007 39.4385 12.6811 41.3189C14.5615 43.1993 16.7938 44.6909 19.2507 45.7086C21.7075 46.7262 24.3407 47.25 27 47.25C29.6593 47.25 32.2925 46.7262 34.7493 45.7086C37.2062 44.6909 39.4385 43.1993 41.3189 41.3189C43.1993 39.4385 44.6909 37.2062 45.7086 34.7493C46.7262 32.2925 47.25 29.6593 47.25 27C47.25 24.3407 46.7262 21.7075 45.7086 19.2507C44.6909 16.7938 43.1993 14.5615 41.3189 12.6811C39.4385 10.8007 37.2062 9.3091 34.7493 8.29144C32.2925 7.27378 29.6593 6.75 27 6.75C24.3407 6.75 21.7075 7.27378 19.2507 8.29144C16.7938 9.3091 14.5615 10.8007 12.6811 12.6811C10.8007 14.5615 9.3091 16.7938 8.29144 19.2507C7.27378 21.7075 6.75 24.3407 6.75 27Z" stroke="white" stroke-width="2" stroke-linecap="round" stroke-linejoin="round"/>
<path d="M22.5 23.625C22.5 24.5201 22.8556 25.3786 23.4885 26.0115C24.1214 26.6444 24.9799 27 25.875 27C26.7701 27 27.6286 26.6444 28.2615 26.0115C28.8944 25.3786 29.25 24.5201 29.25 23.625C29.25 22.7299 28.8944 21.8714 28.2615 21.2385C27.6286 20.6056 26.7701 20.25 25.875 20.25C24.9799 20.25 24.1214 20.6056 23.4885 21.2385C22.8556 21.8714 22.5 22.7299 22.5 23.625Z" stroke="white" stroke-width="2" stroke-linecap="round" stroke-linejoin="round"/>
<path d="M15.75 33.75V20.25M34.875 27H41.625M38.25 23.625V30.375M22.5 30.375C22.5 31.2701 22.8556 32.1286 23.4885 32.7615C24.1214 33.3944 24.9799 33.75 25.875 33.75C26.7701 33.75 27.6286 33.3944 28.2615 32.7615C28.8944 32.1286 29.25 31.2701 29.25 30.375C29.25 29.4799 28.8944 28.6214 28.2615 27.9885C27.6286 27.3556 26.7701 27 25.875 27C24.9799 27 24.1214 27.3556 23.4885 27.9885C22.8556 28.6214 22.5 29.4799 22.5 30.375Z" stroke="white" stroke-width="2" stroke-linecap="round" stroke-linejoin="round"/>
</svg>
