<!-- icon666.com - MILLIONS vector ICONS FREE --><svg version="1.1" id="Capa_1" xmlns="http://www.w3.org/2000/svg" xmlns:xlink="http://www.w3.org/1999/xlink" x="0px" y="0px" viewBox="0 0 512 512" style="enable-background:new 0 0 512 512;" xml:space="preserve"><path style="fill:#FADC60;" d="M439.415,401.54c-0.001-0.006-0.002-0.011-0.003-0.018C484.323,363.249,512,310.981,512,253.341 c0-117.326-114.615-212.437-256-212.437S0,136.015,0,253.341s114.615,212.437,256,212.437c47.275,0,91.547-10.646,129.551-29.188 c0.001,0.001,42.551,50.7,126.449,29.188C512,465.778,444.277,436.259,439.415,401.54z"></path><path style="fill:#E6CB59;" d="M41.207,253.341c0-111.57,103.648-203.043,235.396-211.751c-6.797-0.449-13.667-0.686-20.604-0.686 c-141.385,0-256,95.11-256,212.437c0,117.325,114.615,212.437,256,212.437c6.939,0,13.812-0.236,20.611-0.686 C144.858,456.386,41.207,364.913,41.207,253.341z"></path><g><path style="fill:#596674;" d="M168.589,153.051c-4.267,0-7.726-3.459-7.726-7.726v-15.82c0-4.267,3.459-7.726,7.726-7.726 c4.267,0,7.726,3.459,7.726,7.726v15.82C176.315,149.591,172.856,153.051,168.589,153.051z"></path><path style="fill:#596674;" d="M343.412,153.051c-4.267,0-7.726-3.459-7.726-7.726v-15.82c0-4.267,3.459-7.726,7.726-7.726 s7.726,3.459,7.726,7.726v15.82C351.138,149.591,347.679,153.051,343.412,153.051z"></path><path style="fill:#596674;" d="M256,161.495c-10.639,0-20.622-4.442-27.391-12.187c-2.808-3.213-2.481-8.094,0.732-10.902 c3.212-2.808,8.094-2.481,10.902,0.732c3.835,4.388,9.578,6.903,15.757,6.903c6.179,0,11.921-2.517,15.757-6.903 c2.808-3.213,7.69-3.541,10.902-0.732c3.213,2.808,3.541,7.689,0.732,10.902C276.622,157.053,266.638,161.495,256,161.495z"></path><path style="fill:#596674;" d="M281.818,297.098c-15.269,11.938-15.546,20.266-15.546,34.703c0,5.275-2.776,11.382-16.38,11.382 c-11.382,0-15.269-4.164-15.269-18.6c0-23.875,10.549-35.258,18.6-42.198c9.161-7.774,24.708-16.38,24.708-31.371 c0-12.77-11.104-18.878-24.986-18.878c-28.317,0-22.21,21.376-37.201,21.376c-7.496,0-16.657-4.997-16.657-15.825 c0-14.991,17.212-37.201,54.691-37.201c35.535,0,59.132,19.71,59.132,45.807S289.314,291.268,281.818,297.098z M271.546,383.715 c0,11.382-9.439,21.376-21.376,21.376c-11.938,0-21.099-9.994-21.099-21.376c0-11.66,9.439-21.376,21.099-21.376 C261.83,362.338,271.546,372.055,271.546,383.715z"></path></g></svg>