<svg width="64" height="64" fill="none" xmlns="http://www.w3.org/2000/svg"><path d="M45.333 48A2.667 2.667 0 0 0 48 45.333V18.667a2.667 2.667 0 1 0-5.333 0v26.666A2.666 2.666 0 0 0 45.333 48ZM48 13.333h2.667V16A2.667 2.667 0 1 0 56 16v-2.667h2.667a2.667 2.667 0 1 0 0-5.333H56V5.333a2.667 2.667 0 1 0-5.333 0V8H48a2.667 2.667 0 0 0 0 5.333ZM57.6 24a2.668 2.668 0 0 0-2.08 3.147A24 24 0 1 1 36.853 8.48a2.72 2.72 0 0 0 1.067-5.333 28.8 28.8 0 0 0-5.92-.48A29.333 29.333 0 1 0 61.333 32a28.8 28.8 0 0 0-.586-5.867A2.667 2.667 0 0 0 57.6 24ZM26.667 34.667h2.666a8 8 0 0 0 8-8V24a8 8 0 0 0-8-8h-2.666a8 8 0 0 0-8 8A2.667 2.667 0 1 0 24 24a2.667 2.667 0 0 1 2.667-2.667h2.666A2.667 2.667 0 0 1 32 24v2.667a2.667 2.667 0 0 1-2.667 2.666h-2.666a8 8 0 0 0-8 8v8A2.666 2.666 0 0 0 21.333 48h13.334a2.667 2.667 0 0 0 0-5.333H24v-5.334a2.667 2.667 0 0 1 2.667-2.666Z" fill="#000"/></svg>