<svg width="33" height="32" fill="none" xmlns="http://www.w3.org/2000/svg"><mask id="a" style="mask-type:luminance" maskUnits="userSpaceOnUse" x="2" y="2" width="29" height="28"><path d="M23.167 4H9.833A5.333 5.333 0 0 0 4.5 9.333v13.334A5.333 5.333 0 0 0 9.833 28h13.334a5.333 5.333 0 0 0 5.333-5.333V9.333A5.333 5.333 0 0 0 23.167 4Z" fill="#fff" stroke="#fff" stroke-width="4" stroke-linejoin="round"/><path d="M16.5 21.333a5.333 5.333 0 1 0 0-10.666 5.333 5.333 0 0 0 0 10.666Z" fill="#000" stroke="#000" stroke-width="4" stroke-linejoin="round"/><path d="M23.833 10a1.333 1.333 0 1 0 0-2.666 1.333 1.333 0 0 0 0 2.666Z" fill="#000"/></mask><g mask="url(#a)"><path d="M.5 0h32v32H.5V0Z" fill="#000"/></g></svg>