<svg width="32" height="32" viewBox="0 0 32 32" fill="none" xmlns="http://www.w3.org/2000/svg">
<path d="M16.4958 11.3311C13.6497 11.3311 11.3271 13.6538 11.3271 16.5C11.3271 19.3462 13.6497 21.6689 16.4958 21.6689C19.342 21.6689 21.6646 19.3462 21.6646 16.5C21.6646 13.6538 19.342 11.3311 16.4958 11.3311ZM31.9983 16.5C31.9983 14.3596 32.0177 12.2385 31.8975 10.1019C31.7773 7.62025 31.2111 5.41776 29.3964 3.60304C27.5779 1.78443 25.3793 1.22218 22.8977 1.10197C20.7573 0.981765 18.6362 1.00115 16.4997 1.00115C14.3593 1.00115 12.2383 0.981765 10.1018 1.10197C7.62013 1.22218 5.41768 1.78831 3.60299 3.60304C1.78442 5.42164 1.22217 7.62025 1.10197 10.1019C0.981766 12.2424 1.00115 14.3634 1.00115 16.5C1.00115 18.6366 0.981766 20.7615 1.10197 22.8981C1.22217 25.3797 1.7883 27.5822 3.60299 29.397C5.42156 31.2156 7.62013 31.7778 10.1018 31.898C12.2422 32.0182 14.3632 31.9988 16.4997 31.9988C18.6401 31.9988 20.7611 32.0182 22.8977 31.898C25.3793 31.7778 27.5817 31.2117 29.3964 29.397C31.215 27.5784 31.7773 25.3797 31.8975 22.8981C32.0215 20.7615 31.9983 18.6404 31.9983 16.5ZM16.4958 24.453C12.0948 24.453 8.54298 20.9011 8.54298 16.5C8.54298 12.0989 12.0948 8.547 16.4958 8.547C20.8969 8.547 24.4487 12.0989 24.4487 16.5C24.4487 20.9011 20.8969 24.453 16.4958 24.453ZM24.7744 10.0787C23.7468 10.0787 22.9171 9.24885 22.9171 8.22128C22.9171 7.19371 23.7468 6.3639 24.7744 6.3639C25.8019 6.3639 26.6317 7.19371 26.6317 8.22128C26.6321 8.46528 26.5842 8.70695 26.491 8.93243C26.3978 9.15792 26.261 9.3628 26.0884 9.53533C25.9159 9.70787 25.711 9.84467 25.4855 9.9379C25.2601 10.0311 25.0184 10.079 24.7744 10.0787Z" fill="white"/>
</svg>
