<svg width="66" height="63" viewBox="0 0 66 63" fill="none" xmlns="http://www.w3.org/2000/svg">
<rect width="66" height="63" fill="#DBE8FF"/>
<path d="M35.125 39.375V23.625M41.6875 31.5H49.5625M45.625 27.5625V35.4375M8.875 31.5C8.875 34.6025 9.48608 37.6746 10.6733 40.5409C11.8606 43.4072 13.6008 46.0116 15.7946 48.2054C17.9884 50.3992 20.5928 52.1394 23.4591 53.3267C26.3254 54.5139 29.3975 55.125 32.5 55.125C35.6025 55.125 38.6746 54.5139 41.5409 53.3267C44.4072 52.1394 47.0116 50.3992 49.2054 48.2054C51.3992 46.0116 53.1394 43.4072 54.3267 40.5409C55.5139 37.6746 56.125 34.6025 56.125 31.5C56.125 28.3975 55.5139 25.3254 54.3267 22.4591C53.1394 19.5928 51.3992 16.9884 49.2054 14.7946C47.0116 12.6008 44.4072 10.8606 41.5409 9.67335C38.6746 8.48608 35.6025 7.875 32.5 7.875C29.3975 7.875 26.3254 8.48608 23.4591 9.67335C20.5928 10.8606 17.9884 12.6008 15.7946 14.7946C13.6008 16.9884 11.8606 19.5928 10.6733 22.4591C9.48608 25.3254 8.875 28.3975 8.875 31.5Z" stroke="black" stroke-width="2" stroke-linecap="round" stroke-linejoin="round"/>
<path d="M19.375 27.5625C19.375 26.5182 19.7898 25.5167 20.5283 24.7783C21.2667 24.0398 22.2682 23.625 23.3125 23.625C24.3568 23.625 25.3583 24.0398 26.0967 24.7783C26.8352 25.5167 27.25 26.5182 27.25 27.5625C27.25 28.7254 26.4284 30.1586 25.6435 31.2191L19.375 39.375H27.25" stroke="black" stroke-width="2" stroke-linecap="round" stroke-linejoin="round"/>
</svg>
