<svg width="42" height="42" viewBox="0 0 42 42" fill="none" xmlns="http://www.w3.org/2000/svg">
<g clip-path="url(#clip0_4_57)">
<path d="M27.8672 30.6328L31.3125 14.3906C31.4531 13.7031 31.3711 13.2109 31.0664 12.9141C30.7617 12.6172 30.3594 12.5625 29.8594 12.75L9.60937 20.5547C9.15625 20.7266 8.84766 20.9219 8.68359 21.1406C8.51953 21.3594 8.5 21.5664 8.625 21.7617C8.75 21.957 9 22.1094 9.375 22.2188L14.5547 23.8359L26.5781 16.2656C26.9062 16.0469 27.1562 16 27.3281 16.125C27.4375 16.2031 27.4062 16.3203 27.2344 16.4766L17.5078 25.2656L17.1328 30.6094C17.4922 30.6094 17.8437 30.4375 18.1875 30.0938L20.7187 27.6563L25.9687 31.5234C26.9687 32.0859 27.6016 31.7891 27.8672 30.6328ZM42 21C42 23.8438 41.4453 26.5625 40.3359 29.1563C39.2266 31.75 37.7344 33.9844 35.8594 35.8594C33.9844 37.7344 31.75 39.2266 29.1562 40.3359C26.5625 41.4453 23.8437 42 21 42C18.1562 42 15.4375 41.4453 12.8437 40.3359C10.25 39.2266 8.01562 37.7344 6.14062 35.8594C4.26562 33.9844 2.77344 31.75 1.66406 29.1562C0.554687 26.5625 0 23.8438 0 21C0 18.1562 0.554687 15.4375 1.66406 12.8438C2.77344 10.25 4.26562 8.01562 6.14062 6.14063C8.01562 4.26563 10.25 2.77344 12.8438 1.66406C15.4375 0.554688 18.1562 0 21 0C23.8438 0 26.5625 0.554688 29.1562 1.66406C31.75 2.77344 33.9844 4.26563 35.8594 6.14063C37.7344 8.01563 39.2266 10.25 40.3359 12.8438C41.4453 15.4375 42 18.1563 42 21Z" fill="#5E5E5E"/>
</g>
<defs>
<clipPath id="clip0_4_57">
<rect width="42" height="42" fill="white"/>
</clipPath>
</defs>
</svg>
