<svg width="24" height="24" viewBox="0 0 24 24" fill="none" xmlns="http://www.w3.org/2000/svg">
<path d="M13 20.27L12.942 18H11.5C9.41533 18 7.64433 17.271 6.187 15.813C4.729 14.3557 4 12.5847 4 10.5C4 8.41533 4.729 6.64433 6.187 5.187C7.64433 3.729 9.41533 3 11.5 3C12.542 3 13.518 3.19533 14.428 3.586C15.3373 3.976 16.1317 4.51033 16.811 5.189C17.4897 5.86833 18.024 6.66267 18.414 7.572C18.8047 8.482 19 9.458 19 10.5C19 11.5193 18.8503 12.4983 18.551 13.437C18.251 14.375 17.837 15.262 17.309 16.098C16.7797 16.934 16.1463 17.704 15.409 18.408C14.6717 19.112 13.8687 19.7323 13 20.269M14 18.35C15.1833 17.35 16.146 16.1793 16.888 14.838C17.63 13.4967 18.0007 12.0507 18 10.5C18 8.68333 17.3707 7.146 16.112 5.888C14.8533 4.63 13.316 4.00067 11.5 4C9.68333 4 8.146 4.62933 6.888 5.888C5.63 7.14667 5.00067 8.684 5 10.5C5 12.3167 5.62933 13.8543 6.888 15.113C8.14667 16.3717 9.684 17.0007 11.5 17H14V18.35ZM11.533 15.571C11.7397 15.571 11.914 15.5 12.056 15.358C12.198 15.2153 12.269 15.041 12.269 14.835C12.269 14.6283 12.198 14.454 12.056 14.312C11.9133 14.1693 11.739 14.098 11.533 14.098C11.3263 14.098 11.152 14.1693 11.01 14.312C10.8673 14.454 10.796 14.6283 10.796 14.835C10.796 15.0417 10.8673 15.216 11.01 15.358C11.152 15.5 11.3263 15.571 11.533 15.571ZM11.096 12.646H11.981C12.0063 12.236 12.085 11.9117 12.217 11.673C12.349 11.4343 12.6623 11.0677 13.157 10.573C13.4443 10.2863 13.672 9.99333 13.84 9.694C14.008 9.39533 14.092 9.05233 14.092 8.665C14.092 7.94367 13.843 7.377 13.345 6.965C12.847 6.55233 12.2447 6.346 11.538 6.346C10.9207 6.346 10.3973 6.515 9.968 6.853C9.538 7.191 9.223 7.594 9.023 8.062L9.846 8.381C9.98067 8.085 10.1773 7.81533 10.436 7.572C10.6953 7.32933 11.0627 7.208 11.538 7.208C12.104 7.208 12.5217 7.36167 12.791 7.669C13.061 7.977 13.196 8.313 13.196 8.677C13.196 9.01167 13.1093 9.29467 12.936 9.526C12.7627 9.75733 12.5403 10.009 12.269 10.281C11.789 10.7037 11.4733 11.0837 11.322 11.421C11.1713 11.757 11.096 12.1653 11.096 12.646Z" fill="black"/>
</svg>
