<svg width="41" height="41" viewBox="0 0 41 41" fill="none" xmlns="http://www.w3.org/2000/svg">
<path d="M29.0417 30.7499C29.4947 30.7499 29.9293 30.5699 30.2496 30.2495C30.57 29.9292 30.75 29.4947 30.75 29.0416V11.9582C30.75 11.5052 30.57 11.0706 30.2496 10.7503C29.9293 10.4299 29.4947 10.2499 29.0417 10.2499C28.5886 10.2499 28.1541 10.4299 27.8337 10.7503C27.5133 11.0706 27.3333 11.5052 27.3333 11.9582V29.0416C27.3333 29.4947 27.5133 29.9292 27.8337 30.2495C28.1541 30.5699 28.5886 30.7499 29.0417 30.7499ZM30.75 8.54157H32.4583V10.2499C32.4583 10.703 32.6383 11.1375 32.9587 11.4579C33.2791 11.7783 33.7136 11.9582 34.1667 11.9582C34.6197 11.9582 35.0543 11.7783 35.3746 11.4579C35.695 11.1375 35.875 10.703 35.875 10.2499V8.54157H37.5833C38.0364 8.54157 38.4709 8.36159 38.7913 8.04121C39.1117 7.72084 39.2917 7.28632 39.2917 6.83324C39.2917 6.38016 39.1117 5.94564 38.7913 5.62527C38.4709 5.30489 38.0364 5.12491 37.5833 5.12491H35.875V3.41657C35.875 2.96349 35.695 2.52897 35.3746 2.2086C35.0543 1.88822 34.6197 1.70824 34.1667 1.70824C33.7136 1.70824 33.2791 1.88822 32.9587 2.2086C32.6383 2.52897 32.4583 2.96349 32.4583 3.41657V5.12491H30.75C30.2969 5.12491 29.8624 5.30489 29.542 5.62527C29.2216 5.94564 29.0417 6.38016 29.0417 6.83324C29.0417 7.28632 29.2216 7.72084 29.542 8.04121C29.8624 8.36159 30.2969 8.54157 30.75 8.54157ZM36.9 15.3749C36.6801 15.4197 36.4712 15.5074 36.2853 15.633C36.0993 15.7586 35.9399 15.9196 35.8161 16.1068C35.6924 16.294 35.6067 16.5037 35.5641 16.724C35.5214 16.9443 35.5226 17.1709 35.5675 17.3907C36.2345 20.6301 35.8392 23.9982 34.4402 26.995C33.0412 29.9919 30.7132 32.4578 27.8016 34.0266C24.8901 35.5955 21.5503 36.1836 18.278 35.7038C15.0056 35.2241 11.9753 33.7019 9.63664 31.3633C7.29802 29.0246 5.77584 25.9942 5.29605 22.7219C4.81626 19.4496 5.40444 16.1098 6.97329 13.1983C8.54213 10.2867 11.008 7.95868 14.0049 6.55971C17.0017 5.16073 20.3698 4.76541 23.6092 5.43241C24.0622 5.52302 24.5328 5.42994 24.9172 5.17364C25.3017 4.91734 25.5685 4.51882 25.6592 4.06574C25.7498 3.61266 25.6567 3.14214 25.4004 2.75769C25.1441 2.37324 24.7456 2.10636 24.2925 2.01574C23.0423 1.78281 21.7714 1.67976 20.5 1.70824C16.7833 1.70824 13.1502 2.81035 10.0599 4.87521C6.96962 6.94006 4.56105 9.87492 3.13875 13.3086C1.71646 16.7424 1.34432 20.5208 2.0694 24.166C2.79448 27.8112 4.58421 31.1596 7.21227 33.7876C9.84034 36.4157 13.1887 38.2054 16.8339 38.9305C20.4791 39.6556 24.2575 39.2834 27.6912 37.8611C31.125 36.4388 34.0598 34.0303 36.1247 30.94C38.1895 27.8497 39.2917 24.2165 39.2917 20.4999C39.2953 19.2376 39.1693 17.9782 38.9158 16.7416C38.8749 16.5186 38.79 16.3061 38.6661 16.1162C38.5422 15.9264 38.3818 15.7632 38.1942 15.636C38.0066 15.5088 37.7955 15.4202 37.5733 15.3754C37.3511 15.3305 37.1222 15.3304 36.9 15.3749ZM17.0833 22.2082H18.7917C20.1509 22.2082 21.4545 21.6683 22.4156 20.7072C23.3767 19.746 23.9167 18.4425 23.9167 17.0832V15.3749C23.9167 14.0157 23.3767 12.7121 22.4156 11.751C21.4545 10.7899 20.1509 10.2499 18.7917 10.2499H17.0833C15.7241 10.2499 14.4205 10.7899 13.4594 11.751C12.4983 12.7121 11.9583 14.0157 11.9583 15.3749C11.9583 15.828 12.1383 16.2625 12.4587 16.5829C12.7791 16.9033 13.2136 17.0832 13.6667 17.0832C14.1197 17.0832 14.5543 16.9033 14.8746 16.5829C15.195 16.2625 15.375 15.828 15.375 15.3749C15.375 14.9218 15.555 14.4873 15.8753 14.1669C16.1957 13.8466 16.6302 13.6666 17.0833 13.6666H18.7917C19.2447 13.6666 19.6793 13.8466 19.9996 14.1669C20.32 14.4873 20.5 14.9218 20.5 15.3749V17.0832C20.5 17.5363 20.32 17.9708 19.9996 18.2912C19.6793 18.6116 19.2447 18.7916 18.7917 18.7916H17.0833C15.7241 18.7916 14.4205 19.3315 13.4594 20.2927C12.4983 21.2538 11.9583 22.5573 11.9583 23.9166V29.0416C11.9583 29.4947 12.1383 29.9292 12.4587 30.2495C12.7791 30.5699 13.2136 30.7499 13.6667 30.7499H22.2083C22.6614 30.7499 23.0959 30.5699 23.4163 30.2495C23.7367 29.9292 23.9167 29.4947 23.9167 29.0416C23.9167 28.5885 23.7367 28.154 23.4163 27.8336C23.0959 27.5132 22.6614 27.3332 22.2083 27.3332H15.375V23.9166C15.375 23.4635 15.555 23.029 15.8753 22.7086C16.1957 22.3882 16.6302 22.2082 17.0833 22.2082Z" fill="#434650"/>
</svg>
