<svg width="24" height="24" viewBox="0 0 24 24" fill="none" xmlns="http://www.w3.org/2000/svg">
<path d="M12 17.4C11.3966 17.4001 10.8153 17.1729 10.3719 16.7638C9.92848 16.3546 9.65544 15.7934 9.60718 15.192C8.0066 14.6254 6.65763 13.5116 5.7984 12.0472C4.93917 10.5828 4.62492 8.86186 4.91113 7.18827C5.19733 5.51468 6.06559 3.99601 7.36263 2.90033C8.65967 1.80465 10.3021 1.20242 12 1.19995C13.8058 1.19969 15.5459 1.87806 16.8751 3.10054C18.2042 4.32303 19.0255 6.00036 19.176 7.79995C19.181 7.87801 19.1697 7.95626 19.1429 8.02972C19.116 8.10319 19.0742 8.17027 19.02 8.22669C18.9658 8.28312 18.9005 8.32766 18.8282 8.35749C18.7559 8.38732 18.6782 8.40178 18.6 8.39995C18.4393 8.39566 18.286 8.33193 18.1696 8.22109C18.0532 8.11026 17.9821 7.9602 17.97 7.79995C17.8631 6.73895 17.4754 5.72561 16.8468 4.86424C16.2181 4.00287 15.3713 3.3246 14.3934 2.89926C13.4155 2.47391 12.342 2.31687 11.2833 2.44428C10.2245 2.5717 9.21889 2.97898 8.36987 3.62419C7.52084 4.2694 6.85911 5.12923 6.4528 6.11515C6.04649 7.10108 5.91027 8.17748 6.05819 9.23354C6.2061 10.2896 6.63279 11.2872 7.29433 12.1235C7.95587 12.9599 8.82836 13.6048 9.82198 13.992C10.0028 13.6013 10.2853 13.2665 10.64 13.0225C10.9947 12.7786 11.4084 12.6345 11.8379 12.6054C12.2674 12.5764 12.6968 12.6633 13.0811 12.8572C13.4654 13.0511 13.7905 13.3448 14.0223 13.7075C14.2541 14.0703 14.3841 14.4886 14.3987 14.9189C14.4132 15.3491 14.3118 15.7753 14.105 16.1528C13.8982 16.5304 13.5937 16.8454 13.2233 17.0648C12.853 17.2842 12.4304 17.4 12 17.4ZM6.01078 14.4H6.11998C6.82863 15.0946 7.65455 15.6585 8.55958 16.0656C8.8256 16.9433 9.41661 17.6864 10.2119 18.1432C11.0073 18.5999 11.9469 18.7359 12.8391 18.5233C13.7313 18.3108 14.5087 17.7657 15.0127 16.9994C15.5166 16.2331 15.7091 15.3033 15.5508 14.4H18C18.6365 14.4 19.2469 14.6528 19.697 15.1029C20.1471 15.553 20.4 16.1634 20.4 16.8C20.4 18.8292 19.4004 20.3592 17.838 21.3564C16.2996 22.3368 14.226 22.8 12 22.8C9.77398 22.8 7.70038 22.3368 6.16198 21.3564C4.59958 20.3604 3.59998 18.828 3.59998 16.8C3.59998 15.4644 4.68358 14.4 6.01078 14.4ZM16.8 8.39995C16.8006 9.21198 16.595 10.0109 16.2025 10.7218C15.81 11.4326 15.2435 12.0322 14.556 12.4644C14.2216 12.1265 13.8235 11.8585 13.3847 11.6758C12.946 11.493 12.4753 11.3993 12 11.4C11.5247 11.3992 11.054 11.4929 10.6152 11.6757C10.1764 11.8584 9.77828 12.1265 9.44398 12.4644C8.53323 11.8903 7.84118 11.0275 7.47838 10.014C7.2934 9.49598 7.19922 8.94996 7.19998 8.39995C7.19998 7.12691 7.70569 5.90601 8.60586 5.00584C9.50604 4.10566 10.7269 3.59995 12 3.59995C13.273 3.59995 14.4939 4.10566 15.3941 5.00584C16.2943 5.90601 16.8 7.12691 16.8 8.39995Z" fill="white"/>
</svg>
