<svg width="51" height="51" viewBox="0 0 51 51" fill="none" xmlns="http://www.w3.org/2000/svg">
<path d="M28.125 33.375V17.625M34.6875 25.5H42.5625M38.625 21.5625V29.4375M1.875 25.5C1.875 28.6025 2.48608 31.6746 3.67335 34.5409C4.86061 37.4072 6.60082 40.0116 8.7946 42.2054C10.9884 44.3992 13.5928 46.1394 16.4591 47.3267C19.3254 48.5139 22.3975 49.125 25.5 49.125C28.6025 49.125 31.6746 48.5139 34.5409 47.3267C37.4072 46.1394 40.0116 44.3992 42.2054 42.2054C44.3992 40.0116 46.1394 37.4072 47.3267 34.5409C48.5139 31.6746 49.125 28.6025 49.125 25.5C49.125 22.3975 48.5139 19.3254 47.3267 16.4591C46.1394 13.5928 44.3992 10.9884 42.2054 8.7946C40.0116 6.60082 37.4072 4.86061 34.5409 3.67335C31.6746 2.48608 28.6025 1.875 25.5 1.875C22.3975 1.875 19.3254 2.48608 16.4591 3.67335C13.5928 4.86061 10.9884 6.60082 8.7946 8.7946C6.60082 10.9884 4.86061 13.5928 3.67335 16.4591C2.48608 19.3254 1.875 22.3975 1.875 25.5Z" stroke="black" stroke-width="2" stroke-linecap="round" stroke-linejoin="round"/>
<path d="M12.375 21.5625C12.375 20.5182 12.7898 19.5167 13.5283 18.7783C14.2667 18.0398 15.2682 17.625 16.3125 17.625C17.3568 17.625 18.3583 18.0398 19.0967 18.7783C19.8352 19.5167 20.25 20.5182 20.25 21.5625C20.25 22.7254 19.4284 24.1586 18.6435 25.2191L12.375 33.375H20.25" stroke="black" stroke-width="2" stroke-linecap="round" stroke-linejoin="round"/>
</svg>
