<svg width="24" height="24" viewBox="0 0 24 24" fill="none" xmlns="http://www.w3.org/2000/svg">
<g clip-path="url(#clip0_6_324)">
<path d="M12 1.33325C9.92347 1.33499 7.93199 2.15838 6.46054 3.62358C4.98909 5.08879 4.15723 7.07674 4.14667 9.15325C4.14667 12.2666 5.89333 14.8733 7.17333 16.7733L7.40667 17.1199C8.68019 18.9657 10.0464 20.7457 11.5 22.4533L12.0067 23.0466L12.5133 22.4533C13.9668 20.7456 15.333 18.9655 16.6067 17.1199L16.84 16.7666C18.1133 14.8666 19.86 12.2666 19.86 9.15325C19.8494 7.07559 19.0167 5.08663 17.5438 3.62123C16.0709 2.15584 14.0777 1.33323 12 1.33325ZM12 12.6666C11.135 12.6666 10.2895 12.4101 9.57031 11.9295C8.85112 11.449 8.29058 10.766 7.95957 9.96685C7.62856 9.16773 7.54195 8.2884 7.7107 7.44006C7.87945 6.59171 8.29597 5.81246 8.90759 5.20084C9.51921 4.58922 10.2985 4.1727 11.1468 4.00395C11.9952 3.83521 12.8745 3.92181 13.6736 4.25282C14.4727 4.58383 15.1557 5.14437 15.6363 5.86356C16.1168 6.58275 16.3733 7.42829 16.3733 8.29325C16.3733 9.45313 15.9126 10.5655 15.0924 11.3857C14.2723 12.2058 13.1599 12.6666 12 12.6666Z" fill="#5194F8"/>
<path d="M12 10.78C13.3734 10.78 14.4867 9.66666 14.4867 8.29331C14.4867 6.91996 13.3734 5.80664 12 5.80664C10.6267 5.80664 9.51334 6.91996 9.51334 8.29331C9.51334 9.66666 10.6267 10.78 12 10.78Z" fill="#5194F8"/>
</g>
<defs>
<clipPath id="clip0_6_324">
<rect width="24" height="24" fill="white"/>
</clipPath>
</defs>
</svg>
