<svg width="30" height="32" viewBox="0 0 30 32" fill="none" xmlns="http://www.w3.org/2000/svg">
<g clip-path="url(#clip0_6_341)">
<path d="M19.9051 23.9365L22.3661 12.4149C22.4665 11.9272 22.4079 11.5781 22.1903 11.3675C21.9727 11.1569 21.6853 11.1181 21.3281 11.2511L6.86384 16.7875C6.54018 16.9094 6.31975 17.0479 6.20257 17.2031C6.08538 17.3583 6.07143 17.5051 6.16071 17.6437C6.25 17.7822 6.42857 17.8903 6.69643 17.9679L10.3962 19.115L18.9844 13.745C19.2187 13.5898 19.3973 13.5565 19.5201 13.6452C19.5982 13.7006 19.5759 13.7838 19.4531 13.8946L12.5056 20.1292L12.2377 23.9198C12.4944 23.9198 12.7455 23.7979 12.9911 23.5541L14.7991 21.825L18.5491 24.5682C19.2634 24.9673 19.7154 24.7567 19.9051 23.9365ZM30 17.1033C30 19.1206 29.6038 21.0492 28.8114 22.8891C28.019 24.729 26.9531 26.3139 25.6138 27.644C24.2746 28.974 22.6786 30.0325 20.8259 30.8195C18.9732 31.6064 17.0312 31.9999 15 31.9999C12.9687 31.9999 11.0268 31.6064 9.17411 30.8195C7.32143 30.0325 5.72545 28.974 4.38616 27.644C3.04687 26.3139 1.98103 24.729 1.18862 22.8891C0.396205 21.0492 0 19.1206 0 17.1033C0 15.0861 0.396205 13.1575 1.18862 11.3176C1.98103 9.47772 3.04687 7.89275 4.38616 6.5627C5.72545 5.23265 7.32143 4.17415 9.17411 3.38721C11.0268 2.60026 12.9688 2.20679 15 2.20679C17.0312 2.20679 18.9732 2.60026 20.8259 3.38721C22.6786 4.17415 24.2746 5.23265 25.6138 6.5627C26.9531 7.89275 28.019 9.47772 28.8114 11.3176C29.6038 13.1575 30 15.0861 30 17.1033Z" fill="#5194F8"/>
</g>
<defs>
<clipPath id="clip0_6_341">
<rect width="30" height="32" fill="white"/>
</clipPath>
</defs>
</svg>
