<svg xmlns="http://www.w3.org/2000/svg" xmlns:xlink="http://www.w3.org/1999/xlink">
 
  <symbol id="geo" viewBox="0 0 24 24" xmlns="http://www.w3.org/2000/svg">
    <g clip-path="url(#clip0_6_55)">
    <path d="M12 1.33337C9.92347 1.33511 7.93199 2.1585 6.46054 3.6237C4.98909 5.08891 4.15723 7.07687 4.14667 9.15337C4.14667 12.2667 5.89333 14.8734 7.17333 16.7734L7.40667 17.12C8.68019 18.9658 10.0464 20.7458 11.5 22.4534L12.0067 23.0467L12.5133 22.4534C13.9668 20.7457 15.333 18.9657 16.6067 17.12L16.84 16.7667C18.1133 14.8667 19.86 12.2667 19.86 9.15337C19.8494 7.07571 19.0167 5.08675 17.5438 3.62135C16.0709 2.15596 14.0777 1.33335 12 1.33337ZM12 12.6667C11.135 12.6667 10.2895 12.4102 9.57031 11.9297C8.85112 11.4491 8.29058 10.7661 7.95957 9.96698C7.62856 9.16785 7.54195 8.28852 7.7107 7.44018C7.87945 6.59184 8.29597 5.81258 8.90759 5.20096C9.51921 4.58934 10.2985 4.17282 11.1468 4.00407C11.9952 3.83533 12.8745 3.92193 13.6736 4.25294C14.4727 4.58395 15.1557 5.14449 15.6363 5.86368C16.1168 6.58287 16.3733 7.42841 16.3733 8.29337C16.3733 9.45325 15.9126 10.5656 15.0924 11.3858C14.2723 12.2059 13.1599 12.6667 12 12.6667Z"/>
    <path d="M12 10.78C13.3733 10.78 14.4866 9.66666 14.4866 8.29331C14.4866 6.91996 13.3733 5.80664 12 5.80664C10.6266 5.80664 9.51331 6.91996 9.51331 8.29331C9.51331 9.66666 10.6266 10.78 12 10.78Z"/>
    </g>
    <defs>
    <clipPath id="clip0_6_55">
    <rect width="24" height="24" fill="white"/>
    </clipPath>
    </defs>
  </symbol>

  <symbol id="inst" viewBox="0 0 42 42" xmlns="http://www.w3.org/2000/svg">
     <path d="M21 14.8837C17.6138 14.8837 14.8837 17.64 14.8837 21C14.8837 24.36 17.64 27.1162 21 27.1162C24.36 27.1162 27.1162 24.36 27.1162 21C27.1162 17.64 24.36 14.8837 21 14.8837ZM39.375 21C39.375 18.4537 39.375 15.96 39.2437 13.4138C39.1125 10.4738 38.43 7.84875 36.2775 5.7225C34.125 3.57 31.5263 2.8875 28.5863 2.75625C26.04 2.625 23.5462 2.625 21 2.625C18.4537 2.625 15.96 2.625 13.4138 2.75625C10.4738 2.8875 7.84875 3.57 5.7225 5.7225C3.57 7.875 2.8875 10.4738 2.75625 13.4138C2.625 15.96 2.625 18.4537 2.625 21C2.625 23.5462 2.625 26.04 2.75625 28.5863C2.8875 31.5263 3.57 34.1512 5.7225 36.2775C7.875 38.43 10.4738 39.1125 13.4138 39.2437C15.96 39.375 18.4537 39.375 21 39.375C23.5462 39.375 26.04 39.375 28.5863 39.2437C31.5263 39.1125 34.1512 38.43 36.2775 36.2775C38.43 34.125 39.1125 31.5263 39.2437 28.5863C39.4012 26.0663 39.375 23.5462 39.375 21ZM21 30.4237C15.7762 30.4237 11.5763 26.2237 11.5763 21C11.5763 15.7762 15.7762 11.5763 21 11.5763C26.2237 11.5763 30.4237 15.7762 30.4237 21C30.4237 26.2237 26.2237 30.4237 21 30.4237ZM30.8175 13.3875C29.61 13.3875 28.6125 12.4163 28.6125 11.1825C28.6125 9.94875 29.5837 8.9775 30.8175 8.9775C32.0512 8.9775 33.0225 9.94875 33.0225 11.1825C33.0291 11.47 32.9767 11.7559 32.8683 12.0223C32.7599 12.2887 32.598 12.53 32.3925 12.7312C32.1912 12.9367 31.9499 13.0987 31.6835 13.207C31.4171 13.3154 31.1313 13.3679 30.8438 13.3612L30.8175 13.3875Z"/>
  </symbol>

  <symbol id="tg" viewBox="0 0 42 42" xmlns="http://www.w3.org/2000/svg">
    <g clip-path="url(#clip0_6_64)">
    <path d="M27.8672 30.6328L31.3125 14.3906C31.4531 13.7031 31.3711 13.2109 31.0664 12.9141C30.7617 12.6172 30.3594 12.5625 29.8594 12.75L9.60937 20.5547C9.15625 20.7266 8.84766 20.9219 8.68359 21.1406C8.51953 21.3594 8.5 21.5664 8.625 21.7617C8.75 21.957 9 22.1094 9.375 22.2188L14.5547 23.8359L26.5781 16.2656C26.9062 16.0469 27.1562 16 27.3281 16.125C27.4375 16.2031 27.4062 16.3203 27.2344 16.4766L17.5078 25.2656L17.1328 30.6094C17.4922 30.6094 17.8437 30.4375 18.1875 30.0938L20.7187 27.6563L25.9687 31.5234C26.9687 32.0859 27.6016 31.7891 27.8672 30.6328ZM42 21C42 23.8438 41.4453 26.5625 40.3359 29.1563C39.2266 31.75 37.7344 33.9844 35.8594 35.8594C33.9844 37.7344 31.75 39.2266 29.1562 40.3359C26.5625 41.4453 23.8437 42 21 42C18.1562 42 15.4375 41.4453 12.8437 40.3359C10.25 39.2266 8.01562 37.7344 6.14062 35.8594C4.26562 33.9844 2.77344 31.75 1.66406 29.1562C0.554687 26.5625 0 23.8438 0 21C0 18.1562 0.554687 15.4375 1.66406 12.8438C2.77344 10.25 4.26562 8.01562 6.14062 6.14063C8.01562 4.26563 10.25 2.77344 12.8438 1.66406C15.4375 0.554688 18.1562 0 21 0C23.8438 0 26.5625 0.554688 29.1562 1.66406C31.75 2.77344 33.9844 4.26563 35.8594 6.14063C37.7344 8.01563 39.2266 10.25 40.3359 12.8438C41.4453 15.4375 42 18.1563 42 21Z"/>
    </g>
    <defs>
    <clipPath id="clip0_6_64">
    <rect width="42" height="42" fill="white"/>
    </clipPath>
    </defs>
  </symbol>
 
</svg>
