<svg width="32" height="32" fill="none" xmlns="http://www.w3.org/2000/svg"><path d="M17.37 2.667c1.5.004 2.262.012 2.92.03l.258.01c.299.01.593.024.95.04 1.418.066 2.386.29 3.235.62a6.5 6.5 0 0 1 2.363 1.537 6.543 6.543 0 0 1 1.537 2.363c.33.85.554 1.817.62 3.237.016.355.03.65.04.95l.008.258c.02.656.028 1.417.031 2.917l.001.995v1.747c.004.972-.007 1.945-.03 2.917l-.008.259c-.011.3-.024.594-.04.95-.067 1.42-.294 2.386-.622 3.236a6.51 6.51 0 0 1-1.537 2.363 6.554 6.554 0 0 1-2.363 1.537c-.849.33-1.817.554-3.236.62-.316.015-.633.029-.949.04l-.259.008c-.657.02-1.418.028-2.918.031l-.995.001h-1.745c-.973.004-1.946-.006-2.919-.03l-.259-.008a83.58 83.58 0 0 1-.949-.042c-1.419-.066-2.387-.29-3.237-.62a6.52 6.52 0 0 1-2.362-1.537 6.539 6.539 0 0 1-1.538-2.363c-.33-.849-.554-1.817-.62-3.237a98.823 98.823 0 0 1-.04-.95l-.007-.258c-.025-.972-.036-1.945-.033-2.917v-2.742c-.004-.972.006-1.945.029-2.917l.01-.259c.01-.3.023-.594.04-.949.066-1.42.29-2.387.62-3.237a6.507 6.507 0 0 1 1.54-2.363 6.53 6.53 0 0 1 2.36-1.537c.851-.33 1.818-.554 3.238-.62.355-.016.65-.03.95-.04l.258-.008c.972-.024 1.945-.034 2.917-.03l2.742-.002ZM16 9.333a6.667 6.667 0 1 0 0 13.334 6.667 6.667 0 0 0 0-13.334ZM16 12a4 4 0 1 1-.001 8.002A4 4 0 0 1 16 12m7-4.667a1.667 1.667 0 1 0 0 3.334 1.667 1.667 0 0 0 0-3.334Z" fill="#5194F8"/></svg>