<svg width="63" height="63" fill="none" xmlns="http://www.w3.org/2000/svg"><g clip-path="url(#a)"><rect width="63" height="63" rx="30" fill="#543C38"/><path d="M13.392 37.448c0-.864.24-1.616.72-2.256a4.593 4.593 0 0 1 1.872-1.464c.608-.272 1.32-.544 2.136-.816.816-.272 1.448-.56 1.896-.864.448-.304.672-.664.672-1.08v-1.992c0-.496-.2-.824-.6-.984-.432-.176-1.104-.264-2.016-.264-1.104 0-2.56.2-4.368.6v-2.64c1.6-.336 3.272-.504 5.016-.504 1.888 0 3.288.288 4.2.864.928.576 1.392 1.536 1.392 2.88v2.16c0 .816-.248 1.528-.744 2.136-.48.592-1.104 1.04-1.872 1.344-.72.304-1.456.576-2.208.816-.816.288-1.464.608-1.944.96-.464.352-.696.768-.696 1.248v.792h7.488V41H13.392v-3.552Zm18.818-8.352-4.248 2.352v-2.952l4.92-3.072h2.832V41H32.21V29.096Zm13.37 5.568h-4.056V32.24h4.056v-4.296h2.424v4.296h4.08v2.424h-4.08v4.32H45.58v-4.32Z" fill="#fff"/></g><defs><clipPath id="a"><rect width="63" height="63" rx="30" fill="#fff"/></clipPath></defs></svg>