<svg width="42" height="42" fill="none" xmlns="http://www.w3.org/2000/svg"><path d="M21 14.884c-3.386 0-6.116 2.756-6.116 6.116S17.64 27.116 21 27.116 27.116 24.36 27.116 21 24.36 14.884 21 14.884ZM39.375 21c0-2.546 0-5.04-.131-7.586-.132-2.94-.814-5.565-2.966-7.691-2.153-2.153-4.752-2.835-7.692-2.967-2.546-.131-5.04-.131-7.586-.131-2.546 0-5.04 0-7.586.131-2.94.132-5.565.814-7.691 2.967-2.153 2.152-2.835 4.75-2.967 7.69-.131 2.547-.131 5.04-.131 7.587 0 2.546 0 5.04.131 7.586.132 2.94.814 5.565 2.967 7.692 2.152 2.152 4.75 2.834 7.69 2.966 2.547.131 5.04.131 7.587.131 2.546 0 5.04 0 7.586-.131 2.94-.132 5.565-.814 7.692-2.966 2.152-2.153 2.834-4.752 2.966-7.692.157-2.52.131-5.04.131-7.586ZM21 30.424A9.4 9.4 0 0 1 11.576 21 9.4 9.4 0 0 1 21 11.576 9.4 9.4 0 0 1 30.424 21 9.4 9.4 0 0 1 21 30.424Zm9.817-17.037a2.201 2.201 0 0 1-2.204-2.205c0-1.233.97-2.205 2.204-2.205 1.234 0 2.206.972 2.206 2.205a2.1 2.1 0 0 1-.63 1.55 2.1 2.1 0 0 1-1.55.63l-.026.025Z" fill="#fff"/></svg>