<svg width="63" height="63" fill="none" xmlns="http://www.w3.org/2000/svg"><g clip-path="url(#a)"><path fill="#664134" d="M0 0h63v63H0z"/><path d="m18.288 29.096-4.248 2.352v-2.952l4.92-3.072h2.832V41h-3.504V29.096ZM32.882 41.24c-2.064 0-3.576-.256-4.536-.768-.944-.512-1.416-1.4-1.416-2.664V35.12c0-.512.256-.992.768-1.44a4.1 4.1 0 0 1 1.824-.912v-.096a2.51 2.51 0 0 1-1.44-.672c-.416-.384-.624-.824-.624-1.32v-2.232c0-1.12.408-1.944 1.224-2.472.832-.528 2.232-.792 4.2-.792s3.36.264 4.176.792c.832.528 1.248 1.352 1.248 2.472v2.232c0 .496-.208.936-.624 1.32a2.51 2.51 0 0 1-1.44.672v.096a4.1 4.1 0 0 1 1.824.912c.512.448.768.928.768 1.44v2.688c0 1.296-.488 2.192-1.464 2.688s-2.472.744-4.488.744Zm0-9.408c.704 0 1.192-.096 1.464-.288.288-.208.432-.536.432-.984v-1.8c0-.464-.144-.792-.432-.984-.272-.208-.76-.312-1.464-.312s-1.2.104-1.488.312c-.272.192-.408.52-.408.984v1.8c0 .416.136.736.408.96.256.208.752.312 1.488.312Zm0 7.128c.688 0 1.184-.04 1.488-.12.32-.08.528-.216.624-.408.112-.192.168-.496.168-.912v-2.112c0-.464-.136-.808-.408-1.032-.272-.208-.888-.312-1.848-.312-.912 0-1.528.104-1.848.312-.304.192-.456.536-.456 1.032v2.112c0 .416.048.72.144.912.112.192.32.328.624.408.32.08.824.12 1.512.12Zm12.698-4.296h-4.056V32.24h4.056v-4.296h2.424v4.296h4.08v2.424h-4.08v4.32H45.58v-4.32Z" fill="#fff"/></g><defs><clipPath id="a"><path fill="#fff" d="M0 0h63v63H0z"/></clipPath></defs></svg>