<svg width="69" height="69" fill="none" xmlns="http://www.w3.org/2000/svg"><path d="M48.875 51.75a2.875 2.875 0 0 0 2.875-2.875v-28.75a2.875 2.875 0 0 0-5.75 0v28.75a2.875 2.875 0 0 0 2.875 2.875Zm2.875-37.375h2.875v2.875a2.875 2.875 0 0 0 5.75 0v-2.875h2.875a2.875 2.875 0 0 0 0-5.75h-2.875V5.75a2.875 2.875 0 0 0-5.75 0v2.875H51.75a2.875 2.875 0 1 0 0 5.75Zm10.35 11.5a2.873 2.873 0 0 0-2.242 3.392A25.875 25.875 0 1 1 39.733 9.142a2.932 2.932 0 1 0 1.15-5.75 31.05 31.05 0 0 0-6.383-.517A31.625 31.625 0 1 0 66.125 34.5a31.047 31.047 0 0 0-.632-6.325 2.874 2.874 0 0 0-3.393-2.3Zm-33.35 11.5h2.875a8.625 8.625 0 0 0 8.625-8.625v-2.875a8.625 8.625 0 0 0-8.625-8.625H28.75a8.625 8.625 0 0 0-8.625 8.625 2.875 2.875 0 0 0 5.75 0A2.875 2.875 0 0 1 28.75 23h2.875a2.875 2.875 0 0 1 2.875 2.875v2.875a2.875 2.875 0 0 1-2.875 2.875H28.75a8.625 8.625 0 0 0-8.625 8.625v8.625A2.875 2.875 0 0 0 23 51.75h14.375a2.875 2.875 0 1 0 0-5.75h-11.5v-5.75a2.875 2.875 0 0 1 2.875-2.875Z" fill="#000"/></svg>