<svg width="126" height="129" fill="none" xmlns="http://www.w3.org/2000/svg"><path d="M86.538 61.913c1.27-1.84 3.058-3.45 5.366-4.829 2.308-1.38 4.558-2.184 6.75-2.414 2.077 2.184 3.808 5.001 5.192 8.45 1.5 3.45 2.25 7.589 2.25 12.417 0 5.634-.923 10.693-2.769 15.177s-3.98 8.393-6.404 11.727a564.6 564.6 0 0 0 14.539 10.348A195.667 195.667 0 0 0 126 121.584v1.38c-1.385 1.15-3.519 2.242-6.404 3.277a31.118 31.118 0 0 1-8.654 1.552 166.57 166.57 0 0 1-11.25-6.554 225.564 225.564 0 0 1-11.077-8.105c-4.73 4.484-10.442 8.278-17.134 11.382C64.904 127.505 56.654 129 46.73 129c-7.385 0-14.02-.862-19.904-2.587-5.77-1.839-10.673-4.369-14.712-7.588-3.923-3.334-6.923-7.186-9-11.555C1.038 102.786 0 97.842 0 92.439c0-4.484.692-8.508 2.077-12.073a33.023 33.023 0 0 1 6.23-9.657c2.654-2.875 5.828-5.462 9.52-7.761 3.692-2.3 7.846-4.427 12.461-6.381-3-3.91-5.596-7.933-7.788-12.072-2.077-4.14-3.115-8.508-3.115-13.107 0-4.484.98-8.623 2.942-12.417 2.077-3.91 4.788-7.244 8.134-10.003 3.462-2.76 7.385-4.944 11.77-6.554C46.73.804 51.404 0 56.25 0c4.154 0 7.788.575 10.904 1.725 3.115 1.15 5.711 2.759 7.788 4.828 2.077 1.955 3.577 4.254 4.5 6.899C80.481 16.096 81 18.913 81 21.902c0 4.484-1.038 8.508-3.115 12.073-2.077 3.449-4.731 6.553-7.962 9.312-3.23 2.76-6.865 5.232-10.904 7.416a183.49 183.49 0 0 1-11.769 5.691c1.846 2.3 4.27 5.06 7.27 8.279 3 3.219 6.403 6.668 10.21 10.347 3.924 3.68 8.135 7.53 12.635 11.555a375.001 375.001 0 0 0 14.366 11.9c.923-1.84 1.788-4.024 2.596-6.554.808-2.644 1.212-5.634 1.212-8.968 0-5.404-.981-9.773-2.943-13.107-1.961-3.334-3.98-5.978-6.058-7.933Zm-33.403 57.429c7.269 0 13.327-1.035 18.173-3.104 4.961-2.185 8.942-4.541 11.942-7.071a276.928 276.928 0 0 1-15.404-12.934A541.83 541.83 0 0 1 54 83.298a894.47 894.47 0 0 1-11.423-11.9c-3.346-3.794-6.058-7.07-8.135-9.83-5.884 2.76-10.673 6.094-14.365 10.003-3.577 3.794-5.366 9.14-5.366 16.039 0 5.173 1.039 9.715 3.116 13.624a31.661 31.661 0 0 0 8.308 10.003c3.461 2.644 7.5 4.656 12.115 6.036 4.73 1.379 9.692 2.069 14.885 2.069ZM32.539 26.386c0 4.6 1.038 8.968 3.115 13.107 2.077 4.14 4.673 8.163 7.788 12.072 3.577-1.84 6.808-3.621 9.693-5.346 3-1.84 5.48-3.794 7.442-5.863 2.077-2.07 3.635-4.37 4.673-6.899 1.154-2.53 1.73-5.461 1.73-8.795 0-2.3-.288-4.484-.865-6.554-.576-2.184-1.5-4.081-2.769-5.69-1.27-1.61-2.942-2.875-5.02-3.795-1.96-1.035-4.384-1.552-7.268-1.552-2.308 0-4.616.402-6.923 1.207-2.193.69-4.154 1.84-5.885 3.45-1.73 1.494-3.115 3.449-4.154 5.863-1.038 2.414-1.557 5.346-1.557 8.795Z" fill="#FFE5BE" fill-opacity=".58"/></svg>