<svg width="24" height="24" fill="none" xmlns="http://www.w3.org/2000/svg"><g clip-path="url(#a)"><path d="M13.234 0c1.35.004 2.035.01 2.626.028l.233.008c.269.01.534.022.854.036 1.277.06 2.148.262 2.913.558.792.305 1.459.718 2.126 1.384a5.89 5.89 0 0 1 1.383 2.126c.297.764.498 1.635.558 2.913.015.32.027.585.037.855l.007.233c.018.59.025 1.275.027 2.625l.002.895v1.572c.002.876-.007 1.75-.028 2.626l-.007.233c-.01.27-.022.535-.036.854-.06 1.278-.264 2.148-.56 2.913a5.86 5.86 0 0 1-1.383 2.127 5.898 5.898 0 0 1-2.126 1.383c-.765.297-1.636.498-2.913.558-.284.014-.57.026-.854.036l-.233.008c-.591.016-1.276.025-2.626.027l-.896.001h-1.57a93.495 93.495 0 0 1-2.627-.027l-.233-.007c-.285-.011-.57-.023-.854-.038-1.277-.06-2.148-.261-2.914-.558-.8-.3-1.526-.773-2.125-1.383a5.885 5.885 0 0 1-1.384-2.127c-.297-.764-.498-1.635-.558-2.913a88.81 88.81 0 0 1-.036-.854l-.006-.233A94.853 94.853 0 0 1 0 13.233v-2.467c-.004-.875.005-1.75.026-2.625l.008-.233c.01-.27.022-.535.036-.855.06-1.278.262-2.148.558-2.913a5.856 5.856 0 0 1 1.388-2.126A5.876 5.876 0 0 1 4.14.63C4.906.334 5.776.132 7.054.072c.32-.014.585-.026.854-.036l.233-.007A94.79 94.79 0 0 1 10.767 0L13.234 0ZM12 6a6 6 0 1 0 0 12 6 6 0 0 0 0-12Zm0 2.4A3.6 3.6 0 1 1 12 15.6 3.6 3.6 0 0 1 12 8.4m6.3-4.2a1.5 1.5 0 1 0 0 3 1.5 1.5 0 0 0 0-3Z" fill="#FFE5BE" fill-opacity=".58"/></g><defs><clipPath id="a"><path fill="#fff" d="M0 0h24v24H0z"/></clipPath></defs></svg>