<svg width="24" height="25" fill="none" xmlns="http://www.w3.org/2000/svg"><path d="m10.155 15.273-.009-.021a6.883 6.883 0 0 1-.402-.123l-.01-.004A6.996 6.996 0 0 1 5 8.5a7 7 0 0 1 13.96-.749c.044.412-.296.749-.71.749s-.745-.338-.8-.748a5.5 5.5 0 1 0-7.279 5.937 2 2 0 1 1 3.377 2.078 2 2 0 0 1-3.393-.494Zm-1.025 1.23a8.504 8.504 0 0 1-3.136-1.988 2.25 2.25 0 0 0-1.99 2.234v.92c0 .572.178 1.13.51 1.596C6.056 21.429 8.58 22.5 12 22.5s5.945-1.072 7.49-3.235a2.75 2.75 0 0 0 .513-1.599v-.918a2.25 2.25 0 0 0-2.248-2.25H15.5a3.5 3.5 0 0 1-6.37 2.005ZM16 8.5a3.991 3.991 0 0 0-2.849-3.83 4 4 0 0 0-3.393 7.143A3.485 3.485 0 0 1 12 11c.853 0 1.635.305 2.243.813A3.996 3.996 0 0 0 16 8.5Z" fill="#000"/></svg>