<svg width="24" height="25" fill="none" xmlns="http://www.w3.org/2000/svg"><g clip-path="url(#a)"><path d="M12 .386C5.371.386 0 5.747 0 12.364 0 18.98 5.371 24.34 12 24.34s12-5.36 12-11.977S18.629.386 12 .386Zm5.893 8.206-1.969 9.263c-.145.657-.537.816-1.084.507l-3-2.207-1.447 1.39c-.16.16-.295.295-.604.295l.213-3.047 5.56-5.013c.241-.213-.054-.333-.373-.12l-6.871 4.317-2.962-.923c-.643-.203-.658-.642.136-.951l11.57-4.453c.536-.193 1.006.13.831.942Z" fill="#FFE5BE" fill-opacity=".58"/></g><defs><clipPath id="a"><path fill="#fff" d="M0 0h24v24.727H0z"/></clipPath></defs></svg>