<svg width="47" height="47" fill="none" xmlns="http://www.w3.org/2000/svg"><path d="M25.513 3.917c2.203.006 3.321.017 4.287.045l.38.013c.439.016.871.036 1.394.06 2.084.097 3.506.426 4.753.91 1.293.497 2.381 1.171 3.47 2.258a9.611 9.611 0 0 1 2.258 3.47c.484 1.248.813 2.67.91 4.755.024.52.044.953.06 1.394l.011.38c.03.964.041 2.082.045 4.285l.002 1.46v2.566c.005 1.429-.01 2.857-.045 4.285l-.011.38c-.016.44-.036.873-.06 1.394-.097 2.086-.43 3.506-.912 4.755a9.561 9.561 0 0 1-2.258 3.47 9.624 9.624 0 0 1-3.47 2.258c-1.247.484-2.67.813-4.753.91-.465.023-.93.042-1.394.06l-.38.011c-.966.028-2.084.041-4.287.045l-1.46.002h-2.564c-1.43.005-2.858-.01-4.287-.045l-.38-.011c-.465-.018-.93-.038-1.394-.061-2.084-.098-3.506-.427-4.755-.91a9.574 9.574 0 0 1-3.468-2.259 9.603 9.603 0 0 1-2.26-3.47c-.484-1.247-.813-2.669-.91-4.755-.023-.464-.042-.93-.06-1.394l-.01-.38a154.798 154.798 0 0 1-.048-4.285v-4.026c-.006-1.428.009-2.857.043-4.285l.013-.38c.016-.44.036-.873.06-1.394.097-2.086.426-3.506.91-4.755a9.557 9.557 0 0 1 2.264-3.47 9.59 9.59 0 0 1 3.466-2.258c1.25-.484 2.67-.813 4.755-.91.52-.024.955-.044 1.394-.06l.38-.011c1.428-.035 2.856-.05 4.285-.045l4.026-.002ZM23.5 13.708a9.792 9.792 0 1 0 0 19.584 9.792 9.792 0 0 0 0-19.584Zm0 3.917a5.876 5.876 0 1 1-.002 11.752 5.876 5.876 0 0 1 .004-11.752m10.281-6.854a2.448 2.448 0 1 0 0 4.895 2.448 2.448 0 0 0 0-4.895Z" fill="#8DADCC"/></svg>