<svg width="63" height="63" viewBox="0 0 63 63" fill="none" xmlns="http://www.w3.org/2000/svg">
<g clip-path="url(#clip0_3_102)">
<rect width="63" height="63" fill="#1B212D"/>
<path d="M18.288 29.096L14.04 31.448V28.496L18.96 25.424H21.792V41H18.288V29.096ZM32.8819 41.24C30.8179 41.24 29.3059 40.984 28.3459 40.472C27.4019 39.96 26.9299 39.072 26.9299 37.808V35.12C26.9299 34.608 27.1859 34.128 27.6979 33.68C28.2099 33.232 28.8179 32.928 29.5219 32.768V32.672C28.9779 32.608 28.4979 32.384 28.0819 32C27.6659 31.616 27.4579 31.176 27.4579 30.68V28.448C27.4579 27.328 27.8659 26.504 28.6819 25.976C29.5139 25.448 30.9139 25.184 32.8819 25.184C34.8499 25.184 36.2419 25.448 37.0579 25.976C37.8899 26.504 38.3059 27.328 38.3059 28.448V30.68C38.3059 31.176 38.0979 31.616 37.6819 32C37.2659 32.384 36.7859 32.608 36.2419 32.672V32.768C36.9459 32.928 37.5539 33.232 38.0659 33.68C38.5779 34.128 38.8339 34.608 38.8339 35.12V37.808C38.8339 39.104 38.3459 40 37.3699 40.496C36.3939 40.992 34.8979 41.24 32.8819 41.24ZM32.8819 31.832C33.5859 31.832 34.0739 31.736 34.3459 31.544C34.6339 31.336 34.7779 31.008 34.7779 30.56V28.76C34.7779 28.296 34.6339 27.968 34.3459 27.776C34.0739 27.568 33.5859 27.464 32.8819 27.464C32.1779 27.464 31.6819 27.568 31.3939 27.776C31.1219 27.968 30.9859 28.296 30.9859 28.76V30.56C30.9859 30.976 31.1219 31.296 31.3939 31.52C31.6499 31.728 32.1459 31.832 32.8819 31.832ZM32.8819 38.96C33.5699 38.96 34.0659 38.92 34.3699 38.84C34.6899 38.76 34.8979 38.624 34.9939 38.432C35.1059 38.24 35.1619 37.936 35.1619 37.52V35.408C35.1619 34.944 35.0259 34.6 34.7539 34.376C34.4819 34.168 33.8659 34.064 32.9059 34.064C31.9939 34.064 31.3779 34.168 31.0579 34.376C30.7539 34.568 30.6019 34.912 30.6019 35.408V37.52C30.6019 37.936 30.6499 38.24 30.7459 38.432C30.8579 38.624 31.0659 38.76 31.3699 38.84C31.6899 38.92 32.1939 38.96 32.8819 38.96ZM45.5798 34.664H41.5238V32.24H45.5798V27.944H48.0038V32.24H52.0838V34.664H48.0038V38.984H45.5798V34.664Z" fill="white"/>
</g>
<defs>
<clipPath id="clip0_3_102">
<rect width="63" height="63" fill="white"/>
</clipPath>
</defs>
</svg>
