<svg width="24" height="24" fill="none" xmlns="http://www.w3.org/2000/svg"><path d="M11 21v-2h8v-7.1c0-1.95-.679-3.604-2.037-4.962C15.605 5.58 13.951 4.901 12 4.9c-1.95 0-3.604.68-4.962 2.038C5.68 8.297 5.001 9.951 5 11.9V18H2v-5.725h1l.075-1.325a8.649 8.649 0 0 1 .988-3.15 9.49 9.49 0 0 1 1.975-2.525A8.769 8.769 0 0 1 8.762 3.6C9.787 3.2 10.866 3 12 3c1.133 0 2.208.2 3.225.6 1.017.4 1.925.954 2.725 1.663a8.968 8.968 0 0 1 1.975 2.512c.517.967.85 2.017 1 3.15l.075 1.35h1V18h-1v3H11Zm-2-7a.965.965 0 0 1-.712-.288A.972.972 0 0 1 8 13c0-.283.096-.52.288-.712A.973.973 0 0 1 9 12c.283 0 .521.096.713.288.192.192.288.43.287.712a.968.968 0 0 1-.288.713A.964.964 0 0 1 9 14Zm6 0a.965.965 0 0 1-.712-.288A.973.973 0 0 1 14 13c0-.283.096-.52.288-.712A.973.973 0 0 1 15 12c.283 0 .521.096.713.288.192.192.288.43.287.712a.968.968 0 0 1-.288.713A.964.964 0 0 1 15 14Zm-8.975-1.55c-.117-1.767.417-3.283 1.6-4.55S10.283 6 12.05 6c1.483 0 2.788.47 3.913 1.412 1.125.941 1.804 2.146 2.037 3.614A7.899 7.899 0 0 1 13.813 9.8a7.973 7.973 0 0 1-2.938-3.25 7.983 7.983 0 0 1-1.687 3.563 7.977 7.977 0 0 1-3.163 2.337Z" fill="#fff"/></svg>