<!-- icon666.com - MILLIONS vector ICONS FREE --><svg id="Layer_1" enable-background="new 0 0 135 135" viewBox="0 0 135 135" xmlns="http://www.w3.org/2000/svg"><g><g><g><path d="m45.06 130.34c.39.42.09 1.09-.47 1.1l-4.79.06c-.41.01-.71-.33-.66-.73l.26-2.14s-3.87-2.93-4.01-4.82c-.14-1.9.09-3.81-.92-7.62-1.01-3.82-3.85-8.24-3.75-10.41.08-2.17 1.26-5.7 1.26-5.7l-3-10.91 20.15-9.12c-.12 4.43-2.79 17.35-12.44 24.53 0 0 1.82 17.63 3.05 19.57.65 1.02 2.4 3.02 3.89 4.66.54.56 1.03 1.09 1.43 1.53z" fill="#914c30"></path></g><g><g><path d="m44.6 131.44-4.79.06c-.41.01-.71-.33-.66-.73l.26-2.06h4.22c.54.58 1.02 1.2 1.43 1.63.39.42.09 1.09-.46 1.1z" fill="#333"></path></g><g><path d="m39.78 132c-.32 0-.63-.14-.85-.38-.22-.25-.33-.58-.29-.92l.26-2.06c.03-.25.24-.44.5-.44h4.22c.14 0 .27.06.37.16.29.32.58.65.83.95.21.25.41.49.6.68.31.34.4.81.22 1.23-.18.43-.58.69-1.04.7l-4.79.08c-.01 0-.02 0-.03 0zm.07-2.79-.21 1.62c-.01.06.02.1.04.12s.07.05.12.05l4.79-.06c.08 0 .12-.06.14-.09.02-.04.03-.1-.03-.16-.19-.21-.4-.45-.63-.71-.21-.24-.43-.5-.66-.76h-3.56z"></path></g></g><g><path d="m39.78 132c-.32 0-.63-.14-.85-.38-.22-.25-.33-.58-.29-.92l.23-1.86c-.91-.72-3.84-3.17-3.98-5-.03-.46-.05-.92-.06-1.41-.04-1.53-.09-3.27-.85-6.12-.44-1.66-1.23-3.43-2-5.14-.98-2.2-1.83-4.1-1.78-5.42.07-1.99 1.01-4.99 1.24-5.69l-2.94-10.77c-.07-.24.05-.49.28-.59l20.15-9.12c.16-.07.34-.06.48.04s.23.26.22.43c-.11 4.08-2.64 17.3-12.42 24.74.73 7.05 2.1 17.74 2.95 19.07.7 1.11 2.7 3.35 3.83 4.59l1.43 1.55c.31.34.4.81.22 1.23-.18.43-.58.69-1.04.7l-4.79.07c-.01 0-.02 0-.03 0zm-10.21-42.56 2.89 10.5c.03.1.02.2-.01.29-.01.03-1.16 3.49-1.23 5.56-.05 1.09.8 2.97 1.69 4.97.74 1.67 1.59 3.55 2.05 5.29.79 2.96.84 4.84.88 6.35.01.47.03.92.06 1.36.09 1.21 2.39 3.38 3.81 4.46.14.11.21.28.19.46l-.26 2.14c-.01.06.02.1.04.12s.07.05.12.05l4.8-.06c.08 0 .12-.06.14-.09.02-.04.03-.1-.03-.16l-1.43-1.55c-1.16-1.27-3.2-3.56-3.94-4.73-1.26-1.98-2.94-17.97-3.13-19.78-.02-.18.06-.35.2-.45 9.07-6.74 11.81-18.62 12.19-23.33z"></path></g></g><g><path d="m74.67 109.29-2.77 4.66-1.92.11c-.66.04-1.11-.66-.8-1.24l2.25-4.28c.37-.68 1.26-.86 1.86-.38z" fill="#333"></path></g><g><path d="m91.79 107.51-9.66 5.87-10.23.58-1.92.11c-.66.04-1.11-.66-.8-1.24l2.25-4.28c.37-.68 1.26-.86 1.86-.38l1.38 1.13 6.19-.43 6.33-3.1-3.8-13.79 3.65-6.53 6.1 18.35c.48 1.4-.08 2.94-1.35 3.71z" fill="#914c30"></path></g><g><path d="m69.93 114.57c-.46 0-.87-.23-1.13-.62-.27-.41-.29-.92-.06-1.36l2.25-4.28c.25-.46.68-.78 1.19-.88.5-.1 1.03.03 1.42.35l1.23 1 5.9-.41 5.87-2.87-3.69-13.39c-.03-.13-.02-.26.05-.38l3.65-6.53c.1-.17.29-.27.48-.25.2.02.37.15.43.34l6.1 18.35c.54 1.63-.1 3.4-1.57 4.29l-9.66 5.87c-.07.04-.15.07-.23.07l-12.15.69c-.02 0-.05.01-.08.01zm2.59-6.18c-.05 0-.09 0-.14.01-.21.04-.4.18-.5.37l-2.25 4.28c-.08.16-.02.3.02.35s.12.17.31.16l12.02-.68 9.55-5.8c1.07-.65 1.54-1.93 1.14-3.12l-5.74-17.27-3 5.36 3.74 13.59c.06.23-.05.48-.26.58l-6.33 3.09c-.06.03-.12.05-.19.05l-6.19.43c-.13 0-.25-.03-.35-.11l-1.38-1.13c-.12-.1-.28-.16-.45-.16z"></path></g><g><path d="m126.68 68.58s-.64 3.41-3.24.81c-1.08-1.08-1.79-2.45-2.53-3.73-.26-.47-.54-.91-.82-1.34-.87-1.26-1.93-2.26-3.63-2.55-3.89-.65-6.48-.97-6.48-.97s-7.95 12.98-14.59 15.9c0 0-.81 8.27-7.31 10.54 0 0-3.56 10.54-4.21 14.92s-1.14 8.76-2.6 10.38l-1.46 9.73 3.46 5.65 1.46 2.39c.19.31-.03.71-.4.71h-5.36c-.26 0-.47-.21-.47-.47v-2.45l-2.92-4.06.97-11.52s-1.14-3.24.65-7.3c0 0 2.6-9.73.16-14.6 0 0-19.14.16-29.2-7.3 0 0-2.6 12.65-19.79 16.38 0 0-1.14 6.17-3.9 8.44 0 0-4.54 12.32-4.21 14.59.19 1.32 2.18 3.9 3.81 5.82.45.51.85.97 1.2 1.36.39.43.08 1.09-.49 1.09h-4.68c-.36 0-.65-.29-.65-.65v-1.94s-4.87-4.22-4.22-6.01 2.11-1.62 2.76-5.51c.65-3.9.65-12.65 1.62-14.6s2.6-2.27 2.6-2.27l3.4-17.35s-6-11.68-1.46-19.46c4.55-7.78 17.36-6.48 21.9-5.35 4.55 1.13 21.81-1.14 21.81-1.14l15.34-2.11.02-.03c.48-.65 8.19-10.99 28.67-11.15.32-.01.66-.01.99-.01l.05-.07 4.11-6.02c.37-.54 1.21-.31 1.25.33l.43 6.4s.3.42.81 1.12c.17.24.38.52.6.83 2.08 2.91 6 8.51 8.33 12.6.21.38.41.73.59 1.08.58 1.1 1 2.02 1.19 2.7 1.15 4.25.18 6.68-3.56 6.19z" fill="#a45e3f"></path></g><g><path d="m112.91 43.45v2.34c-.06 0-16.37-.27-27.34 10.27l-2.35-1.42.02-.03c.48-.66 8.45-11.32 29.67-11.16z"></path></g><g><path d="m129.34 66.12c-.23.76-.66 1.13-1.5 1.06-1.61-.15-1.14-2.15-.48-3.06.4-.41.59-1.3.19-2.11.4.12.77.46 1.1.71.34.27.58.51.77.88.39.78.17 1.71-.08 2.52z"></path></g><g><path d="m121.51 51.15s-2.31.43-3.44-1.17c0 0 1.95-1.32 3.44 1.17z"></path></g><g><path d="m84.33 131.03h-5.36c-.26 0-.47-.21-.47-.47v-2.54h4.76l1.46 2.3c.2.32-.02.71-.39.71z" fill="#333"></path></g><g><path d="m84.33 131.53h-5.36c-.53 0-.97-.43-.97-.97v-2.54c0-.28.22-.5.5-.5h4.76c.17 0 .33.09.42.23l1.46 2.3c.19.31.2.68.03.99s-.49.49-.84.49zm0-1v.5zm-5.32-2.01v2.04l5.29-.03-1.3-2.01z"></path></g><g><path d="m84.33 131.53h-5.36c-.53 0-.97-.43-.97-.97v-2.28l-2.83-3.93c-.07-.1-.1-.22-.09-.33l.96-11.42c-.19-.62-.99-3.73.7-7.56 0-.02 2.4-9.17.3-13.9-2.58-.01-19.01-.35-28.59-6.97-.87 2.76-4.99 12.67-19.65 15.97-.28 1.32-1.45 6.19-3.9 8.32-1.8 4.91-4.36 12.66-4.14 14.23.08.54.66 1.98 3.69 5.57l.37.42c.3.34.57.65.82.92.31.34.39.82.2 1.23-.19.42-.59.69-1.06.69h-4.68c-.63 0-1.15-.52-1.15-1.15v-1.71c-1.14-1.01-4.88-4.51-4.19-6.4.27-.74.67-1.19 1.05-1.63.64-.72 1.29-1.47 1.68-3.79.26-1.55.42-3.97.57-6.31.24-3.7.47-7.19 1.1-8.44.81-1.61 2.03-2.23 2.61-2.44l3.31-16.89c-.73-1.49-5.76-12.26-1.37-19.79 4.68-8.02 17.8-6.75 22.45-5.58 4.41 1.09 21.45-1.12 21.62-1.15l15.14-2.08c1.4-1.8 9.51-11.06 28.96-11.22.24-.01.48-.01.73-.01l4.01-5.87c.29-.43.8-.61 1.3-.48.49.14.83.55.86 1.06l.42 6.26 1.33 1.84c2.12 2.96 6.02 8.55 8.36 12.64.22.38.41.74.6 1.09.66 1.25 1.05 2.14 1.23 2.8.73 2.71.6 4.65-.39 5.78-.71.81-1.83 1.16-3.29 1.05-.18.55-.58 1.42-1.41 1.68-.76.23-1.62-.12-2.55-1.05-.99-.99-1.67-2.19-2.33-3.35l-.28-.49c-.26-.46-.53-.89-.8-1.31-.98-1.41-1.96-2.11-3.3-2.33-3.06-.51-5.34-.82-6.15-.93-1.21 1.93-8.2 12.77-14.39 15.7-.21 1.52-1.47 8.36-7.37 10.59-.52 1.56-3.53 10.68-4.11 14.6l-.2 1.38c-.56 3.86-1.08 7.52-2.42 9.15l-1.41 9.41 4.83 7.89c.18.3.19.67.02.98s-.49.51-.84.51zm-8.23-7.61 2.81 3.91c.06.08.09.19.09.29v2.45l5.33-.03-1.49-2.35-3.46-5.65c-.06-.1-.08-.22-.07-.34l1.46-9.73c.01-.1.06-.19.12-.26 1.21-1.34 1.73-4.94 2.27-8.74l.2-1.38c.65-4.37 4.08-14.57 4.23-15 .05-.15.16-.26.31-.31 6.12-2.14 6.97-10.04 6.97-10.12.02-.18.13-.34.3-.41 6.43-2.83 14.29-15.58 14.37-15.71.1-.17.29-.26.49-.23.03 0 2.65.33 6.5.98 2.06.34 3.2 1.65 3.96 2.76.3.44.58.9.85 1.38l.28.49c.63 1.1 1.27 2.24 2.17 3.14.63.63 1.17.92 1.55.81.51-.16.79-1.05.85-1.36.05-.26.3-.44.56-.4 1.35.17 2.3-.05 2.85-.67.74-.85.81-2.53.18-4.86-.16-.58-.53-1.43-1.15-2.6-.18-.34-.37-.69-.58-1.06-2.31-4.05-6.2-9.61-8.3-12.56l-1.41-1.94c-.06-.08-.09-.17-.1-.26l-.43-6.4c-.01-.11-.07-.15-.13-.16-.05-.01-.14-.02-.2.08l-4.11 6.02c-.1.14-.31.3-.48.29-.33 0-.65 0-.96.01-19.8.11-27.48 9.8-28.29 10.9-.08.11-.22.21-.36.23l-15.34 2.11c-.71.09-17.41 2.26-22 1.13-4.45-1.12-16.97-2.37-21.34 5.12-4.35 7.46 1.42 18.87 1.47 18.98.05.1.07.21.05.32l-3.4 17.35c-.04.2-.19.35-.39.39-.05.01-1.4.32-2.25 2.01-.53 1.07-.78 4.78-.99 8.05-.16 2.47-.32 4.8-.58 6.41-.44 2.61-1.26 3.54-1.92 4.29-.37.42-.66.75-.87 1.31-.36 1 2.22 3.85 4.08 5.46.11.1.17.23.17.38v1.94c0 .08.07.15.15.15h4.68c.09 0 .13-.06.15-.09.03-.06.01-.11-.03-.16-.25-.28-.52-.59-.82-.93l-.38-.43c-2.47-2.94-3.75-4.92-3.92-6.08-.33-2.33 3.77-13.56 4.24-14.84.03-.08.08-.16.15-.21 2.58-2.13 3.71-8.09 3.72-8.15.04-.2.19-.35.39-.4 16.64-3.61 19.38-15.87 19.4-15.99.03-.17.15-.31.31-.37s.34-.04.48.07c9.8 7.27 28.69 7.21 28.89 7.2.21 0 .37.11.45.28 2.49 4.98-.02 14.55-.13 14.96-1.7 3.89-.67 6.97-.66 7 .02.07.03.14.03.21z"></path></g><g><path d="m28.59 60.27c-1.79-.9-4.3-.67-6.28-.67-1.69 0-9.3.41-13.92 5.52-2.07 2.29-1.99 5.49-1.99 8.41v10.6c0 2.22-.26 4.33-.68 6.5-.26 1.34-1.25 2.68-1.4 3.94 1.01-.16 2.3-2.13 2.96-2.92.52 1.24-.31 3.08-.38 4.38.77-.39 1.55-1.01 2.28-1.51.39.53.29 1.18.05 3.32 2.01-1.35 3.01-3.55 3.75-4.03.14-.09-.29 2.72-.16 2.55.94-1.23 1.5-3.57 1.63-3.94 4.15-11.64 3.59-22.23 3.93-24.29.22-1.28.27-3.32 1.55-4.07 1.06-.61 2.68-.97 3.9-.57 1.57.52 3.26 2.03 4.57 3.03" fill="#a45e3f"></path></g><g><path d="m9.21 98.34c-.09 0-.18-.02-.26-.07-.17-.1-.26-.29-.24-.48l.04-.36c.13-1.13.19-1.74.16-2.12-.02.02-.04.03-.06.05-.56.41-1.15.83-1.75 1.13-.16.08-.35.07-.5-.03s-.23-.27-.22-.45c.03-.48.14-1.01.27-1.56.12-.52.24-1.06.27-1.55-.88 1.13-1.7 2.03-2.54 2.17-.15.03-.31-.02-.43-.13-.11-.11-.17-.26-.15-.42.09-.73.42-1.47.74-2.18.27-.6.55-1.22.66-1.8.46-2.39.67-4.42.67-6.41v-10.84c0-2.87 0-6.13 2.12-8.51 4.93-5.53 13.35-5.69 14.3-5.69.32 0 .66-.01 1-.01 1.83-.04 3.9-.07 5.51.74.25.12.35.42.22.67s-.43.34-.67.22c-1.39-.7-3.32-.67-5.04-.63-.35.01-.69.01-1.02.01-.36 0-8.83.06-13.55 5.35-1.87 2.1-1.87 5.02-1.87 7.84v10.84c0 2.05-.22 4.15-.69 6.6-.13.7-.44 1.37-.74 2.02-.1.23-.2.45-.3.67.46-.47.92-1.07 1.24-1.48.18-.23.34-.44.47-.6.11-.13.29-.2.46-.17s.32.14.39.3c.4.96.14 2.15-.1 3.2-.03.13-.06.26-.09.39.24-.17.49-.34.73-.51.21-.15.41-.3.61-.43.22-.15.53-.1.69.11.41.56.42 1.12.28 2.48.7-.66 1.25-1.4 1.71-2.02.44-.59.78-1.05 1.14-1.29.16-.11.38-.11.54-.01.15.1.23.19.25.42.16-.47.28-.9.37-1.18.05-.18.09-.31.11-.38 3.25-9.11 3.59-17.65 3.75-21.76.05-1.15.08-1.98.16-2.45.03-.2.06-.42.09-.65.18-1.35.41-3.02 1.7-3.77 1.12-.65 2.89-1.08 4.31-.61 1.35.45 2.72 1.53 3.92 2.48.28.22.54.43.79.62.22.17.26.48.1.7-.17.22-.48.26-.7.1-.26-.19-.53-.41-.81-.63-1.14-.9-2.44-1.93-3.62-2.32-1.08-.36-2.57-.01-3.49.52-.87.5-1.06 1.91-1.21 3.04-.03.24-.06.47-.1.68-.07.41-.1 1.25-.15 2.32-.17 4.16-.51 12.8-3.81 22.05-.02.06-.05.17-.09.32-.25.87-.77 2.67-1.61 3.76-.14.18-.39.25-.6.17-.38-.15-.38-.32-.24-1.58 0 .01-.01.01-.01.02-.66.89-1.56 2.11-2.87 2.99-.05.07-.15.1-.24.1z"></path></g><g><path d="m25.28 129.95c-.34-.39-.75-.85-1.2-1.36l-4.62-.14v1.94c0 .36.29.65.65.65h4.68c.57-.01.88-.67.49-1.09z" fill="#333"></path></g><g><path d="m24.8 131.53h-4.68c-.63 0-1.15-.52-1.15-1.15v-1.94c0-.14.05-.26.15-.36.1-.09.2-.14.36-.14l4.62.14c.14 0 .27.07.36.17l.38.43c.3.34.57.65.82.92.31.34.39.82.2 1.23-.19.44-.6.7-1.06.7zm-4.83-2.57v1.42c0 .08.07.15.15.15h4.68c.09 0 .13-.06.15-.09.03-.06.01-.11-.03-.16-.25-.27-.52-.59-.82-.93l-.24-.27z"></path></g><g><g><path d="m122.38 61.86c-.61.72-1.33 1.96-1.46 3.8-.34-.39-.63-.82-.82-1.34.31-1.42.94-2.44 1.49-3.11.18-.21.51-.24.72-.07.21.19.24.51.07.72z"></path></g></g><g><path d="m128.48 58.65c-2.17-.12-3.69.34-4.62.78-.25.12-.37.42-.24.67.08.18.26.29.46.29.07 0 .14-.02.21-.05.91-.43 2.47-.88 4.78-.62-.12-.38-.3-.74-.59-1.07z"></path></g><g><path d="m122.28 59.14c-3.66-3.33-5.95-6.98-7.36-10.04l5.23-3.06c-.16-.37-.36-.64-.6-.83l-5.03 2.96c-.87-2.05-1.34-3.75-1.56-4.8-.42-.01-.81-.01-1.05.07v.01c.57 2.73 2.68 10.08 9.68 16.44.1.09.22.13.34.13.14 0 .27-.06.38-.16.19-.21.17-.52-.03-.72z"></path></g><g><path d="m78.48 55.23c-.11-.58-.72-.93-1.28-.73-3.29 1.2-14.07 4.51-28.38 2.57-.69-.09-1.26.53-1.08 1.2 1 3.69 4.44 13.46 12.96 14.74 10.54 1.59 17.36-3.42 18.4-6.93.8-2.71-.15-8.42-.62-10.85z" fill="#333"></path></g><g><path d="m64.66 73.82c-1.28 0-2.63-.1-4.04-.31-8.72-1.31-12.25-11-13.37-15.11-.13-.47-.01-.97.31-1.34.33-.37.82-.55 1.32-.49 14.3 1.94 25.16-1.46 28.14-2.55.4-.15.85-.11 1.22.1s.64.58.72 1c.57 2.97 1.41 8.37.61 11.1-1.04 3.54-6.62 7.6-14.91 7.6zm-15.98-16.26c-.14 0-.27.06-.36.16-.1.12-.14.27-.1.42 1.06 3.91 4.42 13.15 12.55 14.38 10.62 1.61 16.96-3.58 17.84-6.57.78-2.62-.18-8.31-.63-10.63-.03-.14-.11-.25-.23-.32s-.26-.08-.39-.03c-3.04 1.11-14.08 4.56-28.62 2.6-.01 0-.04-.01-.06-.01z"></path></g><g><path d="m67.31 31.25c-.04-.93-.37-1.77-.5-2.51-.64-3.67-3.46-6.72-3.46-6.72l-4.93-.9s-4.25.62-5.56 5.83c-.54 2.16-.05 5.52-.03 7.56h-.02l.03 1.07c.01.48.01.77.01.77h.01l.35 10.82c.01.44.06.87.14 1.31l.33 1.84 6.84 1.97 5.74-2.59 1.05-4.49v-13.97z" fill="#4d4d4d"></path></g><g><path d="m60.54 52.8c-.05 0-.09-.01-.14-.02l-6.84-1.97c-.18-.05-.32-.2-.35-.39l-.33-1.84c-.08-.45-.13-.92-.15-1.38l-.35-10.71c-.01-.04-.02-.08-.02-.12l-.05-1.84c0-.05 0-.1.02-.15-.01-.55-.05-1.18-.1-1.86-.13-1.91-.27-4.07.14-5.69 1.38-5.47 5.78-6.18 5.97-6.21.06-.01.11-.01.16 0l4.93.9c.11.02.2.07.28.15.12.13 2.92 3.2 3.59 6.98.04.25.11.51.18.79.13.49.27 1.05.31 1.65.02.05.02.1.02.15v13.97c0 .04 0 .08-.01.11l-1.05 4.49c-.04.15-.14.28-.28.34l-5.74 2.59c-.05.04-.12.06-.19.06zm-6.4-2.87 6.36 1.84 5.35-2.42.98-4.19v-13.79c-.01-.03-.01-.07-.02-.1-.02-.55-.16-1.07-.29-1.58-.08-.3-.15-.59-.2-.87-.54-3.09-2.72-5.76-3.23-6.35l-4.67-.85c-.57.11-3.94.96-5.07 5.45-.37 1.46-.23 3.54-.11 5.38.05.75.09 1.46.1 2.05 0 .05-.01.09-.02.14l.04 1.6c.01.03.01.07.02.1l.35 10.82c.01.41.06.83.13 1.23z"></path></g><g><path d="m78.43 61.38-12.15-9.57v-2.11l-12.39.4c-.37 1.02-1.56 5.56 1.25 7.91 3.18 2.67 15.39 6.82 15.39 6.82l-1.43 13.08 6.35 1.81 3.89-15.62c.24-1.01-.11-2.06-.91-2.72z" fill="#e6e6e6"></path></g><g><path d="m75.44 80.22c-.05 0-.09-.01-.14-.02l-6.35-1.81c-.23-.07-.39-.29-.36-.54l1.39-12.68c-2.13-.74-12.24-4.32-15.17-6.78-3.41-2.86-1.42-8.41-1.4-8.47.07-.19.25-.32.45-.33l12.39-.39c.12-.01.27.05.36.14.1.09.15.22.15.36v1.86l11.96 9.42s.01 0 .01.01c.94.78 1.35 2.04 1.06 3.22l-3.89 15.62c-.03.13-.12.24-.24.31-.05.05-.13.08-.22.08zm-5.81-2.68 5.45 1.55 3.76-15.12c.2-.81-.08-1.67-.72-2.21l-12.15-9.56c-.12-.09-.19-.24-.19-.39v-1.59l-11.53.37c-.49 1.59-1.02 5.18 1.21 7.04 3.07 2.58 15.1 6.69 15.23 6.73.22.08.36.29.34.53z"></path></g><g><path d="m66.39 49.7h-12.76c-.13 0-.23.1-.23.23v1.68c0 .13.1.23.23.23h12.76c.13 0 .23-.1.23-.23v-1.68c0-.13-.1-.23-.23-.23z" fill="#666"></path></g><g><path d="m66.39 52.34h-12.76c-.4 0-.73-.33-.73-.73v-1.68c0-.4.33-.73.73-.73h12.76c.4 0 .73.33.73.73v1.68c0 .4-.33.73-.73.73zm-12.49-1h12.22v-1.14h-12.22z"></path></g><g><g><path d="m66.13 13.33-.43.48s1.29 1.2 1.4 1.77c.11.56-.91.79-.91.79s.28.66-.16.89c0 0 .47.24-.02.75 0 0-.35.15 0 .72.35.56.1 1.5-1.04 1.59-1.15.08-1.78-.05-1.78-.05l-.19 1.47-5.42-2.11.14-2.39s-.05-.11-.11-.29c-.32-.83-1.18-3.25-.83-4.04 0 0-.38-3.09 1.1-4.12 1.48-1.05 5.71-.63 6.57-.39.84.24 1.91 1.78.66 2.56z" fill="#f0c067"></path></g><g><path d="m63.01 22.24c-.06 0-.12-.01-.18-.03l-5.42-2.11c-.2-.08-.33-.28-.32-.5l.14-2.28c-.02-.05-.05-.12-.08-.21-.46-1.18-1.16-3.26-.87-4.27-.06-.62-.22-3.39 1.33-4.47 1.67-1.18 6.09-.71 6.99-.46.76.22 1.47 1.06 1.58 1.87.07.5-.09.97-.45 1.32l.87 2.03c.08.18.04.39-.09.53l-.11.13c.45.46 1.1 1.19 1.2 1.7.11.56-.28.98-.81 1.22.01.2-.02.4-.1.58.02.05.03.1.04.16.04.21 0 .54-.35.91.01.03.03.07.06.12.27.43.29.99.06 1.45-.26.52-.8.85-1.49.9-.59.04-1.06.03-1.39.01l-.12.96c-.02.15-.11.29-.24.37-.07.04-.16.07-.25.07zm-4.9-2.95 4.49 1.75.11-.84c.02-.14.09-.26.21-.35.11-.08.26-.11.39-.08 0 0 .59.12 1.64.04.33-.03.57-.15.67-.35.08-.15.07-.34-.02-.48-.22-.36-.28-.69-.19-.97.06-.18.17-.32.29-.4-.1-.1-.16-.23-.15-.38.01-.18.11-.35.27-.43-.01-.01-.04-.15-.08-.25-.06-.14-.05-.29.02-.42s.19-.23.33-.26c.22-.05.49-.18.54-.26-.05-.17-.64-.87-1.26-1.45-.2-.19-.21-.5-.03-.7l.22-.25-.9-2.08c-.1-.23-.01-.49.2-.62.26-.16.37-.35.33-.61-.06-.46-.52-.94-.87-1.04-.81-.23-4.87-.58-6.14.32-1.01.7-.99 2.87-.9 3.65.01.09 0 .18-.04.26-.18.4.18 1.97.84 3.65.06.17.1.27.11.27.03.07.05.15.04.23zm8.1-.82s0 0 0 0z"></path></g><g><path d="m64.46 8.39c-.85-.24-5.09-.65-6.57.39-.95.66-1.03 2.17-1.15 3.16-.09.77-.04 1.32-.04 1.56 0 1.8.76 3.05 1.03 3.72l1.48-.36s-.33-1.86-.07-2.89c.28-1.02 1.6-.68 2 .01.31.53.53 2.18.53 2.18l.73-.12-.26-2.54c-.07-.71.13-1.45.64-1.95.08-.07.16-.15.25-.21.77-.56 2.08-.42 2.08-.42 1.26-.74.19-2.28-.65-2.53z"></path></g></g><g><g><path d="m56.9 10.57.92-6.29c.09-.59.72-.93 1.26-.68l1.58.89c.47.26 1.05.25 1.51-.03l1.43-.88c.53-.24 1.15.08 1.25.66l1.1 6.12z" fill="#a45e3f"></path></g><g><path d="m56.9 11.07c-.14 0-.28-.06-.37-.17-.1-.11-.14-.26-.12-.4l.92-6.29c.07-.44.33-.81.72-1.03.39-.21.85-.23 1.25-.04l1.62.9c.31.18.7.17 1-.02l1.43-.88c.45-.21.9-.2 1.28 0s.65.56.73.99l1.1 6.12c.03.14-.01.29-.1.4s-.23.18-.38.18l-9.05.22c-.02.02-.03.02-.03.02zm1.81-7.05c-.06 0-.13.02-.2.05-.11.06-.19.17-.2.29l-.83 5.7 7.87-.19-.99-5.54c-.02-.12-.1-.22-.21-.28s-.24-.06-.35-.01l-1.38.85c-.61.38-1.38.39-2.01.04l-1.58-.89c-.03-.01-.07-.02-.12-.02z"></path></g><g><path d="m69.65 12.46c-.38.74-4-.36-8.36-.32-4.36-.05-7.98 1.06-8.36.32-.42-.68 3.18-3.29 8.36-3.28 5.18-.02 8.78 2.59 8.36 3.28z" fill="#914c30"></path></g><g><path d="m53.8 13.21c-.69 0-1.11-.14-1.31-.53-.07-.11-.18-.42.06-.85.64-1.14 4.09-3.16 8.7-3.16h.09c4.61 0 8.06 2.02 8.7 3.16.23.41.14.71.05.86-.37.7-1.44.57-3.56.31-1.45-.18-3.25-.4-5.23-.37-1.97-.01-3.79.2-5.24.37-.96.13-1.7.21-2.26.21zm-.32-.99c.39.04 1.48-.09 2.45-.2 1.48-.18 3.34-.4 5.36-.38 2.02-.03 3.87.2 5.35.38.94.11 1.99.24 2.44.19-.56-.7-3.43-2.53-7.75-2.53-.03 0-.06 0-.09 0-4.35 0-7.23 1.85-7.76 2.54z"></path></g></g><g><path d="m57.15 18.99-.9 3.02 8.23 1.46-1.38-2.81z" fill="#666"></path></g><g><path d="m64.48 23.97c-.03 0-.06 0-.09-.01l-8.24-1.46c-.14-.02-.26-.11-.34-.23-.07-.12-.09-.27-.05-.41l.9-3.02c.08-.26.36-.41.61-.34l5.95 1.67c.14.04.25.13.31.26l1.39 2.81c.08.17.06.37-.05.52-.08.13-.23.21-.39.21zm-7.59-2.36 6.71 1.19-.85-1.72-5.26-1.48z"></path></g><g><g><path d="m81.08 93.17c-.13.46-4.27 1.5-6.58.36-2.31-1.13-4.16-2.5-4.16-2.5l-.19.67c-.05.2-.25.32-.44.28l-3.22-1.21.1-1.93-.02-.15 1.24-3.23.17-.55.84-7.33s1.81-2.85 5.09-1.26c0 0 2.09.83 1.92 2.31-.04.33-2.01 8.14-2.01 8.14s1.12 2.46 2.12 3.29c.95.78 3.07 1.67 4.54 1.69.21 0 .39.14.45.34.06.21.07.51-.09.89 0 0 .36-.26.24.19z" fill="#333"></path></g><g><path d="m69.99 88.38c-.04 0-.09-.01-.13-.02-.27-.07-.42-.35-.35-.62l1.87-6.68c.07-.26.35-.42.62-.35s.42.35.35.62l-1.87 6.68c-.07.23-.27.37-.49.37z"></path></g><g><path d="m77.16 94.54c-1.01 0-2.04-.15-2.89-.57-1.57-.77-2.92-1.63-3.65-2.13-.12.44-.57.72-1.02.62l-3.29-1.23c-.2-.08-.33-.28-.32-.49l.1-1.93-.02-.06c-.01-.08 0-.16.03-.24l1.39-3.72.83-7.27c.01-.07.03-.15.08-.21.02-.03 2.09-3.21 5.73-1.44.07.02 2.41.98 2.2 2.82-.04.33-1.47 6.02-1.98 8.03.36.75 1.22 2.38 1.91 2.96.89.73 2.88 1.56 4.23 1.57.42 0 .8.28.92.7.05.16.08.38.05.65.11.12.2.34.11.7v.01c-.08.3-.39.47-.64.58-.66.28-2.18.65-3.77.65zm-6.82-4.01c.11 0 .21.03.3.1.02.01 1.84 1.36 4.08 2.45 1.72.85 4.59.37 5.63-.03-.01-.09 0-.18.03-.27.11-.27.1-.45.07-.56-1.57 0-3.81-.95-4.83-1.78-1.08-.9-2.21-3.37-2.26-3.47s-.06-.22-.03-.33c.77-3.07 1.95-7.76 2-8.09.12-1.06-1.59-1.77-1.61-1.78-2.58-1.25-4.1.54-4.42.98l-.83 7.21c0 .04-.01.08-.03.12l-1.37 3.66v.03l-.07 1.66 2.7 1.01.16-.55c.04-.16.16-.28.32-.34.05-.02.1-.02.16-.02z"></path></g><g><path d="m81.1 93.05c-.15.03-.3.08-.44.14-1.27.53-2.64.56-4.01.43-.6-.06-1.21-.18-1.87-.34-.56-.14-1.45-.29-1.77-.59-.09-.08-.19-.16-.29-.22-.17-.3-.4-.57-.69-.8-.67-.53-1.52-.9-2.39-.94-.18-.01-.34.01-.53.04-.01 0-.05.01-.11.02 0-.02-.22-.02-.33-.05-.21-.06-.41-.13-.61-.19-.56-.18-.95-.35-1.4-.56-.01-.31-.12-.61-.1-.85.01-.17.06-.15.03-.3l-.02-.15.02-.08s1.19-3.06 1.21-3.12c0 0 1.17 1.76 2.17 2.37 1.32.8 2.87.93 3.37.63.26-.16.24-.49.17-.76-.08-.29-.01-.61.2-.83l.11-.13s1.12 2.46 2.12 3.29c.96.78 3.09 1.68 4.56 1.69.19 0 .37.11.43.29.08.2.11.51-.07.9 0 0 .28-.21.24.11z" fill="#4d4d4d"></path></g><g><path d="m77.91 94.18c-.41 0-.84-.02-1.31-.07-.57-.06-1.18-.17-1.94-.35l-.34-.08c-.76-.17-1.32-.32-1.65-.63-.06-.05-.13-.11-.2-.16-.08-.04-.14-.11-.18-.18-.14-.25-.33-.47-.57-.65-.64-.5-1.38-.8-2.1-.83-.12-.01-.25.01-.43.03-.08.01-.19.01-.29-.02l-.01.03c-.16-.02-.27-.03-.35-.05-.13-.04-.26-.08-.38-.12l-.25-.08c-.58-.18-.97-.35-1.47-.59-.17-.08-.28-.25-.29-.44 0-.12-.03-.23-.05-.34-.03-.18-.07-.37-.05-.57.01-.12.03-.2.04-.24l-.03-.1c-.01-.06 0-.12.01-.18 0-.02.03-.12.04-.14 0 0 1.15-2.96 1.2-3.11.06-.18.22-.31.41-.33.18-.02.37.06.48.22.31.46 1.27 1.77 2.01 2.22 1.25.76 2.58.79 2.85.63-.03.01-.02-.07-.05-.21-.13-.46 0-.96.32-1.3l.09-.11c.11-.13.27-.2.45-.17.17.02.31.13.39.29.3.66 1.24 2.49 1.98 3.11.9.73 2.91 1.57 4.24 1.57.41 0 .78.25.9.63.05.13.12.38.07.71.08.11.15.27.12.52-.03.21-.19.38-.4.43-.1.02-.22.06-.34.11-.84.38-1.78.55-2.92.55zm-4.82-2.07c.09.06.17.13.25.2.17.16.84.31 1.2.4l.36.08c.71.17 1.28.28 1.8.33 1.56.15 2.7.04 3.69-.36 0-.01.01-.02.01-.03.12-.26.09-.43.06-.5-.01 0-.02 0-.03 0-1.54 0-3.78-.94-4.81-1.78-.57-.48-1.16-1.39-1.59-2.17-.07.37-.3.56-.43.64-.7.42-2.42.26-3.89-.63-.64-.39-1.32-1.17-1.78-1.76-.2.51-.48 1.25-.86 2.2l.01.05c.03.14.01.25-.02.37-.01.1.01.22.03.34.01.06.02.11.03.17.35.16.67.29 1.09.42l.25.08c.11.04.22.07.34.1.02.01.07.01.11.01.03 0 .06.01.08.01.04-.01.07-.01.11-.01.12-.02.32-.05.56-.04.92.04 1.87.41 2.67 1.05.31.23.56.51.76.83zm7.51.87.49.06z"></path></g><g><path d="m81.18 92.94c-.06-.11-.18-.16-.3-.12-.63.22-2.63.85-4.79.55-2.6-.36-3.93-1.79-5.04-2.76-.94-.82-3.4-.82-3.9-1.36s-.56-.72-.67-.51c-.09.17-.18 1.55-.22 2.21-.01.19.12.36.31.4l3.14.62c.2.04.39-.08.44-.27l.19-.68s.46.33 1.62 1.17c.94.69 2.51 1.37 2.96 1.51.44.13 2.93.96 6.07-.35.11-.05.27-.23.19-.41z" fill="#333"></path></g><g><path d="m77.44 94.59c-.89 0-1.77-.13-2.62-.39-.52-.16-2.16-.87-3.16-1.6-.44-.32-.78-.57-1.03-.75-.13.44-.58.71-1.02.62l-3.14-.62c-.43-.09-.74-.48-.71-.92.13-2.13.22-2.29.28-2.4.14-.26.33-.34.47-.35.31-.04.51.18.72.43.07.09.17.19.29.32.14.13.84.28 1.31.38.91.19 1.95.41 2.56.94l.36.32c1 .9 2.24 2.02 4.42 2.32 2.05.28 4-.33 4.55-.53.35-.12.75.03.91.37 0 0 0 .01.01.01.09.19.1.4.02.6-.08.22-.26.4-.47.49-1.24.5-2.5.76-3.75.76zm-10.68-3.71 2.94.58.16-.57c.03-.1.09-.2.17-.26-.43-.15-.96-.26-1.42-.36-.79-.17-1.42-.3-1.77-.61-.02.28-.05.68-.08 1.22z"></path></g></g><g><g><path d="m104.07 66.46c-9.4 0-20.95-3.65-30.92-17.53-.16-.23-.11-.54.12-.71.23-.16.54-.11.71.12 20.37 28.37 47.47 12.92 47.74 12.77.24-.14.55-.06.69.18s.06.55-.18.69c-.14.08-7.85 4.48-18.16 4.48z"></path></g></g><g><g><path d="m124.74 60.51c0 1.03-.83 1.87-1.87 1.87-1.03 0-1.87-.84-1.87-1.87s.84-1.87 1.87-1.87c1.04 0 1.87.84 1.87 1.87z"></path></g></g><g><path d="m68.57 45.35s4.1-.7 5.33-.31c.85.27 1.35 1.02 1.57 1.45.1.19.11.41.04.61l-.89 2.53c-.11.31-.4.52-.74.52h-1.15c-.28 0-.55-.15-.68-.4l-.56-1.02-3.94-.89z" fill="#f0c067"></path></g><g><path d="m73.88 50.65h-1.15c-.47 0-.9-.25-1.12-.66l-.46-.83-3.72-.84c-.14-.03-.27-.13-.33-.26-.07-.13-.08-.29-.02-.42l1.03-2.49c.07-.16.21-.27.38-.3.43-.07 4.26-.71 5.56-.29 1.02.33 1.61 1.21 1.86 1.7.16.31.18.67.07 1.01l-.89 2.53c-.19.51-.67.85-1.21.85zm-5.65-3.17 3.36.76c.14.03.26.12.33.25l.56 1.02c.05.09.14.15.25.15h1.15c.12 0 .22-.08.26-.19l.89-2.53c.03-.07.02-.15-.01-.21-.19-.36-.6-.99-1.28-1.21-.76-.25-3.25.03-4.82.28z"></path></g><g><path d="m61.98 29.87v9.21l8.26 5.62-1.36 4.39-12.41-6.14-1.17-12.63z" fill="#4d4d4d"></path></g><g><path d="m68.88 49.59c-.08 0-.15-.02-.22-.05l-12.41-6.14c-.16-.08-.26-.23-.28-.4l-1.17-12.63c-.03-.27.18-.52.45-.54.26-.03.52.18.54.45l1.15 12.35 11.63 5.76 1.07-3.48-7.95-5.41c-.14-.09-.22-.25-.22-.41v-9.2c0-.28.22-.5.5-.5s.5.22.5.5v8.94l8.04 5.47c.18.12.26.35.2.56l-1.35 4.4c-.04.14-.15.25-.28.31-.06.01-.13.02-.2.02z"></path></g><g><g><path d="m11.59 88.99c-.12 0-.24-.04-.34-.13-.2-.19-.22-.5-.03-.71 1.87-2.05 3.48-9.02 3.75-16.22.16-4.22.73-6.78 1.71-7.59.34-.28.63-.28.73-.26.27.04.46.29.42.57-.04.24-.24.42-.47.43-.13.07-1.17.86-1.39 6.89-.28 7.53-1.96 14.62-4.01 16.86-.1.11-.23.16-.37.16zm5.68-23.92s0 0 0 0z"></path></g><g><path d="m9.42 87.32c-.11 0-.21-.03-.3-.1-.22-.17-.26-.48-.09-.7 1.49-1.94 2.77-8.57 2.99-15.42.13-4.15.62-6.6 1.45-7.28.28-.23.53-.21.62-.2.27.05.45.31.41.58-.04.22-.21.37-.41.41-.14.13-.9 1.09-1.07 6.52-.23 7.14-1.58 13.87-3.2 15.99-.1.13-.25.2-.4.2zm4.49-22.72s0 0 0 0z"></path></g><g><path d="m7.75 83.52c-.1 0-.2-.03-.28-.09-.23-.16-.29-.47-.13-.69.84-1.23 1.65-5.56 1.51-11.17-.08-3.09.19-4.86.8-5.42.23-.21.46-.22.55-.2.27.03.47.28.44.56-.02.2-.16.36-.34.42-.11.15-.54 1-.45 4.63.13 5.28-.56 10.11-1.69 11.76-.09.12-.25.2-.41.2z"></path></g></g><g><path d="m74.67 109.3-2.28 4.63-.48.03-1.92.11c-.66.04-1.11-.66-.8-1.24l2.25-4.28c.37-.68 1.26-.86 1.86-.38z" fill="#333"></path></g><g><path d="m69.93 114.57c-.46 0-.88-.23-1.13-.62-.27-.42-.29-.92-.06-1.36l2.25-4.28c.25-.46.69-.78 1.19-.88s1.02.03 1.42.35l1.38 1.13c.18.15.23.4.13.61l-2.28 4.63c-.08.16-.24.27-.42.28l-2.4.14c-.02 0-.05 0-.08 0zm2.6-6.17c-.05 0-.1 0-.15.01-.22.04-.4.18-.51.38l-2.25 4.27c-.09.16-.02.3.01.35s.15.18.31.16l2.11-.12 1.98-4.01-1.07-.88c-.11-.11-.27-.16-.43-.16z"></path></g></g></svg>