<!-- icon666.com - MILLIONS vector ICONS FREE --><svg id="SVGRoot" viewBox="0 0 512 512" xmlns="http://www.w3.org/2000/svg" xmlns:svg="http://www.w3.org/2000/svg"><g id="g6237" clip-rule="evenodd" fill-rule="evenodd" stroke-linecap="round" stroke-linejoin="round" stroke-miterlimit="10" transform="translate(2.531 -7.915)"><path id="path5681" d="m10.072053 201.30616c14.923791-46.6488 110.675297-23.74891 149.063367-52.34833 38.38784-28.59916 48.56425-130.416135 95.75324-130.041887 47.18901.375223 55.87685 102.340817 93.84248 131.545507 37.96588 29.20493 134.04096 7.82654 148.28141 54.70662 14.2407 46.88007-76.14152 86.99919-91.0653 133.64799-14.92381 46.64881 34.27752 135.25315-4.11056 163.8523-38.38783 28.59942-102.93488-48.57227-150.12413-48.94653-47.18901-.3752-112.85601 75.76472-150.82166 46.55979-37.965639-29.20466 12.52427-117.01832-1.715685-163.89839-14.240455-46.88034-104.0262226-88.42826-89.102429-135.07707z" fill="#ffca28" stroke-width="22" style="fill: rgb(255, 193, 7);"></path><path id="path5681-9" d="m254.88867 18.916016c-4.01392-.03183-7.74129.727423-11.25976 2.066406 38.02863 14.439122 48.21664 102.643628 83.10156 129.478518 37.96588 29.20493 134.0408 7.82695 148.28125 54.70703 14.2407 46.88007-76.14067 86.99964-91.06445 133.64844-14.92381 46.64881 34.27675 135.25241-4.11133 163.85156-3.018 2.24844-6.21298 3.77699-9.53321 4.80664 11.61179 2.78734 22.32922 2.05044 31.53321-4.80664 38.38808-28.59915-10.81248-117.20275 4.11133-163.85156 14.92378-46.6488 105.30515-86.76837 91.06445-133.64844-14.24045-46.88008-110.31537-25.5021-148.28125-54.70703-37.96563-29.20469-46.65279-131.169701-93.8418-131.544924z" fill="#ffc107" stroke-width="22"></path><path id="path5683" d="m254.97656 7.9160156c-15.75571-.1249559-28.65783 8.7471244-38.04883 20.1445314-9.39099 11.397406-16.48028 25.686027-23.2207 40.439453-13.48083 29.506851-26.59047 60.79532-41.14258 71.63672-14.55226 10.84155-46.8605 13.55003-78.074216 17.30469-15.606857 1.87732-30.973202 4.25822-44.457031 9.87109-13.483828 5.61287-25.5867838 15.48021-30.43749988 30.64258-4.85071752 15.16238-.87740762 30.29764 6.60546878 43.0957 7.4828761 12.79806 18.3663491 24.28781 29.7578121 35.53516 22.782927 22.49469 47.177175 44.84099 52.691407 62.99414 5.514039 18.15304-2.109242 51.2635-8.314454 83.28711-3.102605 16.0118-5.648512 31.87888-4.705078 46.77343.943435 14.89456 6.015795 29.71547 18.552735 39.35938 12.536946 9.644 28.146906 10.45217 42.294926 6.95312 14.14801-3.49904 27.99531-10.7524 41.78906-18.57031 27.5875-15.63582 55.71919-32.80235 73.35742-32.66211 17.63855.1399 45.52384 17.75326 72.87891 33.82422 13.67753 8.03548 27.41427 15.50602 41.50781 19.22852 14.09354 3.72249 29.71457 3.16498 42.39648-6.28321 12.68199-9.44809 17.97378-24.19586 19.13477-39.07421 1.16098-14.87836-1.15518-30.78088-4.02344-46.83985-5.73652-32.11794-12.87274-65.35034-7.0957-83.4082 5.77703-18.05785 30.49187-40.01304 53.60156-62.14453 11.55485-11.06575 22.6068-22.38197 30.27734-35.0625 7.67055-12.68054 11.86193-27.75645 7.23438-42.99024-4.62747-15.2338-16.57873-25.28433-29.97656-31.10937-13.39784-5.82504-28.7272-8.44958-44.30469-10.57422-31.15498-4.24929-63.41784-7.46745-77.81836-18.54492-14.40039-11.07736-27.04976-42.570739-40.09766-72.287112-6.52395-14.858186-13.40378-29.256486-22.625-40.798828s-21.98261-20.6149534-37.73828-20.7402344zm-.17578 22.0000004c7.83882.06233 13.85854 3.876338 20.72461 12.470703s13.37955 21.58339 19.67188 35.914062c12.58465 28.661349 23.26097 62.751609 46.82617 80.878909 23.56532 18.12742 58.32568 18.82348 88.25976 22.90625 14.96704 2.04138 28.69808 4.68699 38.50586 8.95117s15.20647 9.12191 17.69922 17.32812c2.49279 8.20622.72752 15.72442-5.00976 25.20899-5.73729 9.48457-15.54385 19.90542-26.66993 30.56055-22.25214 21.31024-50.19115 42.73917-59.33789 71.33007-9.14675 28.59091.85642 62.98432 6.39258 93.98047 2.76808 15.49808 4.62288 30.02355 3.74609 41.25977-.87678 11.23621-3.83171 18.29111-10.34375 23.14258-6.51198 4.85151-13.35451 5.37155-23.63476 2.65625s-22.82804-9.19846-35.98438-16.92774c-26.31209-15.45822-54.29577-36.61823-83.8457-36.85351h-.002c-29.55003-.23403-57.84488 20.48079-84.37891 35.51953-13.2673 7.51953-25.90564 13.80194-36.22265 16.35351-10.31702 2.55158-17.15376 1.92525-23.59961-3.0332-6.44586-4.95841-9.299182-12.06516-10.011723-23.31445-.71254-11.2493 1.355444-25.74314 4.349613-41.19532 5.98833-30.90434 16.49152-65.14021 7.76562-93.86718-8.72616-28.72715-36.346027-50.59435-58.285104-72.25586-10.969539-10.83076-20.623017-21.40529-26.222657-30.98242-5.599639-9.57714-7.255703-17.12706-4.644531-25.28907 2.611172-8.162 8.072954-12.92806 17.939453-17.03515 9.866499-4.1071 23.635888-6.53417 38.63086-8.33789 29.989939-3.60745 64.752119-3.74802 88.587889-21.50586 23.8357-17.75773 35.00821-51.67892 48.00977-80.136722 6.50077-14.228903 13.20086-27.110074 20.18945-35.591797s13.05577-12.196933 20.89453-12.134765z" fill="#000000" style="fill: rgb(255, 194, 7);"></path></g></svg>