<!-- icon666.com - MILLIONS vector ICONS FREE --><svg id="Capa_1" enable-background="new 0 0 512.002 512.002" viewBox="0 0 512.002 512.002" xmlns="http://www.w3.org/2000/svg"><g><path d="m372.25 307.5v60c0 8.28 6.72 15 15 15s15-6.72 15-15v-17.571c4.693 1.659 9.739 2.571 15 2.571s10.307-.911 15-2.571l30-102.429z" fill="#ebebeb"></path><path d="m432.25 247.5v120c0 8.284 6.716 15 15 15s15-6.716 15-15v-60z" fill="#ccc"></path><path d="m402.25 264.124 30 43.376h30v-43.376z" fill="#b3b3b3"></path><path d="m462.25 264.124v-31.624h-45v46.623z" fill="#30b054"></path><path d="m462.25 232.5v-10c0-11.046-8.955-20-20-20h-30l5 45z" fill="#b3b3b3"></path><path d="m432.25 274.123-60-10v43.377h60z" fill="#ccc"></path><path d="m432.25 274.123v-31.623l-60-10v31.623l45 15z" fill="#80bf63"></path><path d="m432.25 242.5v-20c0-11.046-8.955-20-20-20h-20c-11.046 0-20 8.954-20 20v10l45 15z" fill="#ccc"></path><path d="m462.25 127.5c0 24.853-20.147 45-45 45v-90c24.853 0 45 20.147 45 45z" fill="#ffcb63"></path><path d="m417.25 172.5c-24.853 0-45-20.147-45-45s20.147-45 45-45c8.284 0 15 20.147 15 45s-6.716 45-15 45z" fill="#ffe2a8"></path><path d="m417.25 37.5-15 33.75 15 26.25h60c0-33.137-26.863-60-60-60z" fill="#30b054"></path><path d="m357.25 97.5h60v-60c-33.137 0-60 26.863-60 60z" fill="#80bf63"></path><path d="m192.25 112.5v135h60l30-225c-49.626 0-90 40.374-90 90z" fill="#4f4f4f"></path><path d="m94.75 202.5c-33.137 0-60 26.863-60 60v90c16.569 0 30-13.432 30-30l60-120z" fill="#4f4f4f"></path><path d="m79.75 312.5-15 70h45c33.137 0 60-26.863 60-60v-10z" fill="#808080"></path><path d="m282.25 52.5c-33.137 0-60 26.863-60 60v60c0 16.569-13.431 30-30 30h-67.499c-33.137 0-60 26.863-60 60v120c33.137 0 60-26.863 60-60h89.748l.252 45c0 8.284 6.716 15 15 15s15-6.716 15-15v-47.488c4.622 1.604 9.581 2.488 14.748 2.488 5.262 0 10.307-.913 15-2.574l30.251-252.426z" fill="#999"></path><path d="m282.25 112.5h-30v90c0 13.979 9.561 25.725 22.5 29.055v135.945c0 8.284 6.716 15 15 15s15-6.716 15-15v-255z" fill="#808080"></path><path d="m282.25 52.5v-45c-16.569 0-30 13.431-30 30v75c0 16.568 13.432 30 30 30v37.5c0 12.426 10.074 22.5 22.5 22.5 12.427 0 22.5-10.074 22.5-22.5v-127.5z" fill="#999"></path><path d="m479.622 497.385-24.872-8.29v-100.385c8.729-3.096 15-11.433 15-21.21v-145c0-15.163-12.336-27.5-27.5-27.5h-50c-15.164 0-27.5 12.337-27.5 27.5v145c0 9.777 6.271 18.114 15 21.21v100.385l-24.872 8.29c-3.93 1.31-6.053 5.558-4.744 9.487 1.048 3.143 3.974 5.13 7.114 5.13.786 0 1.586-.125 2.373-.387l30-10c3.062-1.021 5.128-3.887 5.128-7.115v-105.79c8.729-3.096 15-11.433 15-21.21v-8.035c4.948.712 10.048.711 15-.001v8.036c0 9.777 6.271 18.114 15 21.21v105.79c0 3.229 2.066 6.095 5.128 7.115l30 10c.787.262 1.586.387 2.373.387 3.14 0 6.066-1.987 7.114-5.13 1.311-3.93-.813-8.178-4.742-9.487zm-24.872-238.668-37.5 12.5-37.5-12.5v-15.812l35.128 11.709c.77.257 1.571.385 2.372.385s1.602-.128 2.372-.385l35.128-11.709zm-75 15.812 35.128 11.709c.77.257 1.571.385 2.372.385s1.602-.128 2.372-.385l35.128-11.709v25.471h-75zm12.5-64.529h50c6.893 0 12.5 5.607 12.5 12.5v4.594l-37.5 12.5-37.5-12.5v-4.594c0-6.893 5.607-12.5 12.5-12.5zm44.331 133.807c-1.283-.908-2.8-1.377-4.331-1.377-.84 0-1.685.142-2.498.429-8.047 2.842-16.966 2.842-25.001 0-2.297-.812-4.843-.459-6.83.947-1.988 1.406-3.17 3.689-3.17 6.124v17.57c0 4.136-3.364 7.5-7.5 7.5s-7.5-3.364-7.5-7.5v-52.5h75v52.5c0 4.136-3.364 7.5-7.5 7.5s-7.5-3.364-7.5-7.5v-17.57c-.001-2.435-1.183-4.718-3.17-6.123z"></path><path d="m357.25 105h12.576c-3.312 6.973-5.076 14.641-5.076 22.5 0 28.948 23.551 52.5 52.5 52.5s52.5-23.552 52.5-52.5c0-7.859-1.764-15.527-5.076-22.5h12.576c4.142 0 7.5-3.357 7.5-7.5 0-37.22-30.28-67.5-67.5-67.5s-67.5 30.28-67.5 67.5c0 4.143 3.358 7.5 7.5 7.5zm97.5 22.5c0 20.678-16.822 37.5-37.5 37.5s-37.5-16.822-37.5-37.5c0-8.157 2.65-16.031 7.511-22.5h59.978c4.861 6.47 7.511 14.343 7.511 22.5zm-37.5-82.5c26.402 0 48.315 19.592 51.966 45h-103.932c3.651-25.408 25.564-45 51.966-45z"></path><path d="m327.25 0c-4.142 0-7.5 3.357-7.5 7.5v37.5h-30v-37.5c0-4.143-3.358-7.5-7.5-7.5-14.763 0-27.555 8.577-33.669 21.008-38.318 14.106-63.831 50.446-63.831 91.492v82.5l-60 .001c-.027 0-30.001 0-30.001 0-37.219 0-67.499 30.28-67.499 67.499v90c0 4.143 3.358 7.5 7.5 7.5 8.436 0 16.228-2.802 22.5-7.521v22.521h-22.5c-4.142 0-7.5 3.357-7.5 7.5v122c0 4.143 3.358 7.5 7.5 7.5s7.5-3.357 7.5-7.5v-114.5h30v114.5c0 4.143 3.358 7.5 7.5 7.5s7.5-3.357 7.5-7.5v-114.5h22.5c34.684 0 63.329-26.298 67.073-60h30.427v37.5c0 9.777 6.271 18.114 15 21.21v115.79c0 4.143 3.358 7.5 7.5 7.5s7.5-3.357 7.5-7.5v-115.79c8.729-3.096 15-11.433 15-21.21v-38.035c4.949.713 10.05.712 15-.001v38.036c0 9.777 6.271 18.114 15 21.21v115.79c0 4.143 3.358 7.5 7.5 7.5s7.5-3.357 7.5-7.5v-115.79c8.729-3.096 15-11.433 15-21.21v-158.449c12.925-3.339 22.5-15.098 22.5-29.051v-172.5c0-4.143-3.358-7.5-7.5-7.5zm-82.5 39.021v17.369c-18.609 12.467-30 33.58-30 56.11v60c0 9.777-6.271 18.114-15 21.21v-81.21c0-31.401 17.65-59.546 45-73.479zm-187.501 283.479c0 9.778-6.269 18.119-14.999 21.215v-81.215c0-23.766 15.879-43.882 37.581-50.327-13.845 12.37-22.581 30.344-22.581 50.327 0 0 0 60-.001 60zm52.501 52.5h-2.637c13.485-10.903 22.71-26.877 24.723-45h29.87c-3.652 25.407-25.554 45-51.956 45zm195-180c-8.271 0-15-6.729-15-15v-37.5c0-4.143-3.358-7.5-7.5-7.5-12.407 0-22.5-10.094-22.5-22.5 0-4.143-3.358-7.5-7.5-7.5s-7.5 3.357-7.5 7.5c0 18.109 12.905 33.262 30 36.747v30.753c0 13.953 9.575 25.712 22.5 29.051v158.449c0 4.136-3.364 7.5-7.5 7.5s-7.5-3.364-7.5-7.5v-47.574c0-2.436-1.183-4.719-3.171-6.125-1.989-1.405-4.537-1.758-6.832-.945-8.04 2.847-16.961 2.844-24.997.003-2.296-.811-4.842-.459-6.83.947s-3.17 3.689-3.17 6.124v47.57c0 4.136-3.364 7.5-7.5 7.5s-7.5-3.364-7.5-7.5v-45c0-4.143-3.358-7.5-7.5-7.5h-90c-4.142 0-7.5 3.357-7.5 7.5 0 26.401-19.593 48.304-45 51.956v-111.956c0-28.939 23.537-52.485 52.473-52.499l67.527-.001c20.678 0 37.5-16.822 37.5-37.5v-60c0-18.669 10.061-36.089 26.257-45.462 2.316-1.341 3.743-3.814 3.743-6.491v-23.047c0-9.778 6.27-18.119 15-21.215v36.215c0 4.143 3.358 7.5 7.5 7.5h37.5v120c0 8.271-6.729 15-15 15z"></path></g></svg>