<svg width="59" height="59" viewBox="0 0 59 59" fill="none" xmlns="http://www.w3.org/2000/svg">
<path d="M41.7917 44.25C42.4436 44.25 43.0689 43.991 43.53 43.53C43.991 43.0689 44.25 42.4436 44.25 41.7916V17.2083C44.25 16.5563 43.991 15.931 43.53 15.47C43.0689 15.009 42.4436 14.75 41.7917 14.75C41.1397 14.75 40.5144 15.009 40.0534 15.47C39.5923 15.931 39.3333 16.5563 39.3333 17.2083V41.7916C39.3333 42.4436 39.5923 43.0689 40.0534 43.53C40.5144 43.991 41.1397 44.25 41.7917 44.25ZM44.25 12.2916H46.7083V14.75C46.7083 15.402 46.9673 16.0273 47.4284 16.4883C47.8894 16.9493 48.5147 17.2083 49.1667 17.2083C49.8186 17.2083 50.4439 16.9493 50.905 16.4883C51.366 16.0273 51.625 15.402 51.625 14.75V12.2916H54.0833C54.7353 12.2916 55.3606 12.0326 55.8216 11.5716C56.2827 11.1106 56.5417 10.4853 56.5417 9.83332C56.5417 9.18133 56.2827 8.55604 55.8216 8.09501C55.3606 7.63399 54.7353 7.37498 54.0833 7.37498H51.625V4.91665C51.625 4.26466 51.366 3.63937 50.905 3.17835C50.4439 2.71732 49.8186 2.45832 49.1667 2.45832C48.5147 2.45832 47.8894 2.71732 47.4284 3.17835C46.9673 3.63937 46.7083 4.26466 46.7083 4.91665V7.37498H44.25C43.598 7.37498 42.9727 7.63399 42.5117 8.09501C42.0507 8.55604 41.7917 9.18133 41.7917 9.83332C41.7917 10.4853 42.0507 11.1106 42.5117 11.5716C42.9727 12.0326 43.598 12.2916 44.25 12.2916ZM53.1 22.125C52.7836 22.1895 52.483 22.3157 52.2154 22.4964C51.9478 22.6771 51.7184 22.9088 51.5403 23.1782C51.3622 23.4475 51.239 23.7494 51.1776 24.0664C51.1162 24.3834 51.1179 24.7094 51.1825 25.0258C52.1423 29.6873 51.5734 34.5341 49.5603 38.8466C47.5471 43.1592 44.197 46.7076 40.0072 48.9652C35.8175 51.2228 31.0114 52.0692 26.3025 51.3788C21.5935 50.6884 17.2327 48.4979 13.8674 45.1326C10.502 41.7673 8.31158 37.4065 7.62115 32.6975C6.93073 27.9886 7.77714 23.1825 10.0347 18.9927C12.2923 14.803 15.8408 11.4529 20.1533 9.4397C24.4659 7.42654 29.3127 6.85765 33.9742 7.81748C34.6261 7.94788 35.3032 7.81394 35.8565 7.44512C36.4097 7.07629 36.7938 6.50281 36.9242 5.85082C37.0546 5.19883 36.9206 4.52174 36.5518 3.96851C36.183 3.41528 35.6095 3.03122 34.9575 2.90082C33.1584 2.56563 31.3295 2.41734 29.5 2.45832C24.1517 2.45832 18.9234 4.04428 14.4764 7.01566C10.0295 9.98704 6.56347 14.2104 4.51675 19.1516C2.47003 24.0928 1.93451 29.53 2.97792 34.7756C4.02133 40.0211 6.5968 44.8395 10.3786 48.6213C14.1605 52.4032 18.9789 54.9786 24.2244 56.022C29.47 57.0655 34.9072 56.5299 39.8484 54.4832C44.7896 52.4365 49.0129 48.9705 51.9843 44.5235C54.9557 40.0765 56.5417 34.8483 56.5417 29.5C56.5469 27.6835 56.3656 25.8712 56.0008 24.0917C55.9419 23.7708 55.8198 23.4649 55.6415 23.1918C55.4632 22.9186 55.2324 22.6837 54.9624 22.5006C54.6924 22.3176 54.3887 22.1901 54.069 22.1256C53.7492 22.0611 53.4198 22.0609 53.1 22.125ZM24.5833 31.9583H27.0417C28.9976 31.9583 30.8735 31.1813 32.2566 29.7982C33.6397 28.4151 34.4167 26.5393 34.4167 24.5833V22.125C34.4167 20.169 33.6397 18.2932 32.2566 16.9101C30.8735 15.527 28.9976 14.75 27.0417 14.75H24.5833C22.6274 14.75 20.7515 15.527 19.3684 16.9101C17.9853 18.2932 17.2083 20.169 17.2083 22.125C17.2083 22.777 17.4673 23.4023 17.9284 23.8633C18.3894 24.3243 19.0147 24.5833 19.6667 24.5833C20.3186 24.5833 20.9439 24.3243 21.405 23.8633C21.866 23.4023 22.125 22.777 22.125 22.125C22.125 21.473 22.384 20.8477 22.845 20.3867C23.306 19.9257 23.9313 19.6667 24.5833 19.6667H27.0417C27.6936 19.6667 28.3189 19.9257 28.78 20.3867C29.241 20.8477 29.5 21.473 29.5 22.125V24.5833C29.5 25.2353 29.241 25.8606 28.78 26.3216C28.3189 26.7826 27.6936 27.0417 27.0417 27.0417H24.5833C22.6274 27.0417 20.7515 27.8187 19.3684 29.2017C17.9853 30.5848 17.2083 32.4607 17.2083 34.4167V41.7916C17.2083 42.4436 17.4673 43.0689 17.9284 43.53C18.3894 43.991 19.0147 44.25 19.6667 44.25H31.9583C32.6103 44.25 33.2356 43.991 33.6966 43.53C34.1577 43.0689 34.4167 42.4436 34.4167 41.7916C34.4167 41.1397 34.1577 40.5144 33.6966 40.0533C33.2356 39.5923 32.6103 39.3333 31.9583 39.3333H22.125V34.4167C22.125 33.7647 22.384 33.1394 22.845 32.6783C23.306 32.2173 23.9313 31.9583 24.5833 31.9583Z" fill="#23327B"/>
</svg>
