<svg width="32" height="32" viewBox="0 0 32 32" fill="none" xmlns="http://www.w3.org/2000/svg">
<g clip-path="url(#clip0_0_51)">
<path d="M16 10.6667C14.5855 10.6667 13.229 11.2287 12.2288 12.2288C11.2286 13.229 10.6667 14.5856 10.6667 16.0001C10.6667 17.4146 11.2286 18.7711 12.2288 19.7713C13.229 20.7715 14.5855 21.3334 16 21.3334C17.4145 21.3334 18.7711 20.7715 19.7713 19.7713C20.7715 18.7711 21.3334 17.4146 21.3334 16.0001C21.3334 14.5856 20.7715 13.229 19.7713 12.2288C18.7711 11.2287 17.4145 10.6667 16 10.6667Z" fill="white"/>
<path fill-rule="evenodd" clip-rule="evenodd" d="M9.6 0C7.05392 0 4.61212 1.01143 2.81178 2.81178C1.01143 4.61212 0 7.05392 0 9.6L0 22.4C0 24.9461 1.01143 27.3879 2.81178 29.1882C4.61212 30.9886 7.05392 32 9.6 32H22.4C24.9461 32 27.3879 30.9886 29.1882 29.1882C30.9886 27.3879 32 24.9461 32 22.4V9.6C32 7.05392 30.9886 4.61212 29.1882 2.81178C27.3879 1.01143 24.9461 0 22.4 0L9.6 0ZM8.53333 16C8.53333 14.0197 9.32 12.1205 10.7203 10.7203C12.1205 9.32 14.0197 8.53333 16 8.53333C17.9803 8.53333 19.8795 9.32 21.2797 10.7203C22.68 12.1205 23.4667 14.0197 23.4667 16C23.4667 17.9803 22.68 19.8795 21.2797 21.2797C19.8795 22.68 17.9803 23.4667 16 23.4667C14.0197 23.4667 12.1205 22.68 10.7203 21.2797C9.32 19.8795 8.53333 17.9803 8.53333 16ZM23.4667 8.53333H25.6V6.4H23.4667V8.53333Z" fill="white"/>
</g>
<defs>
<clipPath id="clip0_0_51">
<rect width="32" height="32" fill="white"/>
</clipPath>
</defs>
</svg>
