<svg width="51" height="51" viewBox="0 0 51 51" fill="none" xmlns="http://www.w3.org/2000/svg">
<path d="M36.125 38.2499C36.6886 38.2499 37.2291 38.026 37.6276 37.6275C38.0261 37.229 38.25 36.6885 38.25 36.1249V14.8749C38.25 14.3113 38.0261 13.7708 37.6276 13.3723C37.2291 12.9738 36.6886 12.7499 36.125 12.7499C35.5614 12.7499 35.0209 12.9738 34.6224 13.3723C34.2239 13.7708 34 14.3113 34 14.8749V36.1249C34 36.6885 34.2239 37.229 34.6224 37.6275C35.0209 38.026 35.5614 38.2499 36.125 38.2499ZM38.25 10.6249H40.375V12.7499C40.375 13.3135 40.5989 13.854 40.9974 14.2525C41.3959 14.651 41.9364 14.8749 42.5 14.8749C43.0636 14.8749 43.6041 14.651 44.0026 14.2525C44.4011 13.854 44.625 13.3135 44.625 12.7499V10.6249H46.75C47.3136 10.6249 47.8541 10.401 48.2526 10.0025C48.6511 9.60398 48.875 9.06348 48.875 8.4999C48.875 7.93631 48.6511 7.39581 48.2526 6.99729C47.8541 6.59878 47.3136 6.3749 46.75 6.3749H44.625V4.2499C44.625 3.68631 44.4011 3.14581 44.0026 2.74729C43.6041 2.34878 43.0636 2.1249 42.5 2.1249C41.9364 2.1249 41.3959 2.34878 40.9974 2.74729C40.5989 3.14581 40.375 3.68631 40.375 4.2499V6.3749H38.25C37.6864 6.3749 37.1459 6.59878 36.7474 6.99729C36.3489 7.39581 36.125 7.93631 36.125 8.4999C36.125 9.06348 36.3489 9.60398 36.7474 10.0025C37.1459 10.401 37.6864 10.6249 38.25 10.6249ZM45.9 19.1249C45.6265 19.1807 45.3667 19.2898 45.1353 19.446C44.904 19.6022 44.7057 19.8024 44.5518 20.0353C44.3979 20.2681 44.2913 20.529 44.2383 20.8031C44.1852 21.0771 44.1866 21.3589 44.2425 21.6324C45.0722 25.6618 44.5804 29.8514 42.8403 33.5792C41.1001 37.307 38.2042 40.3743 34.5826 42.3258C30.9609 44.2773 26.8065 45.0089 22.736 44.4121C18.6656 43.8153 14.8961 41.9219 11.9871 39.0128C9.07805 36.1038 7.1846 32.3343 6.58779 28.2639C5.99098 24.1934 6.72263 20.039 8.67411 16.4174C10.6256 12.7957 13.6929 9.89984 17.4207 8.15965C21.1485 6.41946 25.3381 5.92771 29.3675 6.7574C29.9311 6.87011 30.5164 6.75433 30.9946 6.43552C31.4728 6.11671 31.8048 5.62098 31.9175 5.0574C32.0302 4.49381 31.9144 3.90853 31.5956 3.43031C31.2768 2.9521 30.7811 2.62011 30.2175 2.5074C28.6624 2.21765 27.0815 2.08947 25.5 2.1249C20.8769 2.1249 16.3576 3.49581 12.5136 6.06429C8.66956 8.63277 5.67352 12.2834 3.90433 16.5547C2.13513 20.8259 1.67223 25.5258 2.57415 30.0601C3.47608 34.5944 5.70234 38.7595 8.97139 42.0285C12.2404 45.2976 16.4055 47.5238 20.9398 48.4258C25.4741 49.3277 30.174 48.8648 34.4452 47.0956C38.7165 45.3264 42.3671 42.3303 44.9356 38.4864C47.5041 34.6424 48.875 30.123 48.875 25.4999C48.8795 23.9297 48.7229 22.3631 48.4075 20.8249C48.3566 20.5476 48.251 20.2831 48.0969 20.047C47.9428 19.8109 47.7433 19.6078 47.5099 19.4496C47.2765 19.2914 47.014 19.1812 46.7376 19.1255C46.4612 19.0697 46.1765 19.0695 45.9 19.1249ZM21.25 27.6249H23.375C25.0658 27.6249 26.6873 26.9532 27.8828 25.7577C29.0784 24.5622 29.75 22.9407 29.75 21.2499V19.1249C29.75 17.4341 29.0784 15.8126 27.8828 14.6171C26.6873 13.4215 25.0658 12.7499 23.375 12.7499H21.25C19.5593 12.7499 17.9377 13.4215 16.7422 14.6171C15.5467 15.8126 14.875 17.4341 14.875 19.1249C14.875 19.6885 15.0989 20.229 15.4974 20.6275C15.8959 21.026 16.4364 21.2499 17 21.2499C17.5636 21.2499 18.1041 21.026 18.5026 20.6275C18.9011 20.229 19.125 19.6885 19.125 19.1249C19.125 18.5613 19.3489 18.0208 19.7474 17.6223C20.1459 17.2238 20.6864 16.9999 21.25 16.9999H23.375C23.9386 16.9999 24.4791 17.2238 24.8776 17.6223C25.2761 18.0208 25.5 18.5613 25.5 19.1249V21.2499C25.5 21.8135 25.2761 22.354 24.8776 22.7525C24.4791 23.151 23.9386 23.3749 23.375 23.3749H21.25C19.5593 23.3749 17.9377 24.0465 16.7422 25.2421C15.5467 26.4376 14.875 28.0591 14.875 29.7499V36.1249C14.875 36.6885 15.0989 37.229 15.4974 37.6275C15.8959 38.026 16.4364 38.2499 17 38.2499H27.625C28.1886 38.2499 28.7291 38.026 29.1276 37.6275C29.5261 37.229 29.75 36.6885 29.75 36.1249C29.75 35.5613 29.5261 35.0208 29.1276 34.6223C28.7291 34.2238 28.1886 33.9999 27.625 33.9999H19.125V29.7499C19.125 29.1863 19.3489 28.6458 19.7474 28.2473C20.1459 27.8488 20.6864 27.6249 21.25 27.6249Z" fill="#434650"/>
</svg>
