<svg width="32" height="32" viewBox="0 0 32 32" fill="none" xmlns="http://www.w3.org/2000/svg">
<path d="M16.5 2C9.04463 2 3 8.04463 3 15.5C3 22.9554 9.04463 29 16.5 29C23.9554 29 30 22.9554 30 15.5C30 8.04463 23.9554 2 16.5 2ZM23.1307 11.2486L20.9145 21.6886C20.7514 22.4289 20.3104 22.6089 19.695 22.2601L16.32 19.7739L14.6932 21.3421C14.6135 21.4453 14.5113 21.5289 14.3943 21.5864C14.2773 21.6439 14.1486 21.6739 14.0182 21.674H14.0126L14.2522 18.2383L20.5072 12.5885C20.7773 12.3489 20.4465 12.2128 20.0876 12.4524L12.36 17.3191L9.03 16.2796C8.31 16.0512 8.28975 15.5596 9.18187 15.2064L22.1936 10.1911C22.7989 9.97062 23.3254 10.3351 23.1296 11.2498L23.1307 11.2486Z" fill="#315CBD"/>
</svg>
