<svg viewBox="0 0 256 256" xmlns="http://www.w3.org/2000/svg"><path d="M191.116 17.524c-4.057-2.783-22.05 6.933-26.997 14.144-4.947 7.212-3.691 16.67 2.805 21.125s15.771 2.221 20.718-4.991c4.946-7.211 7.014-27.85 3.474-30.278z" fill="#87796f"/><path d="M191.964 16.287c-5.306-3.643-24.293 7.55-29.083 14.533-5.407 7.882-3.974 18.294 3.193 23.211 2.466 1.691 5.336 2.561 8.334 2.561a16.28 16.28 0 0 0 3.806-.459c4.275-1.03 8.062-3.687 10.664-7.48 2.853-4.16 4.544-11.83 5.174-17.62.406-3.726 1.014-12.619-2.088-14.746zm-.894 14.42c-.742 6.82-2.573 13.198-4.665 16.247-2.182 3.182-5.34 5.405-8.893 6.261-3.494.841-6.954.253-9.74-1.659-5.804-3.981-6.888-12.522-2.417-19.04 4.638-6.761 18.999-14.021 23.736-14.021.513 0 .913.085 1.176.265.683.469 1.619 4.453.803 11.947z" fill="#3a312a"/><path d="M209.375 43.442c-5.03-9.951-15.91-17.086-27.293-15.134-11.482 1.969-17.666 10.8-18.582 20.551-.708 7.538 1.733 15.626 7.309 21.521 10.875 11.498 27.965 18.196 43.684 17.205 5.244-.331 23.236-1.985 25.722-8.323.879-2.239-17.488-9.403-30.84-35.82z" fill="#f16c7a"/><path d="M237.435 74.384c-5.68-4.34-17.498-13.372-26.721-31.618-5.721-11.318-17.598-17.871-28.885-15.936-11.138 1.91-18.733 10.297-19.822 21.89-.777 8.282 2.106 16.765 7.713 22.692 10.396 10.992 26.473 17.77 41.715 17.77 1.055 0 2.108-.033 3.153-.099 7.21-.455 24.276-2.268 27.024-9.272.674-1.72-.846-2.882-4.177-5.427zm-23.037 11.705c-15.293.967-31.971-5.608-42.5-16.739-5.021-5.309-7.602-12.916-6.905-20.35.749-7.979 5.698-17.216 17.341-19.213 10.004-1.711 20.569 4.18 25.701 14.332 9.533 18.86 21.72 28.173 27.577 32.648 1.208.923 2.45 1.872 2.978 2.411-2.287 3.86-13.621 6.244-24.192 6.911z" fill="#3a312a"/><path d="M46.667 26.713c-.974 11.564-13.024 13.389-13.024 13.389 10.347.487 12.925 14.059 12.925 14.059.221-9.677 13.321-14.202 13.321-14.202-9.814-.587-13.222-13.246-13.222-13.246z" fill="#d6df58"/><path d="M59.979 38.461c-8.606-.515-11.833-12.024-11.864-12.141a1.5 1.5 0 0 0-2.942.265C44.313 36.8 33.86 38.549 33.419 38.618a1.5 1.5 0 0 0 .155 2.982c9.026.425 11.496 12.719 11.52 12.843a1.5 1.5 0 0 0 2.973-.247c.195-8.509 12.192-12.777 12.313-12.819a1.502 1.502 0 0 0-.401-2.916zM46.412 48.807c-1.356-3.13-3.709-6.907-7.587-8.876 2.931-1.405 6.409-3.913 8.202-8.273 1.551 3.071 4.2 6.88 8.334 8.722-3.007 1.641-6.923 4.406-8.949 8.427z" fill="#3a312a"/><path d="M24.968 43.693c-.689 8.179-9.212 9.471-9.212 9.471 7.318.344 9.142 9.944 9.142 9.944.156-6.844 9.422-10.045 9.422-10.045-6.941-.416-9.352-9.37-9.352-9.37z" fill="#d6df58"/><path d="M34.41 51.565c-5.766-.345-7.973-8.185-7.994-8.265a1.5 1.5 0 0 0-2.942.266c-.579 6.871-7.646 8.067-7.942 8.114a1.5 1.5 0 0 0 .155 2.981c6.035.284 7.723 8.644 7.739 8.726a1.5 1.5 0 0 0 2.973-.246c.13-5.709 8.332-8.634 8.413-8.662a1.5 1.5 0 0 0-.402-2.914zm-9.585 6.795c-.924-1.885-2.34-3.947-4.447-5.28 1.856-1.041 3.697-2.63 4.871-4.916 1.057 1.873 2.654 3.954 4.941 5.223-1.85 1.101-3.989 2.74-5.365 4.973z" fill="#3a312a"/><path d="M24.93 17.036c-.657 8.182-9.175 9.507-9.175 9.507 7.32.316 9.181 9.909 9.181 9.909.13-6.845 9.383-10.082 9.383-10.082-6.943-.39-9.389-9.334-9.389-9.334z" fill="#d6df58"/><path d="M34.402 24.871c-5.767-.323-8.004-8.154-8.025-8.233a1.5 1.5 0 0 0-2.941.278c-.552 6.873-7.615 8.097-7.911 8.145a1.5 1.5 0 0 0 .166 2.981c6.036.261 7.756 8.614 7.773 8.695a1.5 1.5 0 0 0 2.972-.257c.108-5.709 8.298-8.666 8.378-8.694a1.5 1.5 0 0 0-.412-2.915zm-9.558 6.832c-.931-1.882-2.355-3.938-4.468-5.262 1.852-1.048 3.687-2.644 4.852-4.935 1.064 1.87 2.669 3.944 4.961 5.205-1.845 1.107-3.978 2.754-5.345 4.992z" fill="#3a312a"/><path d="M160.794 27.227c-18.103-5.593-38.693.418-55.512 7.524-14.709 6.21-28.094 15.147-39.549 26.263-12.91 12.548-30.097 30.232-40.583 75.938l-2.838 14.037c-4.026 22.733-6.532 51.387-6.557 87.976h19.904c.08-120.09 28.423-149.797 47.202-168.029 10.808-10.509 23.447-18.939 37.34-24.8 15.883-6.708 35.319-12.39 52.417-7.116a23.705 23.705 0 0 1 5.633 2.597c-4.499-6.29-9.774-12.012-17.457-14.39z" fill="#f8e4c8"/><path d="M179.47 40.745c-4.228-5.911-9.699-12.31-18.233-14.951-15.006-4.635-33.499-2.159-56.538 7.575C89.861 39.632 76.4 48.571 64.688 59.938c-11.997 11.66-30.126 29.281-41 76.679a1.499 1.499 0 1 0 2.923.67C37.288 90.753 55.035 73.503 66.778 62.09c11.443-11.105 24.595-19.839 39.089-25.958 22.359-9.447 40.182-11.892 54.484-7.472 5.435 1.682 9.558 5.152 12.898 8.986l-.19-.06c-14.182-4.374-31.663-2.031-53.442 7.167-14.046 5.926-26.764 14.373-37.802 25.106-17.721 17.205-47.333 45.957-47.655 167.605H17.257c.087-33.221 2.283-62.222 6.532-86.214a1.501 1.501 0 0 0-2.954-.524c-4.343 24.525-6.557 54.212-6.58 88.236a1.5 1.5 0 0 0 1.5 1.501h19.904a1.5 1.5 0 0 0 1.5-1.499c.08-121.646 29.293-150.007 46.748-166.953 10.77-10.472 23.177-18.713 36.878-24.494 21.102-8.912 37.912-11.224 51.388-7.065a22.026 22.026 0 0 1 5.278 2.434 1.5 1.5 0 0 0 2.019-2.141z" fill="#3a312a"/><path d="m230.909 116.038-24.258-36.882c-1.742-2.657-3.493-5.304-5.235-7.952-2.787-4.25-2.707-9.723.07-13.973 5.055-7.703 9.116-18.63 7.205-21.148-2.986-3.911-23.109-.318-30.075 4.976-.189.149-.358.309-.547.458a24.098 24.098 0 0 0-5.454-2.498c-17.098-5.275-36.534.408-52.417 7.116-13.893 5.862-26.532 14.291-37.34 24.8-18.778 18.232-47.122 47.939-47.201 168.029h144.632c-5.882-23.984-33.379-63.294-33.379-98.136 0-7.225 1.194-14.331 3.135-21.237 2.01-7.126 11.037-9.355 16.252-4.11l32.272 27.632a12.35 12.35 0 0 0 15.624.36l13.992-10.904a12.354 12.354 0 0 0 2.724-16.531z" fill="#87796f"/><path d="m232.162 115.214-24.256-36.88c-1.082-1.651-2.168-3.298-3.253-4.944l-1.981-3.008c-2.43-3.705-2.402-8.544.069-12.327 4.645-7.078 9.863-19.298 7.144-22.881-3.85-5.045-24.927-.539-31.949 4.525a25.067 25.067 0 0 0-4.877-2.112c-14.182-4.375-31.663-2.031-53.442 7.167-14.046 5.926-26.764 14.373-37.802 25.106-17.795 17.275-47.577 46.188-47.658 169.103a1.5 1.5 0 0 0 1.5 1.501h64.9a1.5 1.5 0 1 0 0-3H37.159c.32-120.373 29.363-148.578 46.746-165.454 10.77-10.472 23.177-18.713 36.877-24.494 21.102-8.912 37.912-11.222 51.387-7.065a22.473 22.473 0 0 1 5.116 2.345 1.498 1.498 0 0 0 1.714-.102c.111-.087.216-.177.32-.268.074-.064.148-.128.205-.173 7.231-5.497 25.999-7.847 27.972-5.263.98 1.292-1.473 10.593-7.266 19.42-3.125 4.783-3.152 10.913-.067 15.617l1.984 3.012c1.083 1.644 2.168 3.289 3.25 4.939l24.258 36.882c3.086 4.692 2.035 11.071-2.394 14.523l-13.992 10.904c-4.052 3.158-9.825 3.025-13.727-.316l-32.228-27.594c-2.855-2.84-6.887-3.932-10.802-2.914-3.875 1.005-6.833 3.891-7.913 7.72-2.148 7.642-3.191 14.721-3.191 21.643 0 22.521 11.11 46.431 20.912 67.526 4.973 10.703 9.69 20.854 12.019 29.11h-64.014a1.5 1.5 0 1 0 0 3h65.961a1.5 1.5 0 0 0 1.457-1.857c-2.171-8.851-7.287-19.861-12.703-31.517-9.671-20.813-20.633-44.403-20.633-66.262 0-6.644 1.007-13.458 3.079-20.83.787-2.79 2.947-4.895 5.779-5.629 2.89-.75 5.868.06 7.965 2.169.028.028.058.056.088.082l32.272 27.631c4.981 4.265 12.35 4.436 17.522.404l13.992-10.904c5.655-4.404 6.998-12.547 3.058-18.535z" fill="#3a312a"/><circle cx="185.472" cy="77.755" fill="#3a312a" transform="rotate(-84.32 185.543 77.744)" r="5.107"/><path d="M175.265 86.362c-4.859 0-8.798 2.945-8.798 6.577s3.939 6.577 8.798 6.577 8.798-2.945 8.798-6.577-3.939-6.577-8.798-6.577z" fill="#f59689"/><g fill="#695b51"><path d="m229.652 116.864-24.25-36.88c-1.09-1.66-2.17-3.3-3.25-4.94l-1.99-3.02c-3.08-4.7-3.06-10.83.07-15.61 5.79-8.83 8.24-18.13 7.26-19.42-1.15-1.51-7.98-1.34-14.92.15.74 1.75-1.74 10.73-7.34 19.27-3.13 4.78-3.15 10.91-.07 15.61l.41.63a5.103 5.103 0 0 1 4.63 7.03c.07.1.13.2.2.3l24.25 36.88c3.09 4.69 2.04 11.07-2.39 14.52l-13.13 10.24.41.35c3.9 3.34 9.67 3.47 13.73.32l13.99-10.91c4.43-3.45 5.48-9.83 2.39-14.52zM166.322 208.354c-9.8-21.1-20.91-45-20.91-67.53 0-6.92 1.04-14 3.19-21.64.54-1.92 1.55-3.59 2.91-4.92.11-.11.23-.22.35-.32-2.81-2.52-6.63-3.45-10.35-2.48-1.93.5-3.64 1.48-5 2.8-1.36 1.33-2.37 3-2.91 4.92-2.15 7.64-3.19 14.72-3.19 21.64 0 22.53 11.11 46.43 20.91 67.53 4.97 10.7 9.69 20.85 12.02 29.11h15c-2.33-8.26-7.05-18.41-12.02-29.11z"/></g></svg>