<svg width="72" height="72" viewBox="0 0 72 72" fill="none" xmlns="http://www.w3.org/2000/svg">
<path d="M51 53.9999C51.7957 53.9999 52.5587 53.6839 53.1213 53.1213C53.684 52.5587 54 51.7956 54 50.9999V20.9999C54 20.2043 53.684 19.4412 53.1213 18.8786C52.5587 18.316 51.7957 17.9999 51 17.9999C50.2044 17.9999 49.4413 18.316 48.8787 18.8786C48.3161 19.4412 48 20.2043 48 20.9999V50.9999C48 51.7956 48.3161 52.5587 48.8787 53.1213C49.4413 53.6839 50.2044 53.9999 51 53.9999ZM54 14.9999H57V17.9999C57 18.7956 57.3161 19.5587 57.8787 20.1213C58.4413 20.6839 59.2044 20.9999 60 20.9999C60.7957 20.9999 61.5587 20.6839 62.1213 20.1213C62.684 19.5587 63 18.7956 63 17.9999V14.9999H66C66.7957 14.9999 67.5587 14.6839 68.1213 14.1213C68.684 13.5587 69 12.7956 69 11.9999C69 11.2043 68.684 10.4412 68.1213 9.87862C67.5587 9.31602 66.7957 8.99995 66 8.99995H63V5.99995C63 5.2043 62.684 4.44123 62.1213 3.87862C61.5587 3.31602 60.7957 2.99995 60 2.99995C59.2044 2.99995 58.4413 3.31602 57.8787 3.87862C57.3161 4.44123 57 5.2043 57 5.99995V8.99995H54C53.2044 8.99995 52.4413 9.31602 51.8787 9.87862C51.3161 10.4412 51 11.2043 51 11.9999C51 12.7956 51.3161 13.5587 51.8787 14.1213C52.4413 14.6839 53.2044 14.9999 54 14.9999ZM64.8 26.9999C64.4139 27.0787 64.0471 27.2327 63.7205 27.4532C63.3939 27.6737 63.114 27.9564 62.8967 28.2852C62.6794 28.6139 62.5289 28.9822 62.454 29.3691C62.3791 29.756 62.3811 30.1539 62.46 30.5399C63.6313 36.2286 62.9371 42.1432 60.4804 47.406C58.0236 52.6688 53.9354 56.9991 48.8224 59.7541C43.7095 62.5092 37.8445 63.5421 32.0979 62.6995C26.3514 61.857 21.0298 59.1839 16.9229 55.077C12.8161 50.9702 10.143 45.6485 9.30042 39.902C8.45786 34.1555 9.49077 28.2905 12.2458 23.1775C15.0009 18.0646 19.3312 13.9763 24.5939 11.5196C29.8567 9.06286 35.7714 8.36863 41.46 9.53995C42.2557 9.69908 43.0819 9.53562 43.7571 9.08553C44.4322 8.63544 44.9009 7.9356 45.06 7.13995C45.2192 6.3443 45.0557 5.51802 44.6056 4.84289C44.1555 4.16776 43.4557 3.69908 42.66 3.53995C40.4646 3.1309 38.2327 2.94994 36 2.99995C29.4732 2.99995 23.093 4.93536 17.6662 8.56145C12.2394 12.1875 8.00968 17.3414 5.51199 23.3714C3.0143 29.4014 2.36079 36.0366 3.6341 42.4379C4.90741 48.8393 8.05036 54.7193 12.6655 59.3345C17.2806 63.9496 23.1607 67.0925 29.562 68.3659C35.9634 69.6392 42.5986 68.9857 48.6286 66.488C54.6585 63.9903 59.8124 59.7606 63.4385 54.3338C67.0646 48.9069 69 42.5267 69 35.9999C69.0064 33.7832 68.7852 31.5716 68.34 29.3999C68.2682 29.0084 68.1191 28.6351 67.9016 28.3018C67.684 27.9685 67.4023 27.6817 67.0728 27.4584C66.7433 27.235 66.3727 27.0794 65.9825 27.0007C65.5923 26.922 65.1903 26.9218 64.8 26.9999ZM30 38.9999H33C35.387 38.9999 37.6762 38.0517 39.364 36.3639C41.0518 34.6761 42 32.3869 42 29.9999V26.9999C42 24.613 41.0518 22.3238 39.364 20.636C37.6762 18.9482 35.387 17.9999 33 17.9999H30C27.6131 17.9999 25.3239 18.9482 23.6361 20.636C21.9482 22.3238 21 24.613 21 26.9999C21 27.7956 21.3161 28.5587 21.8787 29.1213C22.4413 29.6839 23.2044 29.9999 24 29.9999C24.7957 29.9999 25.5587 29.6839 26.1213 29.1213C26.6839 28.5587 27 27.7956 27 26.9999C27 26.2043 27.3161 25.4412 27.8787 24.8786C28.4413 24.316 29.2044 23.9999 30 23.9999H33C33.7957 23.9999 34.5587 24.316 35.1213 24.8786C35.6839 25.4412 36 26.2043 36 26.9999V29.9999C36 30.7956 35.6839 31.5587 35.1213 32.1213C34.5587 32.6839 33.7957 32.9999 33 32.9999H30C27.6131 32.9999 25.3239 33.9482 23.6361 35.636C21.9482 37.3238 21 39.613 21 41.9999V50.9999C21 51.7956 21.3161 52.5587 21.8787 53.1213C22.4413 53.6839 23.2044 53.9999 24 53.9999H39C39.7957 53.9999 40.5587 53.6839 41.1213 53.1213C41.6839 52.5587 42 51.7956 42 50.9999C42 50.2043 41.6839 49.4412 41.1213 48.8786C40.5587 48.316 39.7957 47.9999 39 47.9999H27V41.9999C27 41.2043 27.3161 40.4412 27.8787 39.8786C28.4413 39.316 29.2044 38.9999 30 38.9999Z" fill="white"/>
</svg>
