<svg width="24" height="25" viewBox="0 0 24 25" fill="none" xmlns="http://www.w3.org/2000/svg">
<g clip-path="url(#clip0_6_954)">
<path d="M12 0.5C7.00356 0.5 2.95312 4.55042 2.95312 9.54688C2.95312 11.2178 3.28018 12.9436 4.21874 14.1875L12 24.5L19.7812 14.1875C20.6337 13.0577 21.0469 11.0604 21.0469 9.54688C21.0469 4.55042 16.9964 0.5 12 0.5ZM12 5.73974C14.1023 5.73974 15.8071 7.44456 15.8071 9.54686C15.8071 11.6492 14.1023 13.354 12 13.354C9.89768 13.354 8.19288 11.6492 8.19288 9.54688C8.19288 7.44456 9.89768 5.73974 12 5.73974Z" fill="black"/>
</g>
<defs>
<clipPath id="clip0_6_954">
<rect width="24" height="24" fill="white" transform="translate(0 0.5)"/>
</clipPath>
</defs>
</svg>
