<svg width="48" height="48" viewBox="0 0 48 48" fill="none" xmlns="http://www.w3.org/2000/svg">
<g clip-path="url(#clip0_3_121)">
<path d="M13 23.234H35.5" stroke="#022741" stroke-width="1.5" stroke-linecap="round" stroke-linejoin="round"/>
<path d="M34 23.234H14.5C14.4997 25.0207 14.9908 26.7731 15.9195 28.2994C16.8483 29.8257 18.179 31.0672 19.766 31.888C19.8574 31.9365 19.9378 32.0033 20.0022 32.0843C20.0666 32.1652 20.1136 32.2586 20.1402 32.3586C20.1669 32.4585 20.1726 32.5629 20.1571 32.6652C20.1416 32.7675 20.1051 32.8655 20.05 32.953C19.8067 33.3456 19.5903 33.7542 19.402 34.176C19.3504 34.2906 19.3284 34.4164 19.3381 34.5417C19.3477 34.6671 19.3887 34.788 19.4574 34.8933C19.526 34.9987 19.6199 35.0851 19.7307 35.1446C19.8414 35.2041 19.9653 35.2349 20.091 35.234H28.409C28.5342 35.2338 28.6573 35.2023 28.7672 35.1423C28.8771 35.0824 28.9703 34.9959 29.0383 34.8907C29.1063 34.7856 29.1469 34.6652 29.1564 34.5403C29.166 34.4155 29.1442 34.2903 29.093 34.176C28.9047 33.7542 28.6883 33.3456 28.445 32.953C28.3901 32.865 28.3539 32.7666 28.3388 32.664C28.3237 32.5614 28.33 32.4568 28.3572 32.3567C28.3844 32.2566 28.4321 32.1632 28.4971 32.0824C28.5621 32.0016 28.6431 31.9351 28.735 31.887C30.3217 31.0661 31.652 29.8248 32.5806 28.2986C33.5092 26.7725 34.0002 25.0204 34 23.234Z" stroke="#022741" stroke-width="1.5" stroke-linecap="round" stroke-linejoin="round"/>
<path d="M26.5 20.2339L30.457 13.6389C30.6111 13.3822 30.8482 13.1857 31.1291 13.0818C31.41 12.978 31.7179 12.9731 32.002 13.0679C32.1661 13.1226 32.3178 13.2091 32.4484 13.3224C32.579 13.4358 32.6861 13.5738 32.7633 13.7285C32.8406 13.8832 32.8866 14.0517 32.8987 14.2242C32.9109 14.3967 32.8889 14.5699 32.834 14.7339L31 20.2339" stroke="#022741" stroke-width="1.5" stroke-linecap="round" stroke-linejoin="round"/>
</g>
<defs>
<clipPath id="clip0_3_121">
<rect width="48" height="48" fill="white"/>
</clipPath>
</defs>
</svg>
