<svg width="56" height="56" viewBox="0 0 56 56" fill="none" xmlns="http://www.w3.org/2000/svg">
<g clip-path="url(#clip0_3_129)">
<mask id="mask0_3_129" style="mask-type:luminance" maskUnits="userSpaceOnUse" x="4" y="4" width="48" height="48">
<path d="M52 4H4V52H52V4Z" fill="white"/>
</mask>
<g mask="url(#mask0_3_129)">
<path d="M49.051 33.9331H6.94897V35.2261H49.051V33.9331Z" fill="#022741"/>
<path d="M49.051 24.0641H37.21V25.3571H49.051V24.0641Z" fill="#022741"/>
<path d="M24.053 24.0641H6.94897V25.3571H24.053V24.0641Z" fill="#022741"/>
<path d="M18.791 37.879H12.87V39.172H18.791V37.879Z" fill="#022741"/>
<path d="M32.605 40.5111H19.448V41.8041H32.605V40.5111Z" fill="#022741"/>
<path d="M19.449 43.1421H16.159V44.4351H19.449V43.1421Z" fill="#022741"/>
<path d="M47.077 40.5111H43.13V41.8041H47.077V40.5111Z" fill="#022741"/>
<path d="M44.447 37.2211H34.579V38.5141H44.447V37.2211Z" fill="#022741"/>
<path d="M8.92297 41.1691H6.94897V42.4621H8.92297V41.1691Z" fill="#022741"/>
<path d="M40.499 43.1421H38.525V44.4351H40.499V43.1421Z" fill="#022741"/>
<path d="M33.909 20.764H32.616V23.395H33.909V20.764Z" fill="#022741"/>
<path d="M26.015 30.6211H35.247V33.2631H36.54V16.1591C36.54 15.2838 36.8877 14.4445 37.5065 13.8256C38.1254 13.2067 38.9648 12.8591 39.84 12.8591C40.7152 12.8591 41.5546 13.2067 42.1734 13.8256C42.7923 14.4445 43.14 15.2838 43.14 16.1591V23.3951H44.433V16.1591C44.433 14.9407 43.949 13.7722 43.0874 12.9106C42.2259 12.0491 41.0574 11.5651 39.839 11.5651C38.6206 11.5651 37.4521 12.0491 36.5905 12.9106C35.729 13.7722 35.245 14.9407 35.245 16.1591V18.8031H26.015V16.1591C26.015 15.7257 26.1003 15.2966 26.2662 14.8962C26.432 14.4958 26.6751 14.132 26.9815 13.8256C27.288 13.5192 27.6517 13.2761 28.0521 13.1103C28.4525 12.9444 28.8816 12.8591 29.315 12.8591C29.7483 12.8591 30.1775 12.9444 30.5778 13.1103C30.9782 13.2761 31.342 13.5192 31.6484 13.8256C31.9549 14.132 32.1979 14.4958 32.3638 14.8962C32.5296 15.2966 32.615 15.7257 32.615 16.1591V18.1331H33.909V16.1591C33.909 14.9407 33.425 13.7722 32.5634 12.9106C31.7019 12.0491 30.5334 11.5651 29.315 11.5651C28.0966 11.5651 26.9281 12.0491 26.0665 12.9106C25.205 13.7722 24.721 14.9407 24.721 16.1591V33.2591H26.014L26.015 30.6211ZM26.015 20.0961H35.247V24.0651H26.015V20.0961ZM26.015 25.3591H35.247V29.3281H26.015V25.3591Z" fill="#022741"/>
</g>
</g>
<defs>
<clipPath id="clip0_3_129">
<rect width="56" height="56" fill="white"/>
</clipPath>
</defs>
</svg>
