<svg width="56" height="56" viewBox="0 0 56 56" fill="none" xmlns="http://www.w3.org/2000/svg">
<g clip-path="url(#clip0_3_163)">
<path d="M34.135 51.235C34.4273 51.2354 34.7161 51.172 34.9814 51.0493C35.2468 50.9267 35.4821 50.7476 35.6712 50.5247C35.8602 50.3018 35.9984 50.0403 36.0761 49.7585C36.1538 49.4767 36.1691 49.1814 36.121 48.893C35.5272 45.6 33.7953 42.6202 31.2279 40.4743C28.6604 38.3283 25.4206 37.1527 22.0745 37.1527C18.7283 37.1527 15.4885 38.3283 12.9211 40.4743C10.3536 42.6202 8.62173 45.6 8.02797 48.893C7.97971 49.1812 7.99486 49.4765 8.07236 49.7582C8.14986 50.0399 8.28784 50.3013 8.4767 50.5243C8.66557 50.7472 8.90076 50.9263 9.16591 51.049C9.43106 51.1718 9.7198 51.2353 10.012 51.235H34.135Z" stroke="#022741" stroke-width="1.5" stroke-linecap="round" stroke-linejoin="round"/>
<path d="M24.593 5C24.516 5.65381 24.6764 6.31352 25.045 6.85901L30.237 14.743L22.799 24.243C22.3077 24.8761 22.0875 25.6782 22.1867 26.4734C22.2858 27.2685 22.6963 27.9919 23.328 28.485C23.9522 28.9733 24.7442 29.1948 25.5311 29.1011C26.318 29.0074 27.0359 28.6062 27.528 27.985L41.175 10.544C40.524 17.899 41.694 19.865 43.275 21.104C44.856 22.343 46.491 20.264 46.628 18.604L47.649 5.004" stroke="#022741" stroke-width="1.5" stroke-linecap="round" stroke-linejoin="round"/>
<path d="M22.071 37.1629V33.1429" stroke="#022741" stroke-width="1.5" stroke-linecap="round" stroke-linejoin="round"/>
<path d="M27.097 33.1429H17.046" stroke="#022741" stroke-width="1.5" stroke-linecap="round" stroke-linejoin="round"/>
</g>
<defs>
<clipPath id="clip0_3_163">
<rect width="56" height="56" fill="white"/>
</clipPath>
</defs>
</svg>
