<svg width="56" height="56" viewBox="0 0 56 56" fill="none" xmlns="http://www.w3.org/2000/svg">
<g clip-path="url(#clip0_3_277)">
<path d="M31.384 31.4831C32.145 33.4991 32.1885 35.7158 31.5074 37.7602C30.8263 39.8046 29.462 41.5522 27.644 42.7091C25.7913 43.9152 23.6002 44.4941 21.3935 44.3605C19.1869 44.2269 17.0816 43.3879 15.388 41.9671C13.7343 40.5906 12.6077 38.6844 12.1995 36.5719C11.7912 34.4593 12.1263 32.2706 13.148 30.377C14.2226 28.4571 15.8931 26.9391 17.9068 26.0526C19.9206 25.166 22.1682 24.9591 24.31 25.4631" stroke="#022741" stroke-width="1.5" stroke-linecap="round" stroke-linejoin="round"/>
<path d="M25.846 38.67C24.9257 36.6435 24.7563 34.3557 25.3683 32.2159C25.9802 30.076 27.3335 28.2236 29.186 26.99C31.073 25.706 33.3323 25.0835 35.6106 25.2199C37.8889 25.3563 40.0578 26.244 41.778 27.744C43.4575 29.1998 44.5617 31.2076 44.8918 33.4056C45.2218 35.6036 44.7559 37.8471 43.578 39.732C42.3467 41.6461 40.5105 43.0934 38.3618 43.8436C36.213 44.5938 33.8751 44.6038 31.72 43.872" stroke="#022741" stroke-width="1.5" stroke-linecap="round" stroke-linejoin="round"/>
<path d="M32.995 25.392L30.077 22.936C29.97 22.8483 29.8839 22.738 29.8247 22.613C29.7656 22.488 29.7349 22.3513 29.7349 22.213C29.7349 22.0747 29.7656 21.9381 29.8247 21.8131C29.8839 21.6881 29.97 21.5778 30.077 21.4901L32.237 19.678C32.4214 19.5235 32.6545 19.4393 32.895 19.4401H37.095C37.3355 19.4393 37.5686 19.5235 37.753 19.678L39.913 21.4901C40.02 21.5778 40.1061 21.6881 40.1653 21.8131C40.2244 21.9381 40.2551 22.0747 40.2551 22.213C40.2551 22.3513 40.2244 22.488 40.1653 22.613C40.1061 22.738 40.02 22.8483 39.913 22.936L36.995 25.392" stroke="#022741" stroke-width="1.5" stroke-linecap="round" stroke-linejoin="round"/>
<path d="M7 50.1601V20.5541C7.00164 20.2683 7.07412 19.9873 7.21094 19.7363C7.34776 19.4854 7.54464 19.2723 7.784 19.1161L26.958 6.31604C27.2676 6.11299 27.6298 6.00488 28 6.00488C28.3703 6.00488 28.7324 6.11299 29.042 6.31604L48.216 19.1161C48.4553 19.2723 48.6523 19.4854 48.7891 19.7363C48.9259 19.9873 48.9984 20.2683 49 20.5541V50.1601" stroke="#022741" stroke-width="1.5" stroke-linecap="round" stroke-linejoin="round"/>
<path d="M5 50.1631H51" stroke="#022741" stroke-width="1.5" stroke-linecap="round" stroke-linejoin="round"/>
</g>
<defs>
<clipPath id="clip0_3_277">
<rect width="56" height="56" fill="white"/>
</clipPath>
</defs>
</svg>
