<svg width="56" height="56" viewBox="0 0 56 56" fill="none" xmlns="http://www.w3.org/2000/svg">
<g clip-path="url(#clip0_3_261)">
<mask id="mask0_3_261" style="mask-type:luminance" maskUnits="userSpaceOnUse" x="4" y="4" width="48" height="48">
<path d="M52 4H4V52H52V4Z" fill="white"/>
</mask>
<g mask="url(#mask0_3_261)">
<path d="M16.248 5.87805H14.865V16.2481H16.248V5.87805Z" fill="#022741"/>
<path d="M19.038 5.87805H17.655V16.2481H19.038V5.87805Z" fill="#022741"/>
<path d="M20.395 19.7051C20.4028 20.1639 20.3192 20.6197 20.149 21.0459C19.9788 21.4721 19.7254 21.8602 19.4037 22.1874C19.0819 22.5147 18.6982 22.7746 18.275 22.952C17.8518 23.1295 17.3974 23.2208 16.9385 23.2208C16.4796 23.2208 16.0252 23.1295 15.602 22.952C15.1788 22.7746 14.7951 22.5147 14.4733 22.1874C14.1516 21.8602 13.8982 21.4721 13.728 21.0459C13.5578 20.6197 13.4742 20.1639 13.482 19.7051V5.87805H12.099V19.7051C12.1006 20.8685 12.5208 21.9926 13.2827 22.8719C14.0447 23.7512 15.0976 24.3269 16.249 24.4941V50.1231H17.632V24.4941C18.7831 24.3265 19.8355 23.7505 20.597 22.8713C21.3586 21.9921 21.7784 20.8682 21.78 19.7051V5.87805H20.395V19.7051Z" fill="#022741"/>
<path d="M30.073 5.87805C28.7901 5.87964 27.5602 6.38997 26.6531 7.29712C25.7459 8.20426 25.2356 9.43416 25.234 10.7171V19.7041C25.2356 20.8712 25.6584 21.9985 26.4247 22.8789C27.191 23.7593 28.2492 24.3335 29.405 24.4961V50.1231H30.788V24.4911C31.9343 24.3184 32.9807 23.7406 33.7375 22.8625C34.4943 21.9845 34.9114 20.8643 34.913 19.7051V10.7171C34.9114 9.43398 34.401 8.20394 33.4936 7.29676C32.5862 6.38959 31.3561 5.87937 30.073 5.87805ZM33.534 19.7051C33.5418 20.1639 33.4582 20.6197 33.288 21.0459C33.1178 21.4721 32.8644 21.8602 32.5427 22.1874C32.2209 22.5147 31.8373 22.7746 31.414 22.952C30.9908 23.1295 30.5364 23.2208 30.0775 23.2208C29.6186 23.2208 29.1642 23.1295 28.741 22.952C28.3178 22.7746 27.9341 22.5147 27.6123 22.1874C27.2906 21.8602 27.0372 21.4721 26.867 21.0459C26.6968 20.6197 26.6132 20.1639 26.621 19.7051V10.7171C26.6364 9.81051 27.0074 8.94632 27.6539 8.31068C28.3005 7.67504 29.1708 7.31885 30.0775 7.31885C30.9842 7.31885 31.8546 7.67504 32.5011 8.31068C33.1476 8.94632 33.5186 9.81051 33.534 10.7171V19.7051Z" fill="#022741"/>
<path d="M31.457 19.7051C31.4567 20.0718 31.3109 20.4234 31.0516 20.6827C30.7923 20.942 30.4407 21.0878 30.074 21.0881V22.4711C30.8071 22.4703 31.5099 22.1787 32.0283 21.6604C32.5466 21.142 32.8382 20.4392 32.839 19.7061V17.6311H31.457V19.7051Z" fill="#022741"/>
<path d="M39.061 5.87805H38.37V50.1231H39.753V7.33005C40.5334 7.49017 41.2348 7.91449 41.7388 8.53147C42.2429 9.14845 42.5188 9.92036 42.52 10.7171V28.6921H40.444V30.0781H43.901V10.7171C43.8994 9.43398 43.3889 8.20394 42.4816 7.29676C41.5742 6.38959 40.3441 5.87937 39.061 5.87805Z" fill="#022741"/>
</g>
</g>
<defs>
<clipPath id="clip0_3_261">
<rect width="56" height="56" fill="white"/>
</clipPath>
</defs>
</svg>
