<svg width="56" height="56" viewBox="0 0 56 56" fill="none" xmlns="http://www.w3.org/2000/svg">
<g clip-path="url(#clip0_3_172)">
<path d="M7.5 46.641V42.043H7.657V46.641H7.5Z" stroke="black"/>
<path d="M49.118 46.641V42.043H49.275V46.641H49.118Z" stroke="black"/>
<path d="M7.657 37.253V37.753H8.157H48.618H49.118V37.253V33.633V33.6323C49.1173 33.0726 48.8946 32.5359 48.4988 32.1401C48.103 31.7443 47.5664 31.5217 47.0066 31.521H47.006L9.768 31.521L9.76738 31.521C9.20766 31.5217 8.67109 31.7444 8.27542 32.1403C7.87976 32.5362 7.65734 33.0729 7.657 33.6327V33.633V37.253ZM49.196 37.909H7.57858C7.55778 37.9089 7.53785 37.9005 7.52313 37.8858C7.50841 37.8711 7.5001 37.8512 7.5 37.8303V33.6312C7.50072 33.0297 7.73992 32.4531 8.16516 32.0277C8.59038 31.6023 9.16693 31.3629 9.76838 31.3619H47.0057C47.6073 31.3627 48.1841 31.602 48.6096 32.0274C49.035 32.4529 49.2743 33.0298 49.275 33.6315V37.8301C49.275 37.851 49.2666 37.8711 49.2518 37.8859C49.237 37.9007 49.2169 37.909 49.196 37.909Z" stroke="black"/>
<path d="M11.308 30.864L11.3081 31.364H11.808H44.967H45.467V30.864V21.764V21.7634C45.4663 21.2036 45.2436 20.667 44.8478 20.2712C44.452 19.8754 43.9154 19.6527 43.3556 19.652H43.355L13.419 19.652L13.4187 19.652C12.8587 19.6523 12.3218 19.8749 11.9259 20.2709C11.5299 20.6668 11.3073 21.2037 11.307 21.7637L11.307 21.764L11.308 30.864ZM45.5441 31.521L11.229 31.521C11.2084 31.521 11.1885 31.5128 11.1738 31.4981C11.1592 31.4835 11.151 31.4637 11.151 31.443V21.7693C11.1517 21.1679 11.3909 20.5914 11.8162 20.1661C12.2414 19.7409 12.8179 19.5017 13.4193 19.501H43.3537C43.9552 19.5017 44.5319 19.7409 44.9573 20.1661C45.3827 20.5915 45.6221 21.1681 45.623 21.7697V31.4431C45.6227 31.4637 45.6144 31.4834 45.5998 31.4979C45.5851 31.5126 45.5652 31.5209 45.5444 31.521C45.5443 31.521 45.5442 31.521 45.5441 31.521Z" stroke="black"/>
<path d="M14.516 31.521H25.952C25.9729 31.521 25.993 31.5127 26.0078 31.4979C26.0225 31.4832 26.0309 31.4632 26.031 31.4424C26.031 31.4423 26.031 31.4422 26.031 31.4421L26.031 26.3225C26.0306 25.9943 25.9 25.6797 25.6678 25.4476C25.4357 25.2156 25.1211 25.0852 24.793 25.085L14.516 31.521ZM14.516 31.521C14.4953 31.521 14.4754 31.5127 14.4608 31.4981C14.4462 31.4835 14.438 31.4637 14.438 31.443V26.3223M14.516 31.521L14.438 26.3223M14.438 26.3223C14.4384 25.9941 14.569 25.6796 14.8011 25.4476C15.0332 25.2156 15.3479 25.0852 15.676 25.085L14.438 26.3223ZM14.594 30.8643L14.5943 31.364H15.094H25.37H25.87V30.864L25.87 26.322L25.87 26.3211C25.8695 26.0348 25.7555 25.7603 25.5531 25.5579C25.3506 25.3554 25.0762 25.2415 24.7898 25.241H24.789L15.672 25.241L15.6711 25.241C15.3848 25.2415 15.1103 25.3554 14.9079 25.5579C14.7054 25.7603 14.5915 26.0348 14.591 26.3211L14.591 26.3223L14.594 30.8643ZM15.6763 25.085L24.7928 25.085C24.7928 25.085 24.7928 25.085 24.7927 25.085H15.6763Z" stroke="black"/>
<path d="M30.8226 31.521H42.258C42.279 31.521 42.2991 31.5126 42.3138 31.4979C42.3286 31.4832 42.3369 31.4632 42.337 31.4424C42.337 31.4423 42.337 31.4422 42.337 31.4421L42.337 26.3225C42.3366 25.9943 42.206 25.6797 41.9739 25.4476C41.7418 25.2156 41.4271 25.0852 41.099 25.085L30.8226 31.521ZM30.8226 31.521C30.8018 31.5209 30.7819 31.5125 30.7672 31.4978C30.7524 31.4831 30.7441 31.4632 30.744 31.4423V26.3223C30.7445 25.9941 30.8751 25.6796 31.1072 25.4476C31.3393 25.2156 31.6539 25.0852 31.982 25.085L30.8226 31.521ZM30.9 30.864V31.364H31.4H41.679H42.179V30.864L42.179 26.322L42.179 26.3211C42.1785 26.0348 42.0646 25.7603 41.8621 25.5579C41.6597 25.3554 41.3852 25.2415 41.0989 25.241H41.098L31.981 25.241L31.9802 25.241C31.6938 25.2415 31.4194 25.3554 31.2169 25.5579C31.0145 25.7603 30.9005 26.0348 30.9 26.3211V26.322V30.864ZM31.9823 25.085L41.0989 25.085C41.0988 25.085 41.0988 25.085 41.0987 25.085H31.9823Z" stroke="black"/>
<path d="M7.657 40.9649V41.4649H8.157H48.618H49.118V40.9649V38.4099V37.9099H48.618H8.157H7.657V38.4099V40.9649ZM49.196 41.6209H7.578C7.55735 41.6209 7.5375 41.6127 7.52284 41.5981C7.50821 41.5834 7.5 41.5636 7.5 41.5429V37.8316C7.5001 37.8107 7.50841 37.7908 7.52313 37.7761C7.53786 37.7613 7.55781 37.753 7.57863 37.7529H49.1954C49.2162 37.753 49.2361 37.7613 49.2509 37.7761C49.2656 37.7909 49.274 37.8109 49.274 37.8318V41.5429C49.274 41.5636 49.2658 41.5834 49.2511 41.5981C49.2365 41.6127 49.2166 41.6209 49.196 41.6209Z" stroke="black"/>
</g>
<defs>
<clipPath id="clip0_3_172">
<rect width="56" height="56" fill="white"/>
</clipPath>
</defs>
</svg>
