<svg width="45" height="45" viewBox="0 0 45 45" fill="none" xmlns="http://www.w3.org/2000/svg">
<path d="M24.4276 3.75182C25.7959 3.74657 27.1641 3.76032 28.532 3.79307L28.8957 3.80619C29.3157 3.82119 29.7301 3.83994 30.2307 3.86244C32.2257 3.95619 33.587 4.27119 34.7814 4.73432C36.0189 5.21057 37.0614 5.85557 38.1039 6.89807C39.0571 7.83483 39.7948 8.96797 40.2657 10.2187C40.7289 11.4131 41.0439 12.7762 41.1376 14.7712C41.1601 15.2699 41.1789 15.6862 41.1939 16.1062L41.2051 16.4699C41.2384 17.8372 41.2528 19.2048 41.2482 20.5724L41.2501 21.9712V24.4274C41.2547 25.7957 41.2403 27.164 41.207 28.5318L41.1957 28.8956C41.1807 29.3156 41.162 29.7299 41.1395 30.2306C41.0457 32.2256 40.727 33.5868 40.2657 34.7812C39.7963 36.0332 39.0584 37.1673 38.1039 38.1037C37.1663 39.0568 36.0326 39.7945 34.7814 40.2656C33.587 40.7287 32.2257 41.0437 30.2307 41.1374C29.7301 41.1599 29.3157 41.1787 28.8957 41.1937L28.532 41.2049C27.1641 41.2383 25.7959 41.2527 24.4276 41.2481L23.0289 41.2499H20.5745C19.2062 41.2546 17.838 41.2402 16.4701 41.2068L16.1064 41.1956C15.6612 41.1794 15.2162 41.1607 14.7714 41.1393C12.7764 41.0456 11.4151 40.7268 10.2189 40.2656C8.96764 39.7956 7.8343 39.0577 6.89823 38.1037C5.94394 37.1667 5.20553 36.0329 4.73448 34.7812C4.27136 33.5868 3.95636 32.2256 3.86261 30.2306C3.84172 29.7857 3.82297 29.3407 3.80636 28.8956L3.79698 28.5318C3.76241 27.164 3.74679 25.7957 3.75011 24.4274V20.5724C3.74487 19.2048 3.75862 17.8372 3.79136 16.4699L3.80448 16.1062C3.81948 15.6862 3.83823 15.2699 3.86073 14.7712C3.95448 12.7743 4.26948 11.4149 4.73261 10.2187C5.20393 8.96736 5.94379 7.83453 6.90011 6.89994C7.83553 5.9451 8.96816 5.20602 10.2189 4.73432C11.4151 4.27119 12.7745 3.95619 14.7714 3.86244L16.1064 3.80619L16.4701 3.79682C17.8373 3.76227 19.205 3.74664 20.5726 3.74994L24.4276 3.75182ZM22.5001 13.1268C21.2579 13.1093 20.0246 13.3387 18.8719 13.8019C17.7192 14.2652 16.6701 14.9528 15.7854 15.825C14.9008 16.6973 14.1984 17.7366 13.7189 18.8826C13.2394 20.0287 12.9925 21.2586 12.9925 22.5009C12.9925 23.7432 13.2394 24.9731 13.7189 26.1191C14.1984 27.2652 14.9008 28.3045 15.7854 29.1767C16.6701 30.0489 17.7192 30.7366 18.8719 31.1998C20.0246 31.663 21.2579 31.8925 22.5001 31.8749C24.9865 31.8749 27.3711 30.8872 29.1292 29.1291C30.8874 27.3709 31.8751 24.9863 31.8751 22.4999C31.8751 20.0135 30.8874 17.629 29.1292 15.8708C27.3711 14.1127 24.9865 13.1268 22.5001 13.1268ZM22.5001 16.8768C23.2473 16.8631 23.9898 16.9983 24.6841 17.2747C25.3784 17.5511 26.0107 17.9631 26.5441 18.4866C27.0774 19.0101 27.5011 19.6346 27.7903 20.3237C28.0796 21.0128 28.2286 21.7526 28.2287 22.4999C28.2289 23.2473 28.0801 23.9871 27.791 24.6763C27.502 25.3655 27.0786 25.9901 26.5454 26.5138C26.0122 27.0375 25.3801 27.4497 24.6858 27.7263C23.9916 28.003 23.2492 28.1385 22.502 28.1249C21.0101 28.1249 19.5794 27.5323 18.5245 26.4774C17.4696 25.4225 16.877 23.9918 16.877 22.4999C16.877 21.0081 17.4696 19.5774 18.5245 18.5225C19.5794 17.4676 21.0101 16.8749 22.502 16.8749L22.5001 16.8768ZM32.3439 10.3143C31.739 10.3385 31.1669 10.5959 30.7475 11.0324C30.3281 11.4689 30.0938 12.0508 30.0938 12.6562C30.0938 13.2616 30.3281 13.8435 30.7475 14.28C31.1669 14.7165 31.739 14.9739 32.3439 14.9981C32.9655 14.9981 33.5616 14.7511 34.0011 14.3116C34.4407 13.8721 34.6876 13.2759 34.6876 12.6543C34.6876 12.0327 34.4407 11.4366 34.0011 10.997C33.5616 10.5575 32.9655 10.3106 32.3439 10.3106V10.3143Z" fill="white"/>
</svg>
