<svg width="25" height="17" viewBox="0 0 25 17" fill="none" xmlns="http://www.w3.org/2000/svg">
<path d="M0.663 12.93H0V16.141H0.663V12.93Z" fill="black"/>
<path d="M24.534 12.93H23.871V16.141H24.534V12.93Z" fill="black"/>
<path d="M24.206 11.133H0.331993C0.243941 11.133 0.159499 11.098 0.0972366 11.0358C0.0349746 10.9735 0 10.889 0 10.801V8.39301C0.000529229 7.972 0.168005 7.56838 0.465698 7.27069C0.763391 6.973 1.167 6.80552 1.588 6.80499H22.946C23.367 6.80552 23.7706 6.973 24.0683 7.27069C24.366 7.56838 24.5335 7.972 24.534 8.39301V10.801C24.534 10.8884 24.4996 10.9722 24.4382 11.0344C24.3768 11.0965 24.2934 11.1319 24.206 11.133ZM0.667 10.47H23.874V8.39398C23.8735 8.14891 23.7758 7.91404 23.6024 7.74084C23.429 7.56765 23.1941 7.47027 22.949 7.47H1.588C1.34302 7.47027 1.10815 7.56768 0.934921 7.74091C0.761695 7.91413 0.664259 8.149 0.663994 8.39398L0.667 10.47Z" fill="black"/>
<path d="M22.108 7.468H2.425C2.33712 7.46774 2.25293 7.43264 2.19088 7.37041C2.12883 7.30817 2.09399 7.22388 2.09399 7.136V1.58699C2.09452 1.16599 2.262 0.7624 2.55969 0.464706C2.85739 0.167013 3.26099 -0.000462592 3.68199 -0.000991821H20.856C21.277 -0.000462592 21.6806 0.167013 21.9783 0.464706C22.276 0.7624 22.4435 1.16599 22.444 1.58699V7.136C22.444 7.17994 22.4353 7.22345 22.4184 7.26399C22.4014 7.30454 22.3766 7.3413 22.3453 7.37218C22.3141 7.40306 22.277 7.42745 22.2363 7.44389C22.1955 7.46034 22.1519 7.46853 22.108 7.468ZM2.756 6.80501H21.776V1.588C21.7757 1.34302 21.6783 1.10815 21.5051 0.934921C21.3318 0.761695 21.097 0.664251 20.852 0.663986H3.68199C3.43701 0.664251 3.20215 0.761695 3.02892 0.934921C2.8557 1.10815 2.75826 1.34302 2.758 1.588L2.756 6.80501Z" fill="black"/>
<path d="M10.87 7.468H4.31098C4.2231 7.46774 4.13891 7.43264 4.07687 7.37041C4.01482 7.30817 3.97998 7.22388 3.97998 7.136V4.19899C3.97998 3.93377 4.08534 3.67943 4.27287 3.4919C4.46041 3.30436 4.71476 3.19899 4.97998 3.19899H10.209C10.4742 3.19899 10.7286 3.30436 10.9161 3.4919C11.1036 3.67943 11.209 3.93377 11.209 4.19899V7.136C11.209 7.1802 11.2002 7.22395 11.1831 7.26469C11.1659 7.30544 11.1409 7.34235 11.1093 7.37328C11.0777 7.4042 11.0403 7.42851 10.9992 7.44478C10.9581 7.46105 10.9142 7.46893 10.87 7.468ZM4.64198 6.804H10.542V4.19899C10.5417 4.11075 10.5066 4.02621 10.4442 3.96382C10.3818 3.90143 10.2972 3.86628 10.209 3.86601H4.97998C4.89174 3.86628 4.8072 3.90143 4.7448 3.96382C4.68241 4.02621 4.64724 4.11075 4.64698 4.19899L4.64198 6.804Z" fill="black"/>
<path d="M20.226 7.468H13.667C13.579 7.468 13.4945 7.433 13.4323 7.37074C13.37 7.30848 13.335 7.22405 13.335 7.136V4.19899C13.335 3.93377 13.4404 3.67943 13.6279 3.4919C13.8155 3.30436 14.0698 3.19899 14.335 3.19899H19.564C19.8292 3.19899 20.0836 3.30436 20.2711 3.4919C20.4587 3.67943 20.564 3.93377 20.564 4.19899V7.136C20.564 7.18011 20.5553 7.22377 20.5382 7.26445C20.5211 7.30513 20.4961 7.342 20.4647 7.37291C20.4332 7.40382 20.3959 7.42815 20.3549 7.44447C20.3139 7.4608 20.2701 7.4688 20.226 7.468ZM13.998 6.804H19.898V4.19899C19.8978 4.11075 19.8626 4.02621 19.8002 3.96382C19.7378 3.90143 19.6533 3.86628 19.565 3.86601H14.326C14.2378 3.86628 14.1532 3.90143 14.0909 3.96382C14.0285 4.02621 13.9933 4.11075 13.993 4.19899L13.998 6.804Z" fill="black"/>
<path d="M24.206 13.261H0.331993C0.244114 13.261 0.159821 13.2261 0.0975876 13.1641C0.0353542 13.102 0.000264695 13.0179 0 12.93V10.801C0 10.7129 0.0349746 10.6285 0.0972366 10.5662C0.159499 10.504 0.243941 10.469 0.331993 10.469H24.206C24.294 10.469 24.3785 10.504 24.4408 10.5662C24.503 10.6285 24.538 10.7129 24.538 10.801V12.93C24.5377 13.0179 24.5026 13.102 24.4404 13.1641C24.3782 13.2261 24.2939 13.261 24.206 13.261ZM0.667 12.598H23.874V11.132H0.663994L0.667 12.598Z" fill="black"/>
</svg>
