<svg width="18" height="18" viewBox="0 0 18 18" fill="none" xmlns="http://www.w3.org/2000/svg">
<path d="M8.69 8.68999C9.50175 8.69197 10.2958 8.45294 10.9716 8.00319C11.6474 7.55344 12.1744 6.91321 12.486 6.16362C12.7975 5.41404 12.8796 4.58884 12.7217 3.79259C12.5638 2.99633 12.1731 2.26487 11.5991 1.69087C11.0251 1.11687 10.2937 0.726182 9.49741 0.568301C8.70116 0.410421 7.87596 0.492457 7.12637 0.804015C6.37679 1.11557 5.73656 1.64263 5.28681 2.3184C4.83705 2.99417 4.59802 3.78824 4.6 4.6C4.60448 5.68335 5.03682 6.72106 5.80288 7.48712C6.56893 8.25317 7.60664 8.68552 8.69 8.68999ZM8.69 10.738C5.977 10.738 0.5 12.12 0.5 14.838V16.886H16.881V14.833C16.881 12.12 11.4 10.738 8.69 10.738Z" stroke="black"/>
</svg>
