<!-- icon666.com - MILLIONS vector ICONS FREE --><svg clip-rule="evenodd" fill-rule="evenodd" stroke-linejoin="round" stroke-miterlimit="2" viewBox="0 0 24 24" xmlns="http://www.w3.org/2000/svg"><g id="Icon"><g><path d="m18.501 2-.002 5c0 .552.448 1 1 1s1-.448 1-1l.002-5c0-.552-.448-1-1-1s-1 .448-1 1z" fill="#ffffff"></path><path d="m17 5.499 5 .002c.552 0 1-.448 1-1s-.448-1-1-1l-5-.002c-.552 0-1 .448-1 1s.448 1 1 1z" fill="#ffffff"></path><path d="m21.378 6.251h-.129v.75c0 .966-.785 1.749-1.751 1.749-.965 0-1.749-.785-1.749-1.751v-.75h-.75c-.966 0-1.749-.785-1.749-1.751 0-.965.785-1.749 1.751-1.749h.75v-.126c-1.674-1.029-3.644-1.623-5.751-1.623-6.071 0-11 4.929-11 11s4.929 11 11 11 11-4.929 11-11c0-2.107-.593-4.076-1.622-5.749zm-6.628.749v10c0 .552.449 1 1 1 .552 0 1-.448 1-1v-10c0-.552-.448-1-1-1-.551 0-1 .448-1 1zm-6.5 2.5c0-.828.672-1.5 1.5-1.5.827 0 1.5.672 1.5 1.5 0 .577-.416 1.331-.925 2.135-1.421 2.243-3.791 4.666-3.791 4.666-.281.288-.362.716-.206 1.087s.519.612.922.612h5c.551 0 1-.448 1-1s-.449-1-1-1h-2.742c.806-.935 1.774-2.138 2.506-3.296.752-1.186 1.236-2.353 1.236-3.204 0-1.932-1.569-3.5-3.5-3.5-1.932 0-3.5 1.568-3.5 3.5 0 .552.448 1 1 1 .551 0 1-.448 1-1z" fill="#ffffff"></path></g></g></svg>