<svg width="41" height="41" fill="none" xmlns="http://www.w3.org/2000/svg"><path d="M29.042 30.75a1.708 1.708 0 0 0 1.708-1.708V11.958a1.708 1.708 0 0 0-3.417 0v17.084a1.708 1.708 0 0 0 1.709 1.708ZM30.75 8.542h1.708v1.708a1.708 1.708 0 0 0 3.417 0V8.542h1.708a1.708 1.708 0 1 0 0-3.417h-1.708V3.417a1.708 1.708 0 0 0-3.417 0v1.708H30.75a1.708 1.708 0 1 0 0 3.417Zm6.15 6.833a1.707 1.707 0 0 0-1.332 2.016A15.375 15.375 0 1 1 23.609 5.432a1.742 1.742 0 0 0 .683-3.416 18.45 18.45 0 0 0-3.792-.308A18.792 18.792 0 1 0 39.292 20.5a18.453 18.453 0 0 0-.376-3.758 1.708 1.708 0 0 0-2.016-1.367Zm-19.817 6.833h1.709a5.125 5.125 0 0 0 5.125-5.125v-1.708a5.125 5.125 0 0 0-5.125-5.125h-1.709a5.125 5.125 0 0 0-5.125 5.125 1.708 1.708 0 0 0 3.417 0 1.709 1.709 0 0 1 1.708-1.708h1.709a1.708 1.708 0 0 1 1.708 1.708v1.708a1.708 1.708 0 0 1-1.708 1.709h-1.709a5.125 5.125 0 0 0-5.125 5.125v5.125a1.708 1.708 0 0 0 1.709 1.708h8.541a1.708 1.708 0 0 0 0-3.417h-6.833v-3.416a1.709 1.709 0 0 1 1.708-1.709Z" fill="#434650"/></svg>