<svg width="24" height="24" fill="none" xmlns="http://www.w3.org/2000/svg"><path d="M12 17.4a2.4 2.4 0 0 1-2.393-2.208A7.203 7.203 0 0 1 12 1.2a7.2 7.2 0 0 1 7.176 6.6.565.565 0 0 1-.576.6.65.65 0 0 1-.63-.6 6 6 0 1 0-8.148 6.192A2.4 2.4 0 1 1 12 17.4Zm-5.99-3h.11a8.42 8.42 0 0 0 2.44 1.666 3.6 3.6 0 0 0 6.99-1.666H18a2.4 2.4 0 0 1 2.4 2.4c0 2.03-1 3.56-2.562 4.556C16.3 22.336 14.226 22.8 12 22.8s-4.3-.463-5.838-1.444C4.6 20.36 3.6 18.828 3.6 16.8c0-1.336 1.084-2.4 2.41-2.4Zm10.79-6a4.796 4.796 0 0 1-2.244 4.064A3.588 3.588 0 0 0 12 11.4a3.585 3.585 0 0 0-2.556 1.064 4.815 4.815 0 0 1-1.966-2.45A4.8 4.8 0 1 1 16.8 8.4Z" fill="#fff"/></svg>