<svg width="64" height="64" viewBox="0 0 64 64" fill="none" xmlns="http://www.w3.org/2000/svg">
<path d="M45.3333 48C46.0406 48 46.7189 47.719 47.219 47.2189C47.7191 46.7188 48 46.0406 48 45.3333V18.6666C48 17.9594 47.7191 17.2811 47.219 16.781C46.7189 16.2809 46.0406 16 45.3333 16C44.6261 16 43.9478 16.2809 43.4477 16.781C42.9476 17.2811 42.6667 17.9594 42.6667 18.6666V45.3333C42.6667 46.0406 42.9476 46.7188 43.4477 47.2189C43.9478 47.719 44.6261 48 45.3333 48ZM48 13.3333H50.6667V16C50.6667 16.7072 50.9476 17.3855 51.4477 17.8856C51.9478 18.3857 52.6261 18.6666 53.3333 18.6666C54.0406 18.6666 54.7189 18.3857 55.219 17.8856C55.7191 17.3855 56 16.7072 56 16V13.3333H58.6667C59.3739 13.3333 60.0522 13.0524 60.5523 12.5523C61.0524 12.0522 61.3333 11.3739 61.3333 10.6666C61.3333 9.9594 61.0524 9.28112 60.5523 8.78103C60.0522 8.28093 59.3739 7.99998 58.6667 7.99998H56V5.33331C56 4.62607 55.7191 3.94779 55.219 3.44769C54.7189 2.9476 54.0406 2.66665 53.3333 2.66665C52.6261 2.66665 51.9478 2.9476 51.4477 3.44769C50.9476 3.94779 50.6667 4.62607 50.6667 5.33331V7.99998H48C47.2928 7.99998 46.6145 8.28093 46.1144 8.78103C45.6143 9.28112 45.3333 9.9594 45.3333 10.6666C45.3333 11.3739 45.6143 12.0522 46.1144 12.5523C46.6145 13.0524 47.2928 13.3333 48 13.3333ZM57.6 24C57.2568 24.07 56.9307 24.2069 56.6404 24.4029C56.3501 24.5989 56.1013 24.8502 55.9081 25.1424C55.715 25.4346 55.5813 25.762 55.5147 26.1059C55.4481 26.4498 55.4499 26.8035 55.52 27.1466C56.5612 32.2032 55.9441 37.4607 53.7603 42.1387C51.5765 46.8167 47.9425 50.6659 43.3977 53.1148C38.8529 55.5638 33.6395 56.4819 28.5315 55.733C23.4235 54.984 18.6931 52.6079 15.0426 48.9574C11.392 45.3069 9.01596 40.5765 8.26702 35.4685C7.51809 30.3605 8.43623 25.1471 10.8852 20.6023C13.3341 16.0575 17.1832 12.4234 21.8613 10.2397C26.5393 8.05591 31.7968 7.43881 36.8533 8.47998C37.5606 8.62143 38.295 8.47613 38.8952 8.07605C39.4953 7.67598 39.9119 7.05389 40.0533 6.34665C40.1948 5.6394 40.0495 4.90493 39.6494 4.30482C39.2493 3.7047 38.6272 3.28809 37.92 3.14665C35.9685 2.78305 33.9846 2.62219 32 2.66665C26.1984 2.66665 20.5271 4.38702 15.7033 7.6102C10.8794 10.8334 7.11971 15.4146 4.89954 20.7746C2.67937 26.1346 2.09847 32.0325 3.2303 37.7226C4.36213 43.4127 7.15586 48.6394 11.2582 52.7418C15.3605 56.8441 20.5872 59.6378 26.2774 60.7697C31.9675 61.9015 37.8654 61.3206 43.2254 59.1004C48.5853 56.8803 53.1666 53.1206 56.3898 48.2967C59.613 43.4729 61.3333 37.8016 61.3333 32C61.339 30.0295 61.1424 28.0637 60.7467 26.1333C60.6828 25.7853 60.5503 25.4535 60.3569 25.1572C60.1635 24.8609 59.9131 24.606 59.6202 24.4075C59.3274 24.2089 58.9979 24.0706 58.6511 24.0007C58.3042 23.9307 57.9469 23.9305 57.6 24ZM26.6667 34.6666H29.3333C31.4551 34.6666 33.4899 33.8238 34.9902 32.3235C36.4905 30.8232 37.3333 28.7884 37.3333 26.6666V24C37.3333 21.8782 36.4905 19.8434 34.9902 18.3431C33.4899 16.8428 31.4551 16 29.3333 16H26.6667C24.5449 16 22.5101 16.8428 21.0098 18.3431C19.5095 19.8434 18.6667 21.8782 18.6667 24C18.6667 24.7072 18.9476 25.3855 19.4477 25.8856C19.9478 26.3857 20.6261 26.6666 21.3333 26.6666C22.0406 26.6666 22.7189 26.3857 23.219 25.8856C23.719 25.3855 24 24.7072 24 24C24 23.2927 24.281 22.6145 24.781 22.1144C25.2811 21.6143 25.9594 21.3333 26.6667 21.3333H29.3333C30.0406 21.3333 30.7189 21.6143 31.219 22.1144C31.719 22.6145 32 23.2927 32 24V26.6666C32 27.3739 31.719 28.0522 31.219 28.5523C30.7189 29.0524 30.0406 29.3333 29.3333 29.3333H26.6667C24.5449 29.3333 22.5101 30.1762 21.0098 31.6765C19.5095 33.1768 18.6667 35.2116 18.6667 37.3333V45.3333C18.6667 46.0406 18.9476 46.7188 19.4477 47.2189C19.9478 47.719 20.6261 48 21.3333 48H34.6667C35.3739 48 36.0522 47.719 36.5523 47.2189C37.0524 46.7188 37.3333 46.0406 37.3333 45.3333C37.3333 44.6261 37.0524 43.9478 36.5523 43.4477C36.0522 42.9476 35.3739 42.6666 34.6667 42.6666H24V37.3333C24 36.6261 24.281 35.9478 24.781 35.4477C25.2811 34.9476 25.9594 34.6666 26.6667 34.6666Z" fill="black"/>
</svg>
