<svg width="33" height="32" viewBox="0 0 33 32" fill="none" xmlns="http://www.w3.org/2000/svg">
<mask id="mask0_2_62" style="mask-type:luminance" maskUnits="userSpaceOnUse" x="2" y="2" width="29" height="28">
<path d="M23.1667 4H9.83333C8.41885 4 7.06229 4.5619 6.0621 5.5621C5.0619 6.56229 4.5 7.91885 4.5 9.33333V22.6667C4.5 24.0812 5.0619 25.4377 6.0621 26.4379C7.06229 27.4381 8.41885 28 9.83333 28H23.1667C24.5812 28 25.9377 27.4381 26.9379 26.4379C27.9381 25.4377 28.5 24.0812 28.5 22.6667V9.33333C28.5 7.91885 27.9381 6.56229 26.9379 5.5621C25.9377 4.5619 24.5812 4 23.1667 4Z" fill="white" stroke="white" stroke-width="4" stroke-linejoin="round"/>
<path d="M16.5 21.3334C17.9145 21.3334 19.2711 20.7715 20.2713 19.7713C21.2715 18.7711 21.8334 17.4146 21.8334 16.0001C21.8334 14.5856 21.2715 13.229 20.2713 12.2288C19.2711 11.2287 17.9145 10.6667 16.5 10.6667C15.0855 10.6667 13.729 11.2287 12.7288 12.2288C11.7286 13.229 11.1667 14.5856 11.1667 16.0001C11.1667 17.4146 11.7286 18.7711 12.7288 19.7713C13.729 20.7715 15.0855 21.3334 16.5 21.3334Z" fill="black" stroke="black" stroke-width="4" stroke-linejoin="round"/>
<path d="M23.8333 9.99992C24.187 9.99992 24.5261 9.85944 24.7761 9.60939C25.0262 9.35935 25.1667 9.02021 25.1667 8.66659C25.1667 8.31296 25.0262 7.97383 24.7761 7.72378C24.5261 7.47373 24.187 7.33325 23.8333 7.33325C23.4797 7.33325 23.1406 7.47373 22.8905 7.72378C22.6405 7.97383 22.5 8.31296 22.5 8.66659C22.5 9.02021 22.6405 9.35935 22.8905 9.60939C23.1406 9.85944 23.4797 9.99992 23.8333 9.99992Z" fill="black"/>
</mask>
<g mask="url(#mask0_2_62)">
<path d="M0.5 0H32.5V32H0.5V0Z" fill="black"/>
</g>
</svg>
