<svg width="33" height="32" viewBox="0 0 33 32" fill="none" xmlns="http://www.w3.org/2000/svg">
<path d="M16.5013 29.3334C9.13733 29.3334 3.168 23.3641 3.168 16.0001C3.168 8.63608 9.13733 2.66675 16.5013 2.66675C23.8653 2.66675 29.8347 8.63608 29.8347 16.0001C29.8347 23.3641 23.8653 29.3334 16.5013 29.3334ZM12.3547 17.5601L12.372 17.5507L13.532 21.3774C13.6813 21.7921 13.8867 21.8667 14.136 21.8321C14.3867 21.7987 14.5187 21.6641 14.6827 21.5067L16.2667 19.9761L19.6667 22.4934C20.288 22.8361 20.7347 22.6587 20.8893 21.9174L23.1 11.4881C23.344 10.5174 22.9147 10.1281 22.1627 10.4374L9.18533 15.4507C8.3 15.8054 8.30533 16.3014 9.02533 16.5214L12.3547 17.5601Z" fill="black"/>
</svg>
