<!-- icon666.com - MILLIONS vector ICONS FREE --><svg viewBox="-26 1 511 511.9999" xmlns="http://www.w3.org/2000/svg"><path d="m452.824219 126.765625c-3.800781-6.171875-9.078125-11.300781-15.359375-14.921875l-185.203125-106.019531c-13.8125-7.765625-30.675781-7.765625-44.488281 0l-185.203126 106.019531c-6.28125 3.621094-11.558593 8.75-15.363281 14.921875-4.382812 6.882813-6.710937 14.875-6.707031 23.039063v212.390624c.082031 15.675782 8.488281 30.128907 22.070312 37.960938l185.203126 106.015625c13.8125 7.769531 30.675781 7.769531 44.488281 0l185.203125-106.015625c13.582031-7.832031 21.984375-22.285156 22.070312-37.960938v-212.390624c.003906-8.164063-2.324218-16.15625-6.710937-23.039063zm0 0" fill="#f76c82"></path><path d="m459.535156 149.804688v212.390624c-.085937 15.675782-8.488281 30.128907-22.070312 37.960938l-185.203125 106.015625c-6.789063 3.828125-14.453125 5.832031-22.246094 5.828125v-256l222.808594-129.234375c4.386719 6.882813 6.714843 14.875 6.710937 23.039063zm0 0" fill="#d94452"></path><path d="m230.015625 256v256c-7.792969.003906-15.453125-2-22.242187-5.828125l-185.203126-106.015625c-13.582031-7.832031-21.988281-22.285156-22.070312-37.960938v-212.390624c-.003906-8.164063 2.324219-16.15625 6.707031-23.039063zm0 0" fill="#eb5463"></path><path d="m318.238281 413.582031c-1.777343 12.875-10.984375 23.488281-23.480469 27.066407-4.914062 1.996093-10.519531 1.246093-14.742187-1.96875-4.21875-3.21875-6.429687-8.421876-5.808594-13.691407 1.757813-12.867187 10.980469-23.464843 23.484375-26.980469 4.898438-2.042968 10.515625-1.328124 14.75 1.878907 4.230469 3.207031 6.441406 8.421875 5.796875 13.695312zm0 0" fill="#cad0d7"></path><g fill="#f4f6f8"><path d="m35.863281 342.960938c1.777344 12.875 10.984375 23.488281 23.480469 27.066406 4.917969 1.996094 10.523438 1.246094 14.742188-1.96875 4.222656-3.214844 6.429687-8.421875 5.808593-13.691406-1.753906-12.867188-10.980469-23.464844-23.480469-26.980469-4.902343-2.042969-10.519531-1.324219-14.75 1.882812-4.234374 3.203125-6.441406 8.417969-5.800781 13.691407zm0 0"></path><path d="m150.621094 413.582031c1.777344 12.875 10.988281 23.488281 23.480468 27.066407 4.917969 1.996093 10.523438 1.246093 14.746094-1.96875 4.21875-3.21875 6.425782-8.421876 5.804688-13.691407-1.753906-12.867187-10.976563-23.464843-23.480469-26.980469-4.902344-2.042968-10.519531-1.328124-14.75 1.878907-4.234375 3.207031-6.441406 8.421875-5.800781 13.695312zm0 0"></path><path d="m35.863281 219.375c1.777344 12.875 10.984375 23.488281 23.480469 27.066406 4.917969 1.996094 10.523438 1.246094 14.742188-1.96875 4.222656-3.21875 6.429687-8.421875 5.808593-13.691406-1.753906-12.867188-10.980469-23.464844-23.480469-26.980469-4.902343-2.042969-10.519531-1.328125-14.75 1.878907-4.234374 3.207031-6.441406 8.421874-5.800781 13.695312zm0 0"></path><path d="m150.621094 289.996094c1.777344 12.875 10.988281 23.488281 23.480468 27.0625 4.917969 2 10.523438 1.25 14.746094-1.964844 4.21875-3.21875 6.425782-8.421875 5.804688-13.695312-1.753906-12.863282-10.976563-23.460938-23.480469-26.976563-4.902344-2.042969-10.519531-1.328125-14.75 1.878906-4.234375 3.207031-6.441406 8.421875-5.800781 13.695313zm0 0"></path></g><path d="m424.171875 219.375c-1.777344 12.875-10.988281 23.488281-23.480469 27.066406-4.917968 1.996094-10.523437 1.246094-14.746094-1.96875-4.21875-3.21875-6.425781-8.421875-5.804687-13.691406 1.753906-12.867188 10.976563-23.464844 23.480469-26.980469 4.902344-2.042969 10.519531-1.328125 14.75 1.878907 4.234375 3.207031 6.441406 8.421874 5.800781 13.695312zm0 0" fill="#cad0d7"></path><path d="m371.207031 316.476562c-1.777343 12.875-10.988281 23.488282-23.484375 27.066407-4.914062 1.996093-10.519531 1.25-14.742187-1.96875-4.21875-3.214844-6.429688-8.421875-5.808594-13.691407 1.757813-12.867187 10.980469-23.464843 23.484375-26.976562 4.898438-2.042969 10.519531-1.328125 14.75 1.878906 4.230469 3.207032 6.441406 8.421875 5.800781 13.691406zm0 0" fill="#cad0d7"></path><path d="m250.472656 142.027344c-10.21875 9.488281-25.609375 10.734375-37.21875 3.011718-5.292968-3.097656-8.828125-8.496093-9.550781-14.585937-.726563-6.089844 1.445313-12.164063 5.859375-16.417969 10.230469-9.519531 25.648438-10.808594 37.316406-3.117187 5.265625 3.152343 8.765625 8.570312 9.46875 14.667969.707032 6.097656-1.46875 12.171874-5.875 16.441406zm0 0" fill="#fff"></path></svg>