<svg width="24" height="24" fill="none" xmlns="http://www.w3.org/2000/svg"><g clip-path="url(#a)" fill="#453938"><path d="M12 1.333a7.86 7.86 0 0 0-7.853 7.82c0 3.114 1.746 5.72 3.026 7.62l.234.347a66.394 66.394 0 0 0 4.093 5.333l.507.594.506-.594a66.558 66.558 0 0 0 4.094-5.333l.233-.353c1.273-1.9 3.02-4.5 3.02-7.614A7.86 7.86 0 0 0 12 1.333Zm0 11.334a4.373 4.373 0 1 1 0-8.747 4.373 4.373 0 0 1 0 8.747Z"/><path d="M12 10.78a2.487 2.487 0 1 0 0-4.973 2.487 2.487 0 0 0 0 4.973Z"/></g><defs><clipPath id="a"><path fill="#fff" d="M0 0h24v24H0z"/></clipPath></defs></svg>