<svg width="42" height="42" fill="none" xmlns="http://www.w3.org/2000/svg"><g clip-path="url(#a)"><path d="m27.867 30.633 3.445-16.242c.141-.688.06-1.18-.246-1.477-.304-.297-.707-.351-1.207-.164L9.61 20.555c-.453.172-.761.367-.925.586-.164.218-.184.425-.059.62.125.196.375.348.75.458l5.18 1.617 12.023-7.57c.328-.22.578-.266.75-.141.11.078.078.195-.094.352l-9.726 8.789-.375 5.343c.36 0 .71-.172 1.055-.515l2.53-2.438 5.25 3.867c1 .563 1.634.266 1.9-.89ZM42 21c0 2.844-.555 5.563-1.664 8.156-1.11 2.594-2.602 4.828-4.477 6.703-1.875 1.875-4.109 3.368-6.703 4.477A20.528 20.528 0 0 1 21 42c-2.844 0-5.563-.555-8.156-1.664-2.594-1.11-4.828-2.602-6.703-4.477-1.875-1.875-3.368-4.109-4.477-6.703A20.528 20.528 0 0 1 0 21c0-2.844.555-5.563 1.664-8.156 1.11-2.594 2.602-4.828 4.477-6.703 1.875-1.875 4.109-3.368 6.703-4.477A20.528 20.528 0 0 1 21 0c2.844 0 5.563.555 8.156 1.664 2.594 1.11 4.828 2.602 6.703 4.477 1.875 1.875 3.368 4.109 4.477 6.703A20.528 20.528 0 0 1 42 21Z" fill="#453938"/></g><defs><clipPath id="a"><path fill="#fff" d="M0 0h42v42H0z"/></clipPath></defs></svg>