<svg clip-rule="evenodd" fill-rule="evenodd" stroke-linejoin="round" stroke-miterlimit="2" viewBox="0 0 24 24" xmlns="http://www.w3.org/2000/svg"><g fill="#fff"><path d="m18.501 2-.002 5a1 1 0 0 0 2 0l.002-5a1 1 0 0 0-2 0z"/><path d="m17 5.499 5 .002a1 1 0 0 0 0-2l-5-.002a1 1 0 0 0 0 2z"/><path d="M21.378 6.251h-.129v.75a1.75 1.75 0 0 1-3.5-.002v-.75h-.75a1.75 1.75 0 0 1 .002-3.5h.75v-.126A10.948 10.948 0 0 0 12 1C5.929 1 1 5.929 1 12s4.929 11 11 11 11-4.929 11-11c0-2.107-.593-4.076-1.622-5.749zM14.75 7v10a1.001 1.001 0 0 0 2 0V7a1 1 0 0 0-2 0zm-6.5 2.5a1.5 1.5 0 0 1 3 0c0 .577-.416 1.331-.925 2.135-1.421 2.243-3.791 4.666-3.791 4.666A1 1 0 0 0 7.25 18h5a1.001 1.001 0 0 0 0-2H9.508c.806-.935 1.774-2.138 2.506-3.296.752-1.186 1.236-2.353 1.236-3.204 0-1.932-1.569-3.5-3.5-3.5a3.501 3.501 0 0 0-3.5 3.5 1 1 0 0 0 2 0z"/></g></svg>