<!-- icon666.com - MILLIONS vector ICONS FREE --><svg version="1.1" id="Capa_1" xmlns="http://www.w3.org/2000/svg" xmlns:xlink="http://www.w3.org/1999/xlink" x="0px" y="0px" viewBox="0 0 468.299 468.299" style="enable-background:new 0 0 468.299 468.299;" xml:space="preserve"><g><rect x="38.793" y="78.177" style="fill:#DC8744;" width="395.926" height="11.42"></rect><rect x="38.793" y="132.005" style="fill:#DC8744;" width="395.926" height="11.42"></rect><rect x="38.793" y="185.822" style="fill:#DC8744;" width="395.926" height="11.42"></rect><rect x="38.793" y="239.638" style="fill:#DC8744;" width="395.926" height="11.42"></rect><rect x="38.793" y="293.467" style="fill:#DC8744;" width="395.926" height="11.42"></rect><rect x="38.793" y="347.289" style="fill:#DC8744;" width="395.926" height="11.42"></rect></g><rect x="88.033" y="0.134" style="fill:#EBF0F3;" width="297.472" height="468.03"></rect><path style="fill:#64798A;" d="M385.506,227.439h-93.498c-3.33-27.544-26.81-48.971-55.236-48.971s-51.905,21.427-55.236,48.971 h-93.5v13.42h93.5c3.329,27.544,26.809,48.972,55.236,48.972c28.426,0,51.906-21.428,55.236-48.972h93.498V227.439z M236.772,189.89 c22.117,0,40.443,16.325,43.695,37.549h-87.39C196.327,206.216,214.654,189.89,236.772,189.89z M236.772,278.409 c-22.119,0-40.446-16.326-43.696-37.55h87.391C277.217,262.083,258.891,278.409,236.772,278.409z"></path><path style="fill:#E56353;" d="M236.768,105.523c-26.731,0-48.476-21.75-48.476-48.481s21.745-48.481,48.476-48.481 s48.481,21.75,48.481,48.481S263.498,105.523,236.768,105.523z M236.768,25.694c-17.283,0-31.343,14.065-31.343,31.349 s14.06,31.349,31.343,31.349c17.283,0,31.349-14.065,31.349-31.349S254.051,25.694,236.768,25.694z"></path><rect x="88.033" y="0.134" style="fill:#64798A;" width="297.472" height="57.107"></rect><path style="fill:#44C4A1;" d="M236.768,459.738c-26.731,0-48.476-21.75-48.476-48.481c0-26.731,21.745-48.481,48.476-48.481 s48.481,21.75,48.481,48.481C285.249,437.987,263.498,459.738,236.768,459.738z M236.768,379.908 c-17.283,0-31.343,14.065-31.343,31.349c0,17.283,14.06,31.349,31.343,31.349c17.283,0,31.349-14.065,31.349-31.349 C268.116,393.973,254.051,379.908,236.768,379.908z"></path><rect x="88.033" y="411.039" style="fill:#64798A;" width="297.472" height="57.107"></rect><g><rect y="69.648" style="fill:#E56353;" width="59.011" height="28.491"></rect><rect y="123.464" style="fill:#E56353;" width="59.011" height="28.491"></rect><rect y="177.286" style="fill:#E56353;" width="59.011" height="28.491"></rect><rect y="231.102" style="fill:#E56353;" width="59.011" height="28.491"></rect><rect y="284.912" style="fill:#E56353;" width="59.011" height="28.491"></rect><rect y="338.741" style="fill:#E56353;" width="59.011" height="28.491"></rect></g><g><rect x="409.288" y="69.648" style="fill:#44C4A1;" width="59.011" height="28.491"></rect><rect x="409.288" y="123.464" style="fill:#44C4A1;" width="59.011" height="28.491"></rect><rect x="409.288" y="177.286" style="fill:#44C4A1;" width="59.011" height="28.491"></rect><rect x="409.288" y="231.102" style="fill:#44C4A1;" width="59.011" height="28.491"></rect><rect x="409.288" y="284.912" style="fill:#44C4A1;" width="59.011" height="28.491"></rect><rect x="409.288" y="338.741" style="fill:#44C4A1;" width="59.011" height="28.491"></rect></g><g><rect x="88.033" y="41.088" style="fill:#64798A;" width="19.518" height="390.244"></rect><rect x="365.955" y="41.088" style="fill:#64798A;" width="19.518" height="390.244"></rect></g></svg>