<?xml version="1.0" encoding="UTF-8"?>
<svg id="Layer_2" data-name="Layer 2" xmlns="http://www.w3.org/2000/svg" viewBox="0 0 534.08 177.45">
  <defs>
    <style>
      .cls-1 {
        fill: none;
      }

      .cls-2 {
        fill: #fff;
      }
    </style>
  </defs>
  <g id="Layer_1-2" data-name="Layer 1">
    <g>
      <rect class="cls-1" width="534.08" height="177.45"/>
      <g>
        <g>
          <path class="cls-2" d="m211.33,110.06l-.83,2.49h-9.41c-.75,0-1.59.2-2.52.61-1.76.78-2.97,2.1-3.61,3.97-.19.58-.28,1.14-.28,1.66,0,.93.3,1.67.9,2.22.6.55,1.43.83,2.5.83h3.93l1.98-5.88h5.33l-2.8,8.38-10.01-.02c-2.02,0-3.71-.39-5.08-1.17-1.59-.91-2.39-2.21-2.39-3.89,0-.66.13-1.36.38-2.11.98-2.9,3.27-4.96,6.87-6.15,1.86-.63,3.59-.94,5.18-.94h9.84Z"/>
          <path class="cls-2" d="m229.21,110.08h4.29c2.94.01,4.05.02,3.31.02l-4.8,14.22-5.33.02,1.41-4.22h-8.79l-1.41,4.2-5.31.02,2.37-6.99c1.01-3,3.32-5.11,6.93-6.32,1.85-.63,3.58-.94,5.21-.94h2.13Zm1.43,2.47h-3.99c-1.54,0-2.87.46-4.01,1.38s-1.97,2.16-2.5,3.72h8.77l1.73-5.1Z"/>
          <path class="cls-2" d="m264.21,111.25c1.62.91,2.43,2.21,2.43,3.89,0,.63-.12,1.31-.36,2.04l-2.45,7.14-5.27.02,2.39-7.06c.18-.56.28-1.08.28-1.57,0-.91-.3-1.66-.9-2.23-.6-.57-1.43-.87-2.5-.9l-3.97,11.75-5.33.02,3.97-11.79h-4.65l-3.99,11.77-5.33.02,4.8-14.26h15.81c2.01,0,3.7.39,5.08,1.17Z"/>
          <path class="cls-2" d="m279.86,110.06l-4.82,14.26-5.33.02,4.8-14.26,5.35-.02Z"/>
          <path class="cls-2" d="m301.32,111.25c1.61.91,2.41,2.21,2.41,3.89,0,.64-.12,1.32-.36,2.04l-2.41,7.14-5.31.02,2.39-7.06c.18-.57.28-1.1.28-1.6,0-.96-.33-1.72-.98-2.28-.65-.56-1.54-.84-2.67-.84h-3.82l-3.99,11.77-5.33.02,4.8-14.21,9.9-.04c2.03,0,3.73.39,5.1,1.17Z"/>
          <path class="cls-2" d="m330.26,110.06l-.83,2.49h-9.41c-.75,0-1.59.2-2.52.61-1.76.78-2.96,2.1-3.61,3.97-.18.58-.28,1.14-.28,1.66,0,.93.3,1.67.9,2.22s1.43.83,2.5.83h3.93l1.98-5.88h5.33l-2.8,8.38-10.01-.02c-2.02,0-3.71-.39-5.08-1.17-1.59-.91-2.39-2.21-2.39-3.89,0-.66.13-1.36.38-2.11.98-2.9,3.27-4.96,6.87-6.15,1.86-.63,3.59-.94,5.18-.94h9.84Z"/>
          <path class="cls-2" d="m364.27,110.06l-.83,2.49h-9.41c-.75,0-1.59.2-2.52.61-1.76.78-2.96,2.1-3.61,3.97-.18.58-.28,1.14-.28,1.66,0,.93.3,1.67.9,2.22s1.43.83,2.5.83h3.93l1.98-5.88h5.33l-2.8,8.38-10.01-.02c-2.02,0-3.71-.39-5.08-1.17-1.59-.91-2.39-2.21-2.39-3.89,0-.66.13-1.36.38-2.11.98-2.9,3.27-4.96,6.87-6.15,1.86-.63,3.59-.94,5.18-.94h9.84Z"/>
          <path class="cls-2" d="m382.66,119.42l2.39,4.93-5.25-.02-2.07-4.24h-5.12l-1.45,4.24-5.33.02,4.8-14.26h11.18c1.61,0,3.04.24,4.31.72,1.71.64,2.56,1.62,2.56,2.92,0,.37-.07.76-.21,1.17-.68,2.04-2.62,3.55-5.8,4.52Zm.02-4.98c0-.63-.31-1.11-.94-1.44-.51-.3-1.14-.45-1.88-.45h-4.71l-1.71,5.05h4.86c.57,0,1.19-.11,1.88-.34,1.24-.42,2.02-1.11,2.35-2.09.1-.27.15-.52.15-.74Z"/>
          <path class="cls-2" d="m412.51,111.21c1.64.88,2.45,2.16,2.45,3.82,0,.61-.11,1.27-.34,1.98-1.02,3.03-3.34,5.15-6.95,6.38-1.85.63-3.58.94-5.18.94h-2.86c-2.03,0-3.73-.39-5.1-1.17-1.59-.91-2.39-2.21-2.39-3.89,0-.66.13-1.36.38-2.11.98-2.9,3.27-4.96,6.87-6.15,1.86-.63,3.59-.94,5.18-.94h2.88c1.99,0,3.68.38,5.06,1.15Zm-3.22,4.42c0-.93-.3-1.67-.9-2.23-.6-.56-1.43-.84-2.5-.84h-1.73c-.75,0-1.59.2-2.52.61-1.76.78-2.97,2.1-3.61,3.97-.18.58-.28,1.14-.28,1.66,0,.93.3,1.67.9,2.22s1.43.83,2.5.83h1.73c.77,0,1.6-.2,2.5-.61,1.76-.76,2.97-2.08,3.61-3.95.2-.58.3-1.14.3-1.66Z"/>
          <path class="cls-2" d="m441.57,110.06l-4.8,14.28-9.9-.02c-2.03,0-3.73-.39-5.1-1.17-1.61-.91-2.41-2.21-2.41-3.89,0-.63.12-1.31.36-2.04l2.41-7.14,5.31-.02-2.39,7.07c-.2.57-.3,1.1-.3,1.6,0,.96.33,1.72.99,2.29.66.56,1.55.84,2.68.84h3.82l3.97-11.77,5.36-.02Z"/>
          <path class="cls-2" d="m448.57,124.32l-5.33.02,4.8-14.26h11.18c1.61,0,3.04.24,4.31.72,1.71.64,2.56,1.62,2.56,2.92,0,.37-.07.76-.21,1.17-.7,2.1-2.6,3.58-5.7,4.47-1.65.48-3.14.72-4.48.72h-5.68l-1.45,4.24Zm2.28-6.72h4.86c.57,0,1.19-.11,1.88-.34,1.24-.42,2.02-1.11,2.35-2.09.1-.27.15-.52.15-.74,0-.63-.31-1.11-.94-1.44-.51-.3-1.14-.45-1.88-.45h-4.71l-1.71,5.05Z"/>
        </g>
        <polygon class="cls-2" points="52.24 113.97 50.94 118.4 175.12 118.4 176.6 113.97 52.24 113.97"/>
        <g>
          <g>
            <path class="cls-2" d="m197.95,69.99c-1.58.51-3.02.76-4.33.76h-11.22l1.28-3.7h-12.34l-6.5,18.92,12.3-.05,3.35-9.59h13.09c3.08,0,6.53-.54,10.34-1.62,5.86-1.63,9.85-4.19,11.99-7.66h-13.49c-.97,1.29-2.45,2.27-4.46,2.94Z"/>
            <path class="cls-2" d="m211.63,55.38c-2.92-1.08-6.23-1.62-9.94-1.62h-25.79l-3.54,10.29h12.35l1.62-4.7h10.88c1.71,0,3.15.34,4.33,1.01,1.44.74,2.17,1.83,2.17,3.25,0,.14-.03.29-.05.44h13.57c.2-.71.31-1.4.31-2.07,0-2.94-1.97-5.14-5.91-6.6Z"/>
          </g>
          <g>
            <polygon class="cls-2" points="157.13 53.81 153.59 64.09 165.94 64.09 169.49 53.76 157.13 53.81"/>
            <path class="cls-2" d="m147.98,80.4h-8.81c-2.59,0-4.65-.64-6.18-1.91-1.53-1.27-2.29-2.99-2.29-5.16,0-1.12.23-2.32.69-3.61l.9-2.61h-12.23l-.98,2.84c-.56,1.66-.84,3.2-.84,4.62,0,3.79,1.85,6.71,5.56,8.78,3.15,1.76,7.07,2.64,11.76,2.64l22.84.05,6.49-18.92h-12.35l-4.58,13.29Z"/>
            <polygon class="cls-2" points="136.9 53.76 124.65 53.81 121.1 64.09 133.33 64.09 136.9 53.76"/>
          </g>
          <g>
            <path class="cls-2" d="m105.41,68.47c-2.63-.88-5.58-1.32-8.86-1.32,0,0-6.84-.02-7.26-.05h-19.49c.57,1.83,2.34,3.25,5.34,4.26,2.63.88,5.56,1.32,8.81,1.32h6.15c1.57,0,2.99.19,4.23.56,1.84.54,2.76,1.41,2.76,2.6,0,.27-.05.56-.15.87-.53,1.5-2.1,2.55-4.72,3.17-1.44.34-2.92.51-4.43.51h-22.3l-1.92,5.63,26.13-.05c2.92-.07,6.02-.56,9.3-1.47,6.4-1.72,10.27-4.5,11.62-8.35.23-.74.34-1.43.34-2.07,0-2.53-1.85-4.4-5.56-5.62Z"/>
            <path class="cls-2" d="m81.49,55.33c-6.37,1.72-10.22,4.5-11.57,8.35-.04.14-.06.28-.1.42h13.74s-.01-.07-.01-.11c0-.27.07-.56.2-.87.49-1.5,2.07-2.55,4.72-3.17,1.41-.34,2.87-.51,4.38-.51h22.15l1.97-5.58h-26.13c-2.95.07-6.07.56-9.35,1.47Z"/>
          </g>
          <g>
            <polygon class="cls-2" points="378.56 53.86 376.64 59.44 392.78 59.44 391.18 64.09 403.53 64.09 405.13 59.44 421.28 59.44 423.2 53.86 378.56 53.86"/>
            <polygon class="cls-2" points="383.63 86.03 395.98 85.98 402.49 67.1 390.14 67.1 383.63 86.03"/>
          </g>
          <g>
            <path class="cls-2" d="m461.75,68.47c-2.63-.88-5.58-1.32-8.86-1.32,0,0-6.84-.02-7.26-.05h-19.49c.57,1.83,2.34,3.25,5.34,4.26,2.63.88,5.56,1.32,8.81,1.32h6.15c1.58,0,2.99.19,4.23.56,1.84.54,2.76,1.41,2.76,2.6,0,.27-.05.56-.15.87-.53,1.5-2.1,2.55-4.72,3.17-1.44.34-2.92.51-4.43.51h-22.09l-1.65,5.63,25.66-.05c2.92-.07,6.02-.56,9.3-1.47,6.4-1.72,10.27-4.5,11.62-8.35.23-.74.34-1.43.34-2.07,0-2.53-1.85-4.4-5.56-5.62Z"/>
            <path class="cls-2" d="m447.18,53.86c-2.95.07-6.07.56-9.35,1.47-6.37,1.72-10.22,4.5-11.57,8.35-.04.14-.06.28-.1.42h13.74s-.01-.07-.01-.11c0-.27.07-.56.2-.87.49-1.5,2.07-2.55,4.72-3.17,1.41-.34,2.87-.51,4.38-.51h22.71l1.41-5.58h-26.13Z"/>
          </g>
          <g>
            <path class="cls-2" d="m323.69,70.3c-.56,1.59-.84,3.08-.84,4.46,0,3.75,1.89,6.65,5.66,8.68,3.18,1.69,7.09,2.54,11.71,2.54h20.97l1.92-5.58h-19.29c-2.4-.03-4.3-.69-5.71-1.97-1.51-1.34-2.23-3.26-2.17-5.75h29.88l1.92-5.58h-42.64c-.55,1.01-1.02,2.07-1.4,3.19Z"/>
            <path class="cls-2" d="m339.68,55.94c-5.52,1.84-9.71,4.56-12.59,8.16h12.87c.92-.97,1.98-1.82,3.19-2.56,2.35-1.43,4.86-2.15,7.56-2.15h19.69l1.92-5.63h-20.67c-3.67,0-7.66.73-11.96,2.18Z"/>
          </g>
          <g>
            <path class="cls-2" d="m253.8,70.91h-20.23c.48-1.38,1.06-2.64,1.76-3.8h-12.39c-.53.99-.99,2.02-1.37,3.12l-5.46,15.8,12.26-.05,3.25-9.49h20.28l-3.25,9.54,12.3-.05,6.51-18.87h-12.33l-1.32,3.8Z"/>
            <path class="cls-2" d="m264.38,53.81h-14.82c-3.74,0-7.74.71-12.01,2.13-5.54,1.82-9.75,4.55-12.63,8.15h12.68c.54-.57,1.11-1.1,1.73-1.58,2.62-2.08,5.71-3.12,9.25-3.12h9.2l-1.63,4.7h12.32l3.53-10.24c1.71,0-.84-.02-7.63-.05Z"/>
          </g>
          <g>
            <path class="cls-2" d="m312.52,69.85c1.77-.85,3.23-1.77,4.41-2.74h-43.13l-6.51,18.92,25.45-.04c3.17,0,6.57-.41,10.19-1.23,6.99-1.55,11.14-4.24,12.45-8.06.29-.81.44-1.54.44-2.18,0-1.56-1.11-3.12-3.3-4.67Zm-10.58,6.85c-.53,1.53-2.12,2.59-4.78,3.2-1.45.38-2.92.55-4.42.55h-11.23l2.65-7.71h10.88c1.54,0,2.95.19,4.22.56,1.88.54,2.81,1.4,2.81,2.59,0,.27-.04.54-.14.81Z"/>
            <path class="cls-2" d="m313.84,55.18c-2.99-.88-6.23-1.32-9.75-1.32h-25.74l-3.52,10.24h12.33l1.57-4.65h10.88c1.54,0,2.95.19,4.23.56,1.84.58,2.76,1.45,2.76,2.6,0,.27-.05.56-.15.87-.07.22-.17.42-.29.62h13.39c.23-.41.43-.83.58-1.25.23-.64.34-1.25.34-1.83,0-2.64-2.21-4.58-6.64-5.84Z"/>
          </g>
        </g>
        <g>
          <path class="cls-2" d="m492.84,51.85c1.61,1.61,2.41,3.54,2.41,5.81s-.82,4.3-2.46,5.9c-1.6,1.55-3.51,2.32-5.75,2.32s-4.26-.79-5.84-2.38c-1.58-1.58-2.38-3.53-2.38-5.84s.86-4.4,2.56-5.99c1.61-1.49,3.49-2.23,5.65-2.23s4.2.8,5.81,2.41Zm-5.81-1c-1.89,0-3.5.68-4.83,2.05-1.31,1.34-1.96,2.92-1.96,4.76s.66,3.52,1.99,4.85c1.32,1.33,2.92,1.99,4.79,1.99s3.46-.67,4.78-2.01c1.32-1.35,1.99-2.96,1.99-4.84s-.66-3.42-1.97-4.76c-1.33-1.37-2.93-2.05-4.79-2.05Zm-1.22,8.16v3.22h-2.38v-9.11c.56,0,1.41,0,2.54,0,1.13,0,1.75,0,1.88.02.72.05,1.32.21,1.8.47.81.45,1.22,1.17,1.22,2.17,0,.77-.21,1.32-.64,1.66-.43.34-.95.55-1.58.61.57.12,1,.29,1.29.52.54.43.8,1.11.8,2.04v.81c0,.09,0,.18.02.27.01.09.03.18.06.27l.08.26h-2.27c-.07-.29-.12-.71-.14-1.26-.02-.55-.07-.92-.14-1.11-.12-.32-.34-.54-.67-.67-.18-.07-.45-.12-.81-.14l-.52-.03h-.5Zm.93-1.64c.56,0,.99-.11,1.3-.33.31-.22.47-.58.47-1.08s-.25-.84-.74-1.04c-.33-.13-.79-.19-1.38-.19h-.58v2.64h.93Z"/>
          <path class="cls-2" d="m487.03,66.01c-2.34,0-4.34-.81-5.94-2.42-1.6-1.6-2.42-3.6-2.42-5.94s.88-4.48,2.61-6.09c1.63-1.5,3.56-2.27,5.75-2.27,2.3,0,4.28.82,5.91,2.45h0c1.62,1.63,2.45,3.61,2.45,5.91s-.84,4.38-2.51,6c-1.62,1.57-3.58,2.36-5.85,2.36Zm0-16.43c-2.12,0-3.99.74-5.56,2.19-1.67,1.56-2.52,3.54-2.52,5.89s.79,4.2,2.33,5.74c1.55,1.55,3.48,2.34,5.74,2.34s4.09-.77,5.66-2.28c1.61-1.56,2.42-3.51,2.42-5.8s-.8-4.14-2.37-5.71c-1.57-1.57-3.49-2.37-5.71-2.37Zm0,15.06c-1.9,0-3.55-.68-4.89-2.04-1.35-1.35-2.03-3.01-2.03-4.95s.67-3.5,2-4.86c1.35-1.39,3.01-2.09,4.93-2.09s3.54.7,4.89,2.09c1.33,1.36,2.01,3,2.01,4.86s-.68,3.57-2.03,4.94c-1.34,1.36-2.99,2.05-4.88,2.05Zm0-13.66c-1.84,0-3.43.68-4.73,2.01-1.28,1.3-1.92,2.87-1.92,4.66s.66,3.46,1.95,4.75c1.29,1.3,2.87,1.95,4.7,1.95s3.4-.66,4.68-1.96c1.29-1.31,1.95-2.91,1.95-4.74s-.65-3.35-1.93-4.66c-1.3-1.33-2.88-2.01-4.7-2.01Zm4.04,11.38h-2.57l-.03-.1c-.08-.3-.13-.72-.15-1.29-.03-.66-.09-.95-.14-1.07-.1-.28-.3-.48-.59-.59-.17-.07-.43-.11-.77-.14l-.52-.03h-.36v3.22h-2.66v-9.38h.14c.56,0,1.41,0,2.54,0,1.18,0,1.76,0,1.89.02.74.05,1.36.22,1.85.48.85.47,1.29,1.24,1.29,2.3,0,.81-.23,1.4-.69,1.77-.3.24-.65.42-1.04.53.31.11.56.24.76.39.57.46.85,1.18.85,2.15v.81c0,.08,0,.17.02.25,0,.08.03.16.06.24l.13.44Zm-2.35-.28h1.98l-.02-.08c-.03-.09-.05-.19-.07-.29-.01-.09-.02-.19-.02-.28v-.81c0-.88-.25-1.53-.75-1.93-.27-.21-.68-.38-1.23-.5l-.86-.18.88-.09c.59-.06,1.1-.26,1.5-.58.39-.31.59-.84.59-1.55,0-.96-.37-1.63-1.14-2.05-.45-.25-1.04-.4-1.74-.45-.12,0-.71-.01-1.87-.02-1.04,0-1.84,0-2.4,0v8.83h2.11v-3.22h.64l.53.03c.38.02.66.07.86.16.36.14.61.39.75.75.08.21.13.59.15,1.16.02.48.06.86.12,1.13Zm-1.98-4.58h-1.06v-2.92h.72c.61,0,1.09.07,1.43.2.55.21.82.61.82,1.17s-.18.94-.52,1.19c-.34.24-.8.36-1.39.36Zm-.79-.28h.79c.52,0,.94-.1,1.22-.31.28-.2.41-.51.41-.97s-.21-.74-.65-.91c-.31-.12-.76-.18-1.33-.18h-.44v2.37Z"/>
        </g>
      </g>
    </g>
  </g>
</svg>