<!-- icon666.com - MILLIONS vector ICONS FREE --><svg version="1.1" id="Capa_1" xmlns="http://www.w3.org/2000/svg" xmlns:xlink="http://www.w3.org/1999/xlink" x="0px" y="0px" viewBox="0 0 512 512" style="enable-background:new 0 0 512 512;" xml:space="preserve"><path style="fill:#643A14;" d="M232.646,477.051c-1.886-0.755-3.618-1.887-5.083-3.35c-2.842-2.84-4.439-6.694-4.44-10.712 l-0.096-375.742c-0.002-8.367,6.78-15.153,15.147-15.154l258.575-0.067c4.018-0.001,7.872,1.593,10.715,4.435 c2.842,2.84,4.439,6.694,4.44,10.712L512,462.915c0.002,8.367-6.78,15.153-15.147,15.154l-258.575,0.067 C236.331,478.136,234.421,477.761,232.646,477.051z"></path><path style="fill:#F8ECA6;" d="M163.18,494.713c-2.03,0.046-4.069-0.314-5.991-1.085c-3.729-1.496-6.712-4.412-8.291-8.107 L1.223,140.016c-3.289-7.694,0.283-16.597,7.977-19.886L246.967,18.503c3.695-1.58,7.865-1.627,11.595-0.13 c3.729,1.496,6.712,4.412,8.291,8.107l147.676,345.506c3.289,7.694-0.283,16.597-7.977,19.886L168.786,493.498 C166.994,494.264,165.09,494.669,163.18,494.713z"></path><path style="fill:#F5DE5D;" d="M414.529,371.985L266.854,26.48c-1.579-3.695-4.561-6.611-8.291-8.107 c-3.73-1.497-7.901-1.449-11.595,0.13L127.824,69.428l159.842,373.258l118.887-50.815 C414.246,388.583,417.818,379.68,414.529,371.985z"></path><path style="fill:#DA372B;" d="M231.324,325.186c-0.141,0.003-0.282,0.004-0.423,0.004c-3.174-0.015-78.012-1.061-103.542-60.791 c-10.835-25.349,0.974-54.788,26.323-65.623c9.09-3.885,18.894-4.961,28.334-3.281c5.308-7.985,12.862-14.328,21.952-18.212 c25.35-10.837,54.788,0.974,65.623,26.323c25.53,59.731-25.433,114.546-27.614,116.851 C239.193,323.394,235.357,325.093,231.324,325.186z"></path><path style="fill:#AA171F;" d="M269.605,203.6c-10.835-25.349-40.272-37.16-65.623-26.323c-9.09,3.885-16.644,10.228-21.952,18.212 l55.256,128.324c1.751-0.8,3.352-1.935,4.704-3.362C244.172,318.146,295.135,263.331,269.605,203.6z"></path></svg>