<svg width="41" height="41" viewBox="0 0 41 41" fill="none" xmlns="http://www.w3.org/2000/svg">
<path d="M29.0417 30.75C29.4947 30.75 29.9293 30.57 30.2496 30.2497C30.57 29.9293 30.75 29.4948 30.75 29.0417V11.9584C30.75 11.5053 30.57 11.0708 30.2496 10.7504C29.9293 10.43 29.4947 10.25 29.0417 10.25C28.5886 10.25 28.1541 10.43 27.8337 10.7504C27.5133 11.0708 27.3333 11.5053 27.3333 11.9584V29.0417C27.3333 29.4948 27.5133 29.9293 27.8337 30.2497C28.1541 30.57 28.5886 30.75 29.0417 30.75ZM30.75 8.5417H32.4583V10.25C32.4583 10.7031 32.6383 11.1376 32.9587 11.458C33.2791 11.7784 33.7136 11.9584 34.1667 11.9584C34.6197 11.9584 35.0543 11.7784 35.3746 11.458C35.695 11.1376 35.875 10.7031 35.875 10.25V8.5417H37.5833C38.0364 8.5417 38.4709 8.36171 38.7913 8.04134C39.1117 7.72096 39.2917 7.28644 39.2917 6.83336C39.2917 6.38028 39.1117 5.94576 38.7913 5.62539C38.4709 5.30501 38.0364 5.12503 37.5833 5.12503H35.875V3.41669C35.875 2.96362 35.695 2.5291 35.3746 2.20872C35.0543 1.88835 34.6197 1.70836 34.1667 1.70836C33.7136 1.70836 33.2791 1.88835 32.9587 2.20872C32.6383 2.5291 32.4583 2.96362 32.4583 3.41669V5.12503H30.75C30.2969 5.12503 29.8624 5.30501 29.542 5.62539C29.2216 5.94576 29.0417 6.38028 29.0417 6.83336C29.0417 7.28644 29.2216 7.72096 29.542 8.04134C29.8624 8.36171 30.2969 8.5417 30.75 8.5417ZM36.9 15.375C36.6801 15.4199 36.4712 15.5076 36.2853 15.6331C36.0993 15.7587 35.9399 15.9197 35.8161 16.1069C35.6924 16.2941 35.6067 16.5038 35.5641 16.7241C35.5214 16.9445 35.5226 17.171 35.5675 17.3909C36.2345 20.6302 35.8392 23.9983 34.4402 26.9952C33.0412 29.992 30.7132 32.4579 27.8016 34.0267C24.8901 35.5956 21.5503 36.1838 18.278 35.704C15.0056 35.2242 11.9753 33.702 9.63664 31.3634C7.29802 29.0248 5.77584 25.9944 5.29605 22.722C4.81626 19.4497 5.40444 16.1099 6.97329 13.1984C8.54213 10.2868 11.008 7.95881 14.0049 6.55983C17.0017 5.16086 20.3698 4.76553 23.6092 5.43253C24.0622 5.52314 24.5328 5.43006 24.9172 5.17376C25.3017 4.91746 25.5685 4.51894 25.6592 4.06586C25.7498 3.61278 25.6567 3.14227 25.4004 2.75782C25.1441 2.37337 24.7456 2.10648 24.2925 2.01586C23.0423 1.78293 21.7714 1.67988 20.5 1.70836C16.7833 1.70836 13.1502 2.81047 10.0599 4.87533C6.96962 6.94018 4.56105 9.87504 3.13875 13.3088C1.71646 16.7425 1.34432 20.5209 2.0694 24.1661C2.79448 27.8113 4.58421 31.1597 7.21227 33.7877C9.84034 36.4158 13.1887 38.2055 16.8339 38.9306C20.4791 39.6557 24.2575 39.2836 27.6912 37.8613C31.125 36.439 34.0598 34.0304 36.1247 30.9401C38.1895 27.8498 39.2917 24.2167 39.2917 20.5C39.2953 19.2377 39.1693 17.9783 38.9158 16.7417C38.8749 16.5187 38.79 16.3062 38.6661 16.1164C38.5422 15.9265 38.3818 15.7633 38.1942 15.6361C38.0066 15.5089 37.7955 15.4203 37.5733 15.3755C37.3511 15.3307 37.1222 15.3305 36.9 15.375ZM17.0833 22.2084H18.7917C20.1509 22.2084 21.4545 21.6684 22.4156 20.7073C23.3767 19.7462 23.9167 18.4426 23.9167 17.0834V15.375C23.9167 14.0158 23.3767 12.7122 22.4156 11.7511C21.4545 10.79 20.1509 10.25 18.7917 10.25H17.0833C15.7241 10.25 14.4205 10.79 13.4594 11.7511C12.4983 12.7122 11.9583 14.0158 11.9583 15.375C11.9583 15.8281 12.1383 16.2626 12.4587 16.583C12.7791 16.9034 13.2136 17.0834 13.6667 17.0834C14.1197 17.0834 14.5543 16.9034 14.8746 16.583C15.195 16.2626 15.375 15.8281 15.375 15.375C15.375 14.922 15.555 14.4874 15.8753 14.1671C16.1957 13.8467 16.6302 13.6667 17.0833 13.6667H18.7917C19.2447 13.6667 19.6793 13.8467 19.9996 14.1671C20.32 14.4874 20.5 14.922 20.5 15.375V17.0834C20.5 17.5364 20.32 17.971 19.9996 18.2913C19.6793 18.6117 19.2447 18.7917 18.7917 18.7917H17.0833C15.7241 18.7917 14.4205 19.3316 13.4594 20.2928C12.4983 21.2539 11.9583 22.5575 11.9583 23.9167V29.0417C11.9583 29.4948 12.1383 29.9293 12.4587 30.2497C12.7791 30.57 13.2136 30.75 13.6667 30.75H22.2083C22.6614 30.75 23.0959 30.57 23.4163 30.2497C23.7367 29.9293 23.9167 29.4948 23.9167 29.0417C23.9167 28.5886 23.7367 28.1541 23.4163 27.8337C23.0959 27.5133 22.6614 27.3334 22.2083 27.3334H15.375V23.9167C15.375 23.4636 15.555 23.0291 15.8753 22.7087C16.1957 22.3883 16.6302 22.2084 17.0833 22.2084Z" fill="#434650"/>
</svg>
