<svg width="24" height="24" viewBox="0 0 24 24" fill="none" xmlns="http://www.w3.org/2000/svg">
<g clip-path="url(#clip0_9_261)">
<path d="M12.0001 1.33331C9.92353 1.33505 7.93205 2.15844 6.4606 3.62364C4.98915 5.08885 4.1573 7.0768 4.14673 9.15331C4.14673 12.2666 5.8934 14.8733 7.1734 16.7733L7.40673 17.12C8.68025 18.9657 10.0464 20.7458 11.5001 22.4533L12.0067 23.0466L12.5134 22.4533C13.9668 20.7456 15.333 18.9656 16.6067 17.12L16.8401 16.7666C18.1134 14.8666 19.8601 12.2666 19.8601 9.15331C19.8495 7.07565 19.0167 5.08669 17.5438 3.62129C16.0709 2.1559 14.0778 1.33329 12.0001 1.33331ZM12.0001 12.6666C11.1351 12.6666 10.2896 12.4102 9.57037 11.9296C8.85118 11.4491 8.29064 10.766 7.95963 9.96692C7.62862 9.16779 7.54202 8.28846 7.71076 7.44012C7.87951 6.59177 8.29603 5.81252 8.90765 5.2009C9.51927 4.58928 10.2985 4.17276 11.1469 4.00401C11.9952 3.83527 12.8745 3.92187 13.6737 4.25288C14.4728 4.58389 15.1558 5.14443 15.6364 5.86362C16.1169 6.58281 16.3734 7.42835 16.3734 8.29331C16.3734 9.45319 15.9126 10.5656 15.0925 11.3857C14.2723 12.2059 13.1599 12.6666 12.0001 12.6666Z" fill="#994A08"/>
<path d="M12.0001 10.78C13.3734 10.78 14.4868 9.66666 14.4868 8.29331C14.4868 6.91996 13.3734 5.80664 12.0001 5.80664C10.6267 5.80664 9.51343 6.91996 9.51343 8.29331C9.51343 9.66666 10.6267 10.78 12.0001 10.78Z" fill="#994A08"/>
</g>
<defs>
<clipPath id="clip0_9_261">
<rect width="24" height="24" fill="white"/>
</clipPath>
</defs>
</svg>
