<svg width="28" height="28" viewBox="0 0 28 28" fill="none" xmlns="http://www.w3.org/2000/svg">
<path d="M15.3708 0.666687C16.8708 0.670687 17.6321 0.678687 18.2894 0.697354L18.5481 0.706687C18.8468 0.717354 19.1414 0.730687 19.4974 0.746687C20.9161 0.813354 21.8841 1.03735 22.7334 1.36669C23.6135 1.70535 24.3548 2.16402 25.0961 2.90402C25.7741 3.57055 26.2987 4.37681 26.6335 5.26669C26.9628 6.11602 27.1868 7.08402 27.2535 8.50402C27.2695 8.85869 27.2828 9.15335 27.2935 9.45335L27.3015 9.71202C27.3215 10.368 27.3295 11.1294 27.3321 12.6294L27.3335 13.624V15.3707C27.3367 16.3432 27.3265 17.3158 27.3028 18.288L27.2948 18.5467C27.2841 18.8467 27.2708 19.1414 27.2548 19.496C27.1881 20.916 26.9615 21.8827 26.6335 22.7334C26.2997 23.6237 25.7749 24.4302 25.0961 25.096C24.4294 25.7738 23.6232 26.2984 22.7334 26.6334C21.8841 26.9627 20.9161 27.1867 19.4974 27.2534C19.1811 27.2683 18.8646 27.2816 18.5481 27.2934L18.2894 27.3014C17.6321 27.32 16.8708 27.3294 15.3708 27.332L14.3761 27.3334H12.6308C11.6578 27.3367 10.6848 27.3265 9.71212 27.3027L9.45345 27.2947C9.13693 27.2827 8.82048 27.2689 8.50412 27.2534C7.08545 27.1867 6.11745 26.9627 5.26678 26.6334C4.37701 26.2992 3.57107 25.7745 2.90545 25.096C2.22685 24.4297 1.70175 23.6234 1.36678 22.7334C1.03745 21.884 0.813452 20.916 0.746785 19.496C0.73193 19.1796 0.718597 18.8632 0.706785 18.5467L0.700118 18.288C0.675548 17.3158 0.664436 16.3432 0.666785 15.3707V12.6294C0.663064 11.6568 0.672842 10.6843 0.696118 9.71202L0.705452 9.45335C0.716118 9.15335 0.729452 8.85869 0.745452 8.50402C0.812118 7.08402 1.03612 6.11735 1.36545 5.26669C1.70027 4.37589 2.22641 3.56939 2.90678 2.90402C3.57224 2.22599 4.37764 1.70134 5.26678 1.36669C6.11745 1.03735 7.08412 0.813354 8.50412 0.746687C8.85878 0.730687 9.15478 0.717354 9.45345 0.706687L9.71212 0.698687C10.6844 0.674997 11.6569 0.664774 12.6295 0.66802L15.3708 0.666687ZM14.0001 7.33335C12.232 7.33335 10.5363 8.03573 9.28607 9.28598C8.03583 10.5362 7.33345 12.2319 7.33345 14C7.33345 15.7681 8.03583 17.4638 9.28607 18.7141C10.5363 19.9643 12.232 20.6667 14.0001 20.6667C15.7682 20.6667 17.4639 19.9643 18.7142 18.7141C19.9644 17.4638 20.6668 15.7681 20.6668 14C20.6668 12.2319 19.9644 10.5362 18.7142 9.28598C17.4639 8.03573 15.7682 7.33335 14.0001 7.33335ZM14.0001 10C14.5254 9.99993 15.0456 10.1033 15.5309 10.3042C16.0162 10.5052 16.4572 10.7998 16.8287 11.1711C17.2002 11.5425 17.4949 11.9834 17.696 12.4687C17.8971 12.9539 18.0007 13.4741 18.0008 13.9994C18.0009 14.5246 17.8975 15.0448 17.6966 15.5301C17.4956 16.0155 17.2011 16.4565 16.8297 16.828C16.4583 17.1995 16.0174 17.4942 15.5321 17.6953C15.0469 17.8964 14.5267 17.9999 14.0015 18C12.9406 18 11.9232 17.5786 11.173 16.8284C10.4229 16.0783 10.0015 15.0609 10.0015 14C10.0015 12.9392 10.4229 11.9217 11.173 11.1716C11.9232 10.4214 12.9406 10 14.0015 10M21.0014 5.33335C20.5594 5.33335 20.1355 5.50895 19.8229 5.82151C19.5104 6.13407 19.3348 6.55799 19.3348 7.00002C19.3348 7.44205 19.5104 7.86597 19.8229 8.17853C20.1355 8.49109 20.5594 8.66669 21.0014 8.66669C21.4435 8.66669 21.8674 8.49109 22.18 8.17853C22.4925 7.86597 22.6681 7.44205 22.6681 7.00002C22.6681 6.55799 22.4925 6.13407 22.18 5.82151C21.8674 5.50895 21.4435 5.33335 21.0014 5.33335Z" fill="#994A08"/>
</svg>
