<svg width="30" height="32" viewBox="0 0 30 32" fill="none" xmlns="http://www.w3.org/2000/svg">
<g clip-path="url(#clip0_9_258)">
<path d="M19.9051 23.9366L22.3661 12.415C22.4665 11.9274 22.4079 11.5782 22.1903 11.3676C21.9727 11.157 21.6853 11.1182 21.3281 11.2512L6.86384 16.7876C6.54018 16.9095 6.31975 17.048 6.20257 17.2032C6.08538 17.3584 6.07143 17.5052 6.16071 17.6438C6.25 17.7823 6.42857 17.8904 6.69643 17.968L10.3962 19.1152L18.9844 13.7451C19.2187 13.5899 19.3973 13.5567 19.5201 13.6453C19.5982 13.7008 19.5759 13.7839 19.4531 13.8947L12.5056 20.1293L12.2377 23.92C12.4944 23.92 12.7455 23.798 12.9911 23.5542L14.7991 21.8251L18.5491 24.5684C19.2634 24.9674 19.7154 24.7568 19.9051 23.9366ZM30 17.1035C30 19.1207 29.6038 21.0493 28.8114 22.8892C28.019 24.7291 26.9531 26.3141 25.6138 27.6441C24.2746 28.9742 22.6786 30.0326 20.8259 30.8196C18.9732 31.6065 17.0312 32 15 32C12.9687 32 11.0268 31.6065 9.17411 30.8196C7.32143 30.0326 5.72545 28.9742 4.38616 27.6441C3.04687 26.3141 1.98103 24.7291 1.18862 22.8892C0.396205 21.0493 0 19.1207 0 17.1035C0 15.0862 0.396205 13.1576 1.18862 11.3177C1.98103 9.47785 3.04687 7.89287 4.38616 6.56282C5.72545 5.23277 7.32143 4.17427 9.17411 3.38733C11.0268 2.60038 12.9688 2.20691 15 2.20691C17.0312 2.20691 18.9732 2.60038 20.8259 3.38733C22.6786 4.17427 24.2746 5.23277 25.6138 6.56282C26.9531 7.89287 28.019 9.47785 28.8114 11.3177C29.6038 13.1576 30 15.0862 30 17.1035Z" fill="#994A08"/>
</g>
<defs>
<clipPath id="clip0_9_258">
<rect width="30" height="32" fill="white"/>
</clipPath>
</defs>
</svg>
