<svg width="32" height="32" fill="none" xmlns="http://www.w3.org/2000/svg"><path d="M16 9.59A6.4 6.4 0 0 0 9.59 16 6.4 6.4 0 0 0 16 22.41 6.4 6.4 0 0 0 22.41 16 6.4 6.4 0 0 0 16 9.59Zm0 10.576A4.174 4.174 0 0 1 11.834 16 4.174 4.174 0 0 1 16 11.834 4.174 4.174 0 0 1 20.166 16 4.174 4.174 0 0 1 16 20.166Zm6.672-12.332c-.828 0-1.497.67-1.497 1.497 0 .828.669 1.497 1.497 1.497a1.493 1.493 0 0 0 1.383-2.07 1.495 1.495 0 0 0-1.383-.924ZM28.494 16c0-1.725.015-3.434-.081-5.156-.097-2-.554-3.775-2.016-5.238-1.466-1.465-3.238-1.919-5.238-2.015-1.725-.097-3.434-.082-5.156-.082-1.725 0-3.434-.015-5.156.082-2 .096-3.775.553-5.238 2.015-1.465 1.466-1.918 3.238-2.015 5.238-.097 1.725-.081 3.434-.081 5.156 0 1.722-.016 3.434.08 5.156.098 2 .554 3.775 2.016 5.238 1.466 1.465 3.238 1.919 5.238 2.015 1.725.097 3.434.082 5.156.082 1.725 0 3.434.015 5.156-.082 2-.096 3.775-.553 5.238-2.015 1.466-1.466 1.919-3.238 2.016-5.238.1-1.722.08-3.431.08-5.156Zm-2.75 7.369A3.97 3.97 0 0 1 24.8 24.8c-.44.44-.863.716-1.431.944-1.644.653-5.547.506-7.369.506s-5.728.147-7.372-.503a3.972 3.972 0 0 1-1.431-.944 3.998 3.998 0 0 1-.944-1.431c-.65-1.647-.503-5.55-.503-7.372s-.147-5.728.503-7.372c.228-.569.503-.994.944-1.431a4.04 4.04 0 0 1 1.431-.944c1.644-.65 5.55-.503 7.372-.503s5.728-.147 7.372.503a3.97 3.97 0 0 1 1.431.944c.44.44.716.862.944 1.431.65 1.644.503 5.55.503 7.372s.147 5.725-.506 7.369Z" fill="#85FF80"/></svg>