<svg width="51" height="51" fill="none" xmlns="http://www.w3.org/2000/svg"><path d="M36.125 38.25a2.125 2.125 0 0 0 2.125-2.125v-21.25a2.125 2.125 0 0 0-4.25 0v21.25a2.125 2.125 0 0 0 2.125 2.125Zm2.125-27.625h2.125v2.125a2.125 2.125 0 0 0 4.25 0v-2.125h2.125a2.125 2.125 0 0 0 0-4.25h-2.125V4.25a2.125 2.125 0 0 0-4.25 0v2.125H38.25a2.125 2.125 0 1 0 0 4.25Zm7.65 8.5a2.127 2.127 0 0 0-1.657 2.507A19.125 19.125 0 1 1 29.367 6.757a2.167 2.167 0 0 0 .85-4.25 22.949 22.949 0 0 0-4.717-.382A23.375 23.375 0 1 0 48.875 25.5a22.947 22.947 0 0 0-.468-4.675 2.125 2.125 0 0 0-2.507-1.7Zm-24.65 8.5h2.125a6.375 6.375 0 0 0 6.375-6.375v-2.125a6.375 6.375 0 0 0-6.375-6.375H21.25a6.375 6.375 0 0 0-6.375 6.375 2.125 2.125 0 0 0 4.25 0A2.125 2.125 0 0 1 21.25 17h2.125a2.125 2.125 0 0 1 2.125 2.125v2.125a2.125 2.125 0 0 1-2.125 2.125H21.25a6.375 6.375 0 0 0-6.375 6.375v6.375A2.125 2.125 0 0 0 17 38.25h10.625a2.125 2.125 0 0 0 0-4.25h-8.5v-4.25a2.125 2.125 0 0 1 2.125-2.125Z" fill="#434650"/></svg>