<svg width="24" height="24" viewBox="0 0 24 24" fill="none" xmlns="http://www.w3.org/2000/svg">
<g clip-path="url(#clip0_8_240)">
<path d="M12.0001 1.33325C9.92353 1.33499 7.93205 2.15838 6.4606 3.62358C4.98915 5.08879 4.1573 7.07674 4.14673 9.15325C4.14673 12.2666 5.8934 14.8733 7.1734 16.7733L7.40673 17.1199C8.68025 18.9657 10.0464 20.7457 11.5001 22.4533L12.0067 23.0466L12.5134 22.4533C13.9668 20.7456 15.333 18.9655 16.6067 17.1199L16.8401 16.7666C18.1134 14.8666 19.8601 12.2666 19.8601 9.15325C19.8495 7.07559 19.0167 5.08663 17.5438 3.62123C16.0709 2.15584 14.0778 1.33323 12.0001 1.33325ZM12.0001 12.6666C11.1351 12.6666 10.2896 12.4101 9.57037 11.9295C8.85118 11.449 8.29064 10.766 7.95963 9.96685C7.62862 9.16773 7.54202 8.2884 7.71076 7.44006C7.87951 6.59171 8.29603 5.81246 8.90765 5.20084C9.51927 4.58922 10.2985 4.1727 11.1469 4.00395C11.9952 3.83521 12.8745 3.92181 13.6737 4.25282C14.4728 4.58383 15.1558 5.14437 15.6364 5.86356C16.1169 6.58275 16.3734 7.42829 16.3734 8.29325C16.3734 9.45313 15.9126 10.5655 15.0925 11.3857C14.2723 12.2058 13.1599 12.6666 12.0001 12.6666Z" fill="#453938"/>
<path d="M12.0001 10.78C13.3734 10.78 14.4868 9.66666 14.4868 8.29331C14.4868 6.91996 13.3734 5.80664 12.0001 5.80664C10.6267 5.80664 9.51343 6.91996 9.51343 8.29331C9.51343 9.66666 10.6267 10.78 12.0001 10.78Z" fill="#453938"/>
</g>
<defs>
<clipPath id="clip0_8_240">
<rect width="24" height="24" fill="white"/>
</clipPath>
</defs>
</svg>
