<svg width="28" height="28" fill="none" xmlns="http://www.w3.org/2000/svg"><path d="M15.369.667c1.5.004 2.26.012 2.918.03l.259.01c.299.01.593.024.95.04 1.418.066 2.386.29 3.235.62a6.5 6.5 0 0 1 2.363 1.537 6.545 6.545 0 0 1 1.537 2.363c.33.849.554 1.817.62 3.237.016.355.03.65.04.95l.008.258c.02.656.028 1.417.03 2.917l.002.995v1.747c.003.972-.007 1.945-.03 2.917l-.008.259c-.011.3-.024.594-.04.949-.067 1.42-.294 2.387-.622 3.237a6.512 6.512 0 0 1-1.537 2.363 6.553 6.553 0 0 1-2.363 1.537c-.85.33-1.817.554-3.236.62-.316.015-.633.029-.95.04l-.258.008c-.657.019-1.418.028-2.918.031l-.995.001h-1.745a104.79 104.79 0 0 1-2.92-.03l-.258-.008a85.905 85.905 0 0 1-.95-.042c-1.418-.066-2.386-.29-3.236-.62a6.519 6.519 0 0 1-2.362-1.537 6.54 6.54 0 0 1-1.538-2.363c-.33-.849-.554-1.817-.62-3.237a98.81 98.81 0 0 1-.04-.95l-.007-.258c-.025-.972-.036-1.945-.033-2.917v-2.742c-.004-.972.006-1.945.029-2.917l.01-.259c.01-.3.023-.594.04-.949.066-1.42.29-2.387.62-3.237a6.507 6.507 0 0 1 1.54-2.363 6.53 6.53 0 0 1 2.36-1.537c.851-.33 1.818-.554 3.238-.62.355-.016.65-.03.95-.04L9.71.699c.972-.024 1.945-.034 2.917-.031L15.37.667Zm-1.371 6.666a6.667 6.667 0 1 0 0 13.333 6.667 6.667 0 0 0 0-13.333Zm0 2.667a4 4 0 1 1-.002 8.002A4 4 0 0 1 14 10m7-4.667a1.667 1.667 0 1 0 0 3.334 1.667 1.667 0 0 0 0-3.334Z" fill="#7E1C0F"/></svg>