<svg width="30" height="30" fill="none" xmlns="http://www.w3.org/2000/svg"><path d="m19.903 21.937 2.46-11.522c.101-.488.043-.837-.175-1.047-.217-.211-.505-.25-.862-.117L6.862 14.788c-.324.121-.544.26-.662.415-.117.155-.13.302-.041.44.089.14.267.247.535.325l3.7 1.147 8.588-5.37c.235-.155.413-.188.536-.1.078.056.056.139-.067.25l-6.948 6.234-.268 3.791c.257 0 .508-.122.754-.366l1.808-1.729 3.75 2.743c.714.4 1.166.189 1.356-.631Zm10.095-6.834c0 2.018-.396 3.946-1.189 5.786-.792 1.84-1.858 3.425-3.197 4.755-1.34 1.33-2.936 2.389-4.788 3.176A14.752 14.752 0 0 1 14.998 30c-2.031 0-3.973-.393-5.826-1.18-1.853-.787-3.449-1.846-4.788-3.176-1.34-1.33-2.405-2.915-3.198-4.755a14.476 14.476 0 0 1-1.188-5.785c0-2.018.396-3.946 1.188-5.786.793-1.84 1.859-3.425 3.198-4.755 1.34-1.33 2.935-2.389 4.788-3.176a14.751 14.751 0 0 1 5.826-1.18c2.031 0 3.973.393 5.826 1.18 1.852.787 3.448 1.846 4.788 3.176 1.339 1.33 2.405 2.915 3.197 4.755a14.476 14.476 0 0 1 1.189 5.786Z" fill="#7E1C0F"/></svg>