<svg width="64" height="67" viewBox="0 0 64 67" fill="none" xmlns="http://www.w3.org/2000/svg">
<rect x="64" y="66.9922" width="64" height="67" transform="rotate(-180 64 66.9922)" fill="#9D9D9D"/>
<rect x="55.999" y="59.0078" width="48" height="51" transform="rotate(-180 55.999 59.0078)" fill="#E6E6E6"/>
<path d="M19.2909 33.2968C18.9004 33.6873 18.9004 34.3205 19.2909 34.711L25.6549 41.075C26.0454 41.4655 26.6786 41.4655 27.0691 41.075C27.4596 40.6844 27.4596 40.0513 27.0691 39.6608L21.4123 34.0039L27.0691 28.3471C27.4596 27.9565 27.4596 27.3234 27.0691 26.9328C26.6786 26.5423 26.0454 26.5423 25.6549 26.9328L19.2909 33.2968ZM45.998 33.0039H19.9981V35.0039H45.998V33.0039Z" fill="#5A5A5A"/>
</svg>
