<svg width="69" height="69" viewBox="0 0 69 69" fill="none" xmlns="http://www.w3.org/2000/svg">
<path d="M48.875 51.75C49.6375 51.75 50.3688 51.4471 50.908 50.9079C51.4471 50.3687 51.75 49.6375 51.75 48.875V20.125C51.75 19.3625 51.4471 18.6312 50.908 18.092C50.3688 17.5529 49.6375 17.25 48.875 17.25C48.1125 17.25 47.3812 17.5529 46.8421 18.092C46.3029 18.6312 46 19.3625 46 20.125V48.875C46 49.6375 46.3029 50.3687 46.8421 50.9079C47.3812 51.4471 48.1125 51.75 48.875 51.75ZM51.75 14.375H54.625V17.25C54.625 18.0125 54.9279 18.7437 55.4671 19.2829C56.0062 19.8221 56.7375 20.125 57.5 20.125C58.2625 20.125 58.9938 19.8221 59.533 19.2829C60.0721 18.7437 60.375 18.0125 60.375 17.25V14.375H63.25C64.0125 14.375 64.7438 14.0721 65.283 13.5329C65.8221 12.9937 66.125 12.2625 66.125 11.5C66.125 10.7375 65.8221 10.0062 65.283 9.46704C64.7438 8.92787 64.0125 8.62497 63.25 8.62497H60.375V5.74997C60.375 4.98748 60.0721 4.25621 59.533 3.71704C58.9938 3.17787 58.2625 2.87497 57.5 2.87497C56.7375 2.87497 56.0062 3.17787 55.4671 3.71704C54.9279 4.25621 54.625 4.98748 54.625 5.74997V8.62497H51.75C50.9875 8.62497 50.2562 8.92787 49.7171 9.46704C49.1779 10.0062 48.875 10.7375 48.875 11.5C48.875 12.2625 49.1779 12.9937 49.7171 13.5329C50.2562 14.0721 50.9875 14.375 51.75 14.375ZM62.1 25.875C61.73 25.9504 61.3784 26.098 61.0655 26.3094C60.7525 26.5207 60.4842 26.7916 60.276 27.1067C60.0677 27.4217 59.9236 27.7747 59.8518 28.1454C59.78 28.5162 59.7819 28.8975 59.8575 29.2675C60.98 34.7191 60.3147 40.3873 57.9604 45.4308C55.606 50.4743 51.688 54.6242 46.7882 57.2644C41.8883 59.9047 36.2676 60.8945 30.7605 60.0871C25.2534 59.2796 20.1535 56.7179 16.2178 52.7822C12.2821 48.8465 9.72035 43.7465 8.9129 38.2395C8.10545 32.7324 9.09532 27.1117 11.7356 22.2118C14.3758 17.3119 18.5257 13.394 23.5692 11.0396C28.6127 8.68527 34.2809 8.01996 39.7325 9.14247C40.495 9.29497 41.2869 9.13833 41.9339 8.70699C42.5809 8.27566 43.03 7.60497 43.1825 6.84247C43.335 6.07998 43.1784 5.28813 42.747 4.64113C42.3157 3.99413 41.645 3.54497 40.8825 3.39247C38.7785 3.00047 36.6397 2.82705 34.5 2.87497C28.2452 2.87497 22.1308 4.72975 16.9301 8.20475C11.7294 11.6797 7.67595 16.6189 5.28232 22.3976C2.8887 28.1763 2.26242 34.5351 3.48268 40.6697C4.70294 46.8044 7.71493 52.4394 12.1378 56.8622C16.5606 61.2851 22.1956 64.297 28.3303 65.5173C34.4649 66.7376 40.8237 66.1113 46.6024 63.7177C52.3811 61.324 57.3202 57.2706 60.7952 52.0699C64.2702 46.8692 66.125 40.7548 66.125 34.5C66.1311 32.3756 65.9192 30.2561 65.4925 28.175C65.4237 27.7998 65.2808 27.442 65.0723 27.1226C64.8638 26.8031 64.5938 26.5284 64.2781 26.3143C63.9623 26.1002 63.6071 25.9511 63.2332 25.8757C62.8593 25.8003 62.4741 25.8 62.1 25.875ZM28.75 37.375H31.625C33.9125 37.375 36.1063 36.4663 37.7238 34.8488C39.3413 33.2313 40.25 31.0375 40.25 28.75V25.875C40.25 23.5875 39.3413 21.3937 37.7238 19.7762C36.1063 18.1587 33.9125 17.25 31.625 17.25H28.75C26.4625 17.25 24.2687 18.1587 22.6512 19.7762C21.0337 21.3937 20.125 23.5875 20.125 25.875C20.125 26.6375 20.4279 27.3687 20.9671 27.9079C21.5062 28.4471 22.2375 28.75 23 28.75C23.7625 28.75 24.4938 28.4471 25.0329 27.9079C25.5721 27.3687 25.875 26.6375 25.875 25.875C25.875 25.1125 26.1779 24.3812 26.7171 23.842C27.2562 23.3029 27.9875 23 28.75 23H31.625C32.3875 23 33.1188 23.3029 33.6579 23.842C34.1971 24.3812 34.5 25.1125 34.5 25.875V28.75C34.5 29.5125 34.1971 30.2437 33.6579 30.7829C33.1188 31.3221 32.3875 31.625 31.625 31.625H28.75C26.4625 31.625 24.2687 32.5337 22.6512 34.1512C21.0337 35.7687 20.125 37.9625 20.125 40.25V48.875C20.125 49.6375 20.4279 50.3687 20.9671 50.9079C21.5062 51.4471 22.2375 51.75 23 51.75H37.375C38.1375 51.75 38.8688 51.4471 39.4079 50.9079C39.9471 50.3687 40.25 49.6375 40.25 48.875C40.25 48.1125 39.9471 47.3812 39.4079 46.842C38.8688 46.3029 38.1375 46 37.375 46H25.875V40.25C25.875 39.4875 26.1779 38.7562 26.7171 38.217C27.2562 37.6779 27.9875 37.375 28.75 37.375Z" fill="black"/>
</svg>
