<svg width="126" height="129" viewBox="0 0 126 129" fill="none" xmlns="http://www.w3.org/2000/svg">
<path d="M86.5385 61.9131C87.8077 60.0735 89.5962 58.4639 91.9038 57.0842C94.2115 55.7045 96.4615 54.8997 98.6539 54.6698C100.731 56.8543 102.462 59.6711 103.846 63.1203C105.346 66.5695 106.096 70.7086 106.096 75.5374C106.096 81.1711 105.173 86.2299 103.327 90.7139C101.481 95.1979 99.3462 99.1069 96.9231 102.441C101.769 106.005 106.615 109.455 111.462 112.789C116.308 116.008 121.154 118.94 126 121.584V122.964C124.615 124.114 122.481 125.206 119.596 126.241C116.827 127.16 113.942 127.678 110.942 127.793C107.25 125.838 103.5 123.654 99.6923 121.239C96 118.71 92.3077 116.008 88.6154 113.134C83.8846 117.618 78.1731 121.412 71.4808 124.516C64.9039 127.505 56.6538 129 46.7308 129C39.3462 129 32.7115 128.138 26.8269 126.413C21.0577 124.574 16.1538 122.044 12.1154 118.825C8.19231 115.491 5.19231 111.639 3.11538 107.27C1.03846 102.786 0 97.8422 0 92.4385C0 87.9545 0.692308 83.9305 2.07692 80.3663C3.57692 76.8021 5.65385 73.5829 8.30769 70.7086C10.9615 67.8342 14.1346 65.2473 17.8269 62.9479C21.5192 60.6484 25.6731 58.5214 30.2885 56.5668C27.2885 52.6577 24.6923 48.6337 22.5 44.4947C20.4231 40.3556 19.3846 35.9866 19.3846 31.3877C19.3846 26.9037 20.3654 22.7647 22.3269 18.9706C24.4038 15.0615 27.1154 11.7273 30.4615 8.96791C33.9231 6.20855 37.8462 4.02406 42.2308 2.41444C46.7308 0.804813 51.4039 0 56.25 0C60.4039 0 64.0385 0.574866 67.1539 1.7246C70.2692 2.87433 72.8654 4.48395 74.9423 6.55347C77.0192 8.50802 78.5192 10.8075 79.4423 13.4519C80.4808 16.0963 81 18.9131 81 21.9024C81 26.3864 79.9615 30.4104 77.8846 33.9746C75.8077 37.4238 73.1538 40.5281 69.9231 43.2874C66.6923 46.0468 63.0577 48.5187 59.0192 50.7032C55.0962 52.7727 51.1731 54.6698 47.25 56.3944C49.0962 58.6938 51.5192 61.4532 54.5192 64.6725C57.5192 67.8917 60.9231 71.3409 64.7308 75.02C68.6538 78.6992 72.8654 82.5508 77.3654 86.5749C81.9808 90.5989 86.7692 94.5655 91.7308 98.4746C92.6538 96.635 93.5192 94.4505 94.3269 91.9211C95.1346 89.2767 95.5385 86.2874 95.5385 82.9532C95.5385 77.5495 94.5577 73.1805 92.5962 69.8463C90.6346 66.512 88.6154 63.8676 86.5385 61.9131ZM53.1346 119.342C60.4039 119.342 66.4615 118.307 71.3077 116.238C76.2692 114.053 80.25 111.697 83.25 109.167C77.9423 105.028 72.8077 100.717 67.8462 96.2326C62.8846 91.7487 58.2692 87.4372 54 83.2981C49.8462 79.0441 46.0385 75.0775 42.5769 71.3984C39.2308 67.6043 36.5192 64.3275 34.4423 61.5682C28.5577 64.3275 23.7692 67.6618 20.0769 71.5709C16.5 75.365 14.7115 80.7112 14.7115 87.6096C14.7115 92.7834 15.75 97.3249 17.8269 101.234C19.9038 105.143 22.6731 108.477 26.1346 111.237C29.5962 113.881 33.6346 115.893 38.25 117.273C42.9808 118.652 47.9423 119.342 53.1346 119.342ZM32.5385 26.3864C32.5385 30.9853 33.5769 35.3543 35.6539 39.4933C37.7308 43.6324 40.3269 47.6564 43.4423 51.5655C47.0192 49.7259 50.25 47.9438 53.1346 46.2192C56.1346 44.3797 58.6154 42.4251 60.5769 40.3556C62.6539 38.2861 64.2115 35.9866 65.25 33.4572C66.4039 30.9278 66.9808 27.996 66.9808 24.6618C66.9808 22.3623 66.6923 20.1778 66.1154 18.1083C65.5385 15.9238 64.6154 14.0267 63.3462 12.4171C62.0769 10.8075 60.4039 9.54278 58.3269 8.623C56.3654 7.58824 53.9423 7.07086 51.0577 7.07086C48.75 7.07086 46.4423 7.47326 44.1346 8.27807C41.9423 8.96791 39.9808 10.1176 38.25 11.7273C36.5192 13.2219 35.1346 15.1765 34.0962 17.5909C33.0577 20.0053 32.5385 22.9372 32.5385 26.3864Z" fill="#FFE5BE" fill-opacity="0.58"/>
</svg>
