<svg width="24" height="24" viewBox="0 0 24 24" fill="none" xmlns="http://www.w3.org/2000/svg">
<mask id="mask0_16_442" style="mask-type:luminance" maskUnits="userSpaceOnUse" x="5" y="2" width="14" height="21">
<path d="M12 20.5C12 20.5 6 13.5 6 9C6 5.68629 8.68629 3 12 3C15.3137 3 18 5.68629 18 9C18 13.5 12 20.5 12 20.5Z" fill="white" stroke="white" stroke-width="2" stroke-linecap="round"/>
<path d="M12 11.5C13.3807 11.5 14.5 10.3807 14.5 9C14.5 7.61929 13.3807 6.5 12 6.5C10.6193 6.5 9.5 7.61929 9.5 9C9.5 10.3807 10.6193 11.5 12 11.5Z" fill="black"/>
</mask>
<g mask="url(#mask0_16_442)">
<path d="M24 0H0V24H24V0Z" fill="black"/>
</g>
</svg>
