<svg width="24" height="25" viewBox="0 0 24 25" fill="none" xmlns="http://www.w3.org/2000/svg">
<path d="M10.155 15.273L10.146 15.252C10.0108 15.2151 9.87674 15.1741 9.744 15.129L9.734 15.125C8.35223 14.6529 7.15282 13.7603 6.30387 12.5722C5.45493 11.3842 4.999 9.96024 5 8.50004C4.99955 6.70815 5.6863 4.98431 6.91879 3.6836C8.15127 2.38289 9.83564 1.60436 11.625 1.50835C13.4143 1.41235 15.1723 2.00619 16.5369 3.16756C17.9015 4.32893 18.7687 5.96939 18.96 7.75104C19.004 8.16304 18.664 8.50004 18.25 8.50004C17.836 8.50004 17.505 8.16204 17.45 7.75204C17.317 6.78431 16.9287 5.86945 16.325 5.10149C15.7213 4.33352 14.9241 3.74015 14.0151 3.38237C13.1062 3.02458 12.1183 2.91528 11.1532 3.06569C10.188 3.21611 9.28027 3.62082 8.5233 4.23823C7.76633 4.85563 7.18742 5.66347 6.84606 6.57871C6.5047 7.49395 6.4132 8.48359 6.58098 9.4459C6.74875 10.4082 7.16974 11.3085 7.80068 12.0542C8.43162 12.7999 9.24976 13.3642 10.171 13.689C10.3566 13.2696 10.6807 12.9266 11.0891 12.7177C11.4974 12.5088 11.9652 12.4466 12.4139 12.5415C12.8627 12.6364 13.2652 12.8827 13.5539 13.2391C13.8427 13.5955 14.0002 14.0403 14 14.499C14.0005 14.9613 13.8408 15.4095 13.5481 15.7673C13.2554 16.1251 12.8479 16.3705 12.3947 16.4617C11.9415 16.5529 11.4707 16.4844 11.0624 16.2677C10.6541 16.0509 10.3334 15.6995 10.155 15.273ZM9.13 16.503C7.95102 16.0794 6.88018 15.4006 5.994 14.515C5.44614 14.5788 4.94077 14.8415 4.5739 15.2534C4.20704 15.6652 4.00423 16.1975 4.004 16.749V17.669C4.004 18.241 4.182 18.799 4.514 19.265C6.056 21.429 8.58 22.5 12 22.5C15.42 22.5 17.945 21.428 19.49 19.265C19.8235 18.7986 20.0029 18.2395 20.003 17.666V16.748C20.0031 16.4527 19.9451 16.1602 19.8322 15.8873C19.7193 15.6144 19.5537 15.3664 19.345 15.1575C19.1362 14.9485 18.8884 14.7828 18.6156 14.6696C18.3428 14.5565 18.0503 14.4982 17.755 14.498H15.5C15.5002 15.2429 15.2627 15.9684 14.8221 16.569C14.3815 17.1695 13.7609 17.6139 13.0503 17.8374C12.3398 18.061 11.5765 18.052 10.8715 17.8118C10.1664 17.5717 9.55632 17.1138 9.13 16.503ZM16 8.50004C16.0006 7.91537 15.8728 7.3377 15.6255 6.80789C15.3782 6.27808 15.0175 5.80907 14.569 5.43404C14.1531 5.08611 13.6707 4.82638 13.1513 4.67064C12.6319 4.5149 12.0862 4.4664 11.5475 4.52809C11.0087 4.58977 10.4882 4.76036 10.0174 5.02948C9.54661 5.29859 9.13547 5.66062 8.80895 6.09356C8.48243 6.5265 8.24735 7.02131 8.11799 7.54792C7.98863 8.07453 7.9677 8.62195 8.05646 9.1569C8.14523 9.69185 8.34184 10.2032 8.63435 10.6598C8.92685 11.1164 9.30915 11.5088 9.758 11.813C10.3865 11.2868 11.1803 10.9989 12 11C12.853 11 13.635 11.305 14.243 11.813C14.7845 11.4467 15.2279 10.9531 15.5343 10.3754C15.8406 9.79782 16.0005 9.15386 16 8.50004Z" fill="black"/>
</svg>
