<svg width="24" height="25" viewBox="0 0 24 25" fill="none" xmlns="http://www.w3.org/2000/svg">
<g clip-path="url(#clip0_14_261)">
<path d="M12 0.386475C5.37097 0.386475 0 5.74727 0 12.3637C0 18.9802 5.37097 24.341 12 24.341C18.629 24.341 24 18.9802 24 12.3637C24 5.74727 18.629 0.386475 12 0.386475ZM17.8935 8.59187L15.9242 17.8549C15.779 18.5118 15.3871 18.6711 14.8403 18.362L11.8403 16.1549L10.3935 17.5458C10.2339 17.7052 10.0984 17.8405 9.78871 17.8405L10.0016 14.793L15.5613 9.77994C15.8032 9.56744 15.5081 9.4467 15.1887 9.6592L8.31774 13.9768L5.35645 13.0544C4.7129 12.8515 4.69839 12.412 5.49194 12.103L17.0613 7.65011C17.5984 7.45693 18.0677 7.78051 17.8935 8.59187Z" fill="#FFE5BE" fill-opacity="0.58"/>
</g>
<defs>
<clipPath id="clip0_14_261">
<rect width="24" height="24.7273" fill="white"/>
</clipPath>
</defs>
</svg>
