<svg width="24" height="24" fill="none" xmlns="http://www.w3.org/2000/svg"><path d="M13 20.27 12.942 18H11.5c-2.085 0-3.856-.729-5.313-2.187C4.729 14.356 4 12.585 4 10.5c0-2.085.729-3.856 2.187-5.313C7.644 3.729 9.415 3 11.5 3c1.042 0 2.018.195 2.928.586.91.39 1.704.924 2.383 1.603a7.541 7.541 0 0 1 1.603 2.383c.39.91.586 1.886.586 2.928a9.61 9.61 0 0 1-.449 2.937c-.3.938-.714 1.825-1.242 2.661a12.242 12.242 0 0 1-1.9 2.31A14.56 14.56 0 0 1 13 20.269m1-1.919c1.183-1 2.146-2.17 2.888-3.512A8.81 8.81 0 0 0 18 10.5c0-1.817-.63-3.354-1.888-4.612C14.853 4.63 13.316 4.001 11.5 4c-1.817 0-3.354.63-4.612 1.888C5.63 7.147 5.001 8.684 5 10.5c0 1.817.63 3.354 1.888 4.613C8.147 16.372 9.684 17.001 11.5 17H14v1.35Zm-2.467-2.779a.711.711 0 0 0 .523-.213.713.713 0 0 0 .213-.523.711.711 0 0 0-.213-.523.711.711 0 0 0-.523-.214.71.71 0 0 0-.523.214.71.71 0 0 0-.214.523.71.71 0 0 0 .214.523.711.711 0 0 0 .523.213Zm-.437-2.925h.885c.025-.41.104-.734.236-.973s.445-.605.94-1.1c.287-.287.515-.58.683-.879.168-.299.252-.642.252-1.029 0-.721-.249-1.288-.747-1.7-.498-.413-1.1-.619-1.807-.619-.617 0-1.14.169-1.57.507-.43.338-.745.741-.945 1.209l.823.319a2.57 2.57 0 0 1 .59-.809c.26-.243.627-.364 1.102-.364.566 0 .984.154 1.253.461.27.308.405.644.405 1.008 0 .335-.087.618-.26.849a7.245 7.245 0 0 1-.667.755c-.48.423-.796.803-.947 1.14-.15.336-.226.744-.226 1.225Z" fill="#000"/></svg>