<svg width="63" height="63" viewBox="0 0 63 63" fill="none" xmlns="http://www.w3.org/2000/svg">
<g clip-path="url(#clip0_4_272)">
<rect width="63" height="63" rx="1" fill="#8DADCC"/>
<path d="M13.392 37.448C13.392 36.584 13.632 35.832 14.112 35.192C14.592 34.552 15.216 34.064 15.984 33.728C16.592 33.456 17.304 33.184 18.12 32.912C18.936 32.64 19.568 32.352 20.016 32.048C20.464 31.744 20.688 31.384 20.688 30.968V28.976C20.688 28.48 20.488 28.152 20.088 27.992C19.656 27.816 18.984 27.728 18.072 27.728C16.968 27.728 15.512 27.928 13.704 28.328V25.688C15.304 25.352 16.976 25.184 18.72 25.184C20.608 25.184 22.008 25.472 22.92 26.048C23.848 26.624 24.312 27.584 24.312 28.928V31.088C24.312 31.904 24.064 32.616 23.568 33.224C23.088 33.816 22.464 34.264 21.696 34.568C20.976 34.872 20.24 35.144 19.488 35.384C18.672 35.672 18.024 35.992 17.544 36.344C17.08 36.696 16.848 37.112 16.848 37.592V38.384H24.336V41H13.392V37.448ZM32.2099 29.096L27.9619 31.448V28.496L32.8819 25.424H35.7139V41H32.2099V29.096ZM45.5798 34.664H41.5238V32.24H45.5798V27.944H48.0038V32.24H52.0838V34.664H48.0038V38.984H45.5798V34.664Z" fill="white"/>
</g>
<defs>
<clipPath id="clip0_4_272">
<rect width="63" height="63" rx="1" fill="white"/>
</clipPath>
</defs>
</svg>
