<svg width="47" height="47" viewBox="0 0 47 47" fill="none" xmlns="http://www.w3.org/2000/svg">
<path d="M25.5132 3.91675C27.7163 3.92262 28.8345 3.93437 29.7999 3.96179L30.1799 3.9755C30.6185 3.99116 31.0513 4.01075 31.5742 4.03425C33.6579 4.13216 35.0796 4.46116 36.3271 4.94487C37.6196 5.44229 38.7084 6.11596 39.7972 7.20283C40.793 8.18179 41.5636 9.36598 42.0552 10.673C42.5389 11.9205 42.8679 13.3422 42.9658 15.4278C42.9893 15.9487 43.0089 16.3815 43.0246 16.8222L43.0363 17.2021C43.0657 18.1656 43.0774 19.2838 43.0814 21.4869L43.0833 22.9478V25.5132C43.0881 26.9417 43.0731 28.3701 43.0383 29.7981L43.0265 30.178C43.0109 30.6186 42.9913 31.0514 42.9678 31.5723C42.8699 33.658 42.5369 35.0777 42.0552 36.3272C41.565 37.6349 40.7943 38.8194 39.7972 39.7973C38.818 40.7928 37.6339 41.5633 36.3271 42.0553C35.0796 42.539 33.6579 42.868 31.5742 42.9659C31.1095 42.9878 30.6447 43.0074 30.1799 43.0247L29.7999 43.0364C28.8345 43.0638 27.7163 43.0775 25.5132 43.0815L24.0522 43.0834H21.4888C20.0597 43.0883 18.6306 43.0733 17.202 43.0384L16.8221 43.0266C16.3572 43.009 15.8924 42.9888 15.4277 42.9659C13.3441 42.868 11.9223 42.539 10.6729 42.0553C9.36605 41.5645 8.18233 40.7938 7.2047 39.7973C6.208 38.8187 5.43676 37.6345 4.94478 36.3272C4.46107 35.0797 4.13207 33.658 4.03416 31.5723C4.01234 31.1077 3.99276 30.6429 3.97541 30.178L3.96562 29.7981C3.92953 28.3701 3.91321 26.9417 3.91666 25.5132V21.4869C3.91119 20.0585 3.92555 18.6301 3.95974 17.2021L3.97345 16.8222C3.98912 16.3815 4.0087 15.9487 4.0322 15.4278C4.13012 13.3422 4.45912 11.9224 4.94282 10.673C5.43459 9.36464 6.20736 8.18009 7.20666 7.20283C8.18405 6.20697 9.36698 5.43639 10.6729 4.94487C11.9223 4.46116 13.3421 4.13216 15.4277 4.03425C15.9487 4.01075 16.3834 3.99116 16.8221 3.9755L17.202 3.96375C18.63 3.92895 20.0584 3.91394 21.4868 3.91871L25.5132 3.91675ZM23.5 13.7084C20.9031 13.7084 18.4125 14.74 16.5762 16.5763C14.7399 18.4126 13.7083 20.9032 13.7083 23.5001C13.7083 26.097 14.7399 28.5875 16.5762 30.4238C18.4125 32.2601 20.9031 33.2917 23.5 33.2917C26.0969 33.2917 28.5875 32.2601 30.4237 30.4238C32.26 28.5875 33.2917 26.097 33.2917 23.5001C33.2917 20.9032 32.26 18.4126 30.4237 16.5763C28.5875 14.74 26.0969 13.7084 23.5 13.7084ZM23.5 17.6251C24.2715 17.625 25.0355 17.7768 25.7483 18.0719C26.4612 18.367 27.1089 18.7997 27.6545 19.3451C28.2002 19.8906 28.633 20.5382 28.9284 21.2509C29.2238 21.9637 29.3758 22.7276 29.376 23.4991C29.3761 24.2706 29.2243 25.0346 28.9291 25.7474C28.634 26.4603 28.2014 27.108 27.6559 27.6536C27.1105 28.1993 26.4629 28.6321 25.7501 28.9275C25.0374 29.2229 24.2735 29.375 23.5019 29.3751C21.9438 29.3751 20.4495 28.7561 19.3477 27.6543C18.2459 26.5526 17.6269 25.0582 17.6269 23.5001C17.6269 21.9419 18.2459 20.4476 19.3477 19.3458C20.4495 18.2441 21.9438 17.6251 23.5019 17.6251M33.7832 10.7709C33.134 10.7709 32.5113 11.0288 32.0523 11.4879C31.5932 11.947 31.3353 12.5696 31.3353 13.2188C31.3353 13.8681 31.5932 14.4907 32.0523 14.9498C32.5113 15.4088 33.134 15.6667 33.7832 15.6667C34.4324 15.6667 35.0551 15.4088 35.5141 14.9498C35.9732 14.4907 36.2311 13.8681 36.2311 13.2188C36.2311 12.5696 35.9732 11.947 35.5141 11.4879C35.0551 11.0288 34.4324 10.7709 33.7832 10.7709Z" fill="#8DADCC"/>
</svg>
